<ttFont>
<head>
    <!-- Most of this table will be recalculated by the compiler -->
    <tableVersion value="1.0"/>
    <fontRevision value="0.1"/>
    <checkSumAdjustment value="0x7b59cc28"/>
    <magicNumber value="0x5f0f3cf5"/>
    <flags value="00000000 00000011"/>
    <unitsPerEm value="1000"/>
    <created value="Mon Dec 23 16:45:26 2024"/>
    <modified value="Thu Dec 26 13:55:44 2024"/>
    <xMin value="-728"/>
    <yMin value="-438"/>
    <xMax value="1344"/>
    <yMax value="1218"/>
    <macStyle value="00000000 00000000"/>
    <lowestRecPPEM value="6"/>
    <fontDirectionHint value="2"/>
    <indexToLocFormat value="0"/>
    <glyphDataFormat value="0"/>
  </head>
    <TTGlyph name=".notdef" xMin="193" yMin="0" xMax="683" yMax="794">
      <contour>
        <pt x="208" y="794" on="1"/>
        <pt x="668" y="794" on="1"/>
        <pt x="674" y="794" on="0"/>
        <pt x="679" y="790" on="1"/>
        <pt x="683" y="785" on="0"/>
        <pt x="683" y="779" on="1"/>
        <pt x="683" y="15" on="1"/>
        <pt x="683" y="9" on="0"/>
        <pt x="679" y="5" on="1"/>
        <pt x="674" y="0" on="0"/>
        <pt x="668" y="0" on="1"/>
        <pt x="208" y="0" on="1"/>
        <pt x="202" y="0" on="0"/>
        <pt x="198" y="5" on="1"/>
        <pt x="193" y="9" on="0"/>
        <pt x="193" y="15" on="1"/>
        <pt x="193" y="779" on="1"/>
        <pt x="193" y="785" on="0"/>
        <pt x="198" y="790" on="1"/>
        <pt x="202" y="794" on="0"/>
      </contour>
      <contour>
        <pt x="258" y="732" on="1"/>
        <pt x="252" y="732" on="0"/>
        <pt x="248" y="728" on="1"/>
        <pt x="243" y="723" on="0"/>
        <pt x="243" y="717" on="1"/>
        <pt x="243" y="81" on="1"/>
        <pt x="243" y="75" on="0"/>
        <pt x="248" y="71" on="1"/>
        <pt x="252" y="66" on="0"/>
        <pt x="258" y="66" on="1"/>
        <pt x="620" y="66" on="1"/>
        <pt x="626" y="66" on="0"/>
        <pt x="631" y="71" on="1"/>
        <pt x="635" y="75" on="0"/>
        <pt x="635" y="81" on="1"/>
        <pt x="635" y="717" on="1"/>
        <pt x="635" y="723" on="0"/>
        <pt x="631" y="728" on="1"/>
        <pt x="626" y="732" on="0"/>
        <pt x="620" y="732" on="1"/>
      </contour>
      <contour>
        <pt x="371" y="621" on="1"/>
        <pt x="374" y="621" on="0"/>
        <pt x="377" y="621" on="0"/>
        <pt x="384" y="621" on="1"/>
        <pt x="438" y="621" on="0"/>
        <pt x="476" y="584" on="1"/>
        <pt x="513" y="546" on="0"/>
        <pt x="513" y="493" on="1"/>
        <pt x="513" y="457" on="0"/>
        <pt x="495" y="427" on="1"/>
        <pt x="477" y="397" on="0"/>
        <pt x="447" y="380" on="1"/>
        <pt x="447" y="322" on="1"/>
        <pt x="371" y="322" on="1"/>
        <pt x="371" y="364" on="1"/>
        <pt x="371" y="427" on="1"/>
        <pt x="371" y="441" on="1"/>
        <pt x="377" y="439" on="0"/>
        <pt x="384" y="439" on="1"/>
        <pt x="406" y="439" on="0"/>
        <pt x="422" y="455" on="1"/>
        <pt x="438" y="470" on="0"/>
        <pt x="438" y="493" on="1"/>
        <pt x="438" y="515" on="0"/>
        <pt x="422" y="531" on="1"/>
        <pt x="406" y="546" on="0"/>
        <pt x="384" y="546" on="1"/>
        <pt x="377" y="546" on="0"/>
        <pt x="371" y="544" on="1"/>
      </contour>
      <contour>
        <pt x="371" y="206" on="1"/>
        <pt x="371" y="277" on="1"/>
        <pt x="447" y="277" on="1"/>
        <pt x="447" y="206" on="1"/>
      </contour>
    </TTGlyph>
    <TTGlyph name="A" xMin="50" yMin="0" xMax="702" yMax="769">
      <contour>
        <pt x="407" y="367" on="1"/>
        <pt x="357" y="535" on="1"/>
        <pt x="297" y="367" on="1"/>
      </contour>
      <contour>
        <pt x="550" y="0" on="1"/>
        <pt x="461" y="228" on="1"/>
        <pt x="461" y="227" on="1"/>
        <pt x="261" y="227" on="1"/>
        <pt x="202" y="0" on="1"/>
        <pt x="50" y="0" on="1"/>
        <pt x="266" y="769" on="1"/>
        <pt x="418" y="769" on="1"/>
        <pt x="702" y="0" on="1"/>
      </contour>
    </TTGlyph>
    <TTGlyph name="A.0" xMin="50" yMin="0" xMax="702" yMax="769">
      <component glyphName="A" x="0" y="0" flags="0x204"/>
    </TTGlyph>
    <TTGlyph name="A.1" xMin="50" yMin="0" xMax="702" yMax="769">
      <component glyphName="A" x="0" y="0" flags="0x204"/>
    </TTGlyph>
    <TTGlyph name="A.2" xMin="50" yMin="0" xMax="702" yMax="769">
      <contour>
        <pt x="407" y="367" on="1"/>
        <pt x="357" y="535" on="1"/>
        <pt x="297" y="367" on="1"/>
      </contour>
      <contour>
        <pt x="550" y="0" on="1"/>
        <pt x="461" y="228" on="1"/>
        <pt x="461" y="227" on="1"/>
        <pt x="261" y="227" on="1"/>
        <pt x="202" y="0" on="1"/>
        <pt x="50" y="0" on="1"/>
        <pt x="266" y="769" on="1"/>
        <pt x="418" y="769" on="1"/>
        <pt x="702" y="0" on="1"/>
      </contour>
    </TTGlyph>
    <TTGlyph name="AE" xMin="50" yMin="-3" xMax="974" yMax="778">
      <contour>
        <pt x="865" y="485" on="1"/>
        <pt x="866" y="333" on="1"/>
        <pt x="558" y="333" on="1"/>
        <pt x="558" y="149" on="1"/>
        <pt x="973" y="149" on="1"/>
        <pt x="974" y="-3" on="1"/>
        <pt x="407" y="-3" on="1"/>
        <pt x="407" y="-2" on="1"/>
        <pt x="406" y="-2" on="1"/>
        <pt x="406" y="227" on="1"/>
        <pt x="261" y="227" on="1"/>
        <pt x="202" y="0" on="1"/>
        <pt x="50" y="0" on="1"/>
        <pt x="250" y="778" on="1"/>
        <pt x="973" y="778" on="1"/>
        <pt x="974" y="626" on="1"/>
        <pt x="558" y="626" on="1"/>
        <pt x="558" y="485" on="1"/>
      </contour>
      <contour>
        <pt x="407" y="367" on="1"/>
        <pt x="341" y="535" on="1"/>
        <pt x="297" y="367" on="1"/>
      </contour>
    </TTGlyph>
    <TTGlyph name="AE.0" xMin="50" yMin="-3" xMax="974" yMax="778">
      <component glyphName="AE" x="0" y="0" flags="0x204"/>
    </TTGlyph>
    <TTGlyph name="AE.1" xMin="50" yMin="-3" xMax="974" yMax="778">
      <component glyphName="AE" x="0" y="0" flags="0x204"/>
    </TTGlyph>
    <TTGlyph name="AE.2" xMin="50" yMin="-3" xMax="974" yMax="778">
      <contour>
        <pt x="865" y="485" on="1"/>
        <pt x="866" y="333" on="1"/>
        <pt x="558" y="333" on="1"/>
        <pt x="558" y="149" on="1"/>
        <pt x="973" y="149" on="1"/>
        <pt x="974" y="-3" on="1"/>
        <pt x="407" y="-3" on="1"/>
        <pt x="407" y="-2" on="1"/>
        <pt x="406" y="-2" on="1"/>
        <pt x="406" y="227" on="1"/>
        <pt x="261" y="227" on="1"/>
        <pt x="202" y="0" on="1"/>
        <pt x="50" y="0" on="1"/>
        <pt x="250" y="778" on="1"/>
        <pt x="973" y="778" on="1"/>
        <pt x="974" y="626" on="1"/>
        <pt x="558" y="626" on="1"/>
        <pt x="558" y="485" on="1"/>
      </contour>
      <contour>
        <pt x="407" y="367" on="1"/>
        <pt x="341" y="535" on="1"/>
        <pt x="297" y="367" on="1"/>
      </contour>
    </TTGlyph>
    <TTGlyph name="Aacute" xMin="50" yMin="0" xMax="702" yMax="1122">
      <component glyphName="acutecomb" x="379" y="317" flags="0x4"/>
      <component glyphName="A" x="0" y="0" flags="0x204"/>
    </TTGlyph>
    <TTGlyph name="Aacute.0" xMin="50" yMin="0" xMax="702" yMax="1122">
      <component glyphName="Aacute" x="0" y="0" flags="0x204"/>
    </TTGlyph>
    <TTGlyph name="Aacute.1" xMin="50" yMin="0" xMax="702" yMax="1122">
      <component glyphName="Aacute" x="0" y="0" flags="0x204"/>
    </TTGlyph>
    <TTGlyph name="Aacute.2" xMin="50" yMin="0" xMax="702" yMax="1122">
      <contour>
        <pt x="342" y="833" on="1"/>
        <pt x="234" y="940" on="1"/>
        <pt x="416" y="1122" on="1"/>
        <pt x="524" y="1015" on="1"/>
      </contour>
      <contour>
        <pt x="407" y="367" on="1"/>
        <pt x="357" y="535" on="1"/>
        <pt x="297" y="367" on="1"/>
      </contour>
      <contour>
        <pt x="550" y="0" on="1"/>
        <pt x="461" y="228" on="1"/>
        <pt x="461" y="227" on="1"/>
        <pt x="261" y="227" on="1"/>
        <pt x="202" y="0" on="1"/>
        <pt x="50" y="0" on="1"/>
        <pt x="266" y="769" on="1"/>
        <pt x="418" y="769" on="1"/>
        <pt x="702" y="0" on="1"/>
      </contour>
    </TTGlyph>
    <TTGlyph name="Abreve" xMin="50" yMin="0" xMax="702" yMax="957">
      <component glyphName="uni0306" x="326" y="25" flags="0x4"/>
      <component glyphName="A" x="0" y="0" flags="0x204"/>
    </TTGlyph>
    <TTGlyph name="Abreve.0" xMin="50" yMin="0" xMax="702" yMax="957">
      <component glyphName="Abreve" x="0" y="0" flags="0x204"/>
    </TTGlyph>
    <TTGlyph name="Abreve.1" xMin="50" yMin="0" xMax="702" yMax="957">
      <component glyphName="Abreve" x="0" y="0" flags="0x204"/>
    </TTGlyph>
    <TTGlyph name="Abreve.2" xMin="50" yMin="0" xMax="702" yMax="957">
      <contour>
        <pt x="454" y="957" on="1"/>
        <pt x="454" y="943" on="1"/>
        <pt x="454" y="890" on="0"/>
        <pt x="417" y="853" on="1"/>
        <pt x="380" y="815" on="0"/>
        <pt x="326" y="815" on="1"/>
        <pt x="272" y="815" on="0"/>
        <pt x="235" y="852" on="1"/>
        <pt x="198" y="889" on="0"/>
        <pt x="198" y="943" on="1"/>
        <pt x="198" y="957" on="1"/>
        <pt x="274" y="957" on="1"/>
        <pt x="272" y="949" on="0"/>
        <pt x="272" y="943" on="1"/>
        <pt x="272" y="921" on="0"/>
        <pt x="288" y="905" on="1"/>
        <pt x="304" y="889" on="0"/>
        <pt x="327" y="889" on="1"/>
        <pt x="349" y="889" on="0"/>
        <pt x="365" y="905" on="1"/>
        <pt x="380" y="921" on="0"/>
        <pt x="380" y="943" on="1"/>
        <pt x="380" y="949" on="0"/>
        <pt x="378" y="957" on="1"/>
      </contour>
      <contour>
        <pt x="407" y="367" on="1"/>
        <pt x="357" y="535" on="1"/>
        <pt x="297" y="367" on="1"/>
      </contour>
      <contour>
        <pt x="550" y="0" on="1"/>
        <pt x="461" y="228" on="1"/>
        <pt x="461" y="227" on="1"/>
        <pt x="261" y="227" on="1"/>
        <pt x="202" y="0" on="1"/>
        <pt x="50" y="0" on="1"/>
        <pt x="266" y="769" on="1"/>
        <pt x="418" y="769" on="1"/>
        <pt x="702" y="0" on="1"/>
      </contour>
    </TTGlyph>
    <TTGlyph name="Acircumflex" xMin="50" yMin="0" xMax="702" yMax="1000">
      <component glyphName="uni0302" x="326" y="66" flags="0x4"/>
      <component glyphName="A" x="0" y="0" flags="0x204"/>
    </TTGlyph>
    <TTGlyph name="Acircumflex.0" xMin="50" yMin="0" xMax="702" yMax="1000">
      <component glyphName="Acircumflex" x="0" y="0" flags="0x204"/>
    </TTGlyph>
    <TTGlyph name="Acircumflex.1" xMin="50" yMin="0" xMax="702" yMax="1000">
      <component glyphName="Acircumflex" x="0" y="0" flags="0x204"/>
    </TTGlyph>
    <TTGlyph name="Acircumflex.2" xMin="50" yMin="0" xMax="702" yMax="1000">
      <contour>
        <pt x="226" y="832" on="1"/>
        <pt x="297" y="1000" on="1"/>
        <pt x="298" y="1000" on="1"/>
        <pt x="373" y="1000" on="1"/>
        <pt x="374" y="1000" on="1"/>
        <pt x="426" y="832" on="1"/>
        <pt x="350" y="832" on="1"/>
        <pt x="330" y="940" on="1"/>
        <pt x="302" y="832" on="1"/>
      </contour>
      <contour>
        <pt x="407" y="367" on="1"/>
        <pt x="357" y="535" on="1"/>
        <pt x="297" y="367" on="1"/>
      </contour>
      <contour>
        <pt x="550" y="0" on="1"/>
        <pt x="461" y="228" on="1"/>
        <pt x="461" y="227" on="1"/>
        <pt x="261" y="227" on="1"/>
        <pt x="202" y="0" on="1"/>
        <pt x="50" y="0" on="1"/>
        <pt x="266" y="769" on="1"/>
        <pt x="418" y="769" on="1"/>
        <pt x="702" y="0" on="1"/>
      </contour>
    </TTGlyph>
    <TTGlyph name="Adieresis" xMin="50" yMin="0" xMax="702" yMax="975">
      <component glyphName="uni0308" x="326" y="335" flags="0x4"/>
      <component glyphName="A" x="0" y="0" flags="0x204"/>
    </TTGlyph>
    <TTGlyph name="Adieresis.0" xMin="50" yMin="0" xMax="702" yMax="975">
      <component glyphName="Adieresis" x="0" y="0" flags="0x204"/>
    </TTGlyph>
    <TTGlyph name="Adieresis.1" xMin="50" yMin="0" xMax="702" yMax="975">
      <component glyphName="Adieresis" x="0" y="0" flags="0x204"/>
    </TTGlyph>
    <TTGlyph name="Adieresis.2" xMin="50" yMin="0" xMax="702" yMax="975">
      <contour>
        <pt x="150" y="833" on="1"/>
        <pt x="150" y="975" on="1"/>
        <pt x="302" y="975" on="1"/>
        <pt x="302" y="833" on="1"/>
      </contour>
      <contour>
        <pt x="350" y="833" on="1"/>
        <pt x="350" y="975" on="1"/>
        <pt x="502" y="975" on="1"/>
        <pt x="502" y="833" on="1"/>
      </contour>
      <contour>
        <pt x="407" y="367" on="1"/>
        <pt x="357" y="535" on="1"/>
        <pt x="297" y="367" on="1"/>
      </contour>
      <contour>
        <pt x="550" y="0" on="1"/>
        <pt x="461" y="228" on="1"/>
        <pt x="461" y="227" on="1"/>
        <pt x="261" y="227" on="1"/>
        <pt x="202" y="0" on="1"/>
        <pt x="50" y="0" on="1"/>
        <pt x="266" y="769" on="1"/>
        <pt x="418" y="769" on="1"/>
        <pt x="702" y="0" on="1"/>
      </contour>
    </TTGlyph>
    <TTGlyph name="Agrave" xMin="50" yMin="0" xMax="702" yMax="1122">
      <component glyphName="gravecomb" x="305" y="317" flags="0x4"/>
      <component glyphName="A" x="0" y="0" flags="0x204"/>
    </TTGlyph>
    <TTGlyph name="Agrave.0" xMin="50" yMin="0" xMax="702" yMax="1122">
      <component glyphName="Agrave" x="0" y="0" flags="0x204"/>
    </TTGlyph>
    <TTGlyph name="Agrave.1" xMin="50" yMin="0" xMax="702" yMax="1122">
      <component glyphName="Agrave" x="0" y="0" flags="0x204"/>
    </TTGlyph>
    <TTGlyph name="Agrave.2" xMin="50" yMin="0" xMax="702" yMax="1122">
      <contour>
        <pt x="342" y="833" on="1"/>
        <pt x="160" y="1015" on="1"/>
        <pt x="268" y="1122" on="1"/>
        <pt x="450" y="940" on="1"/>
      </contour>
      <contour>
        <pt x="407" y="367" on="1"/>
        <pt x="357" y="535" on="1"/>
        <pt x="297" y="367" on="1"/>
      </contour>
      <contour>
        <pt x="550" y="0" on="1"/>
        <pt x="461" y="228" on="1"/>
        <pt x="461" y="227" on="1"/>
        <pt x="261" y="227" on="1"/>
        <pt x="202" y="0" on="1"/>
        <pt x="50" y="0" on="1"/>
        <pt x="266" y="769" on="1"/>
        <pt x="418" y="769" on="1"/>
        <pt x="702" y="0" on="1"/>
      </contour>
    </TTGlyph>
    <TTGlyph name="Amacron" xMin="50" yMin="0" xMax="702" yMax="909">
      <component glyphName="uni0304" x="326" y="51" flags="0x4"/>
      <component glyphName="A" x="0" y="0" flags="0x204"/>
    </TTGlyph>
    <TTGlyph name="Amacron.0" xMin="50" yMin="0" xMax="702" yMax="909">
      <component glyphName="Amacron" x="0" y="0" flags="0x204"/>
    </TTGlyph>
    <TTGlyph name="Amacron.1" xMin="50" yMin="0" xMax="702" yMax="909">
      <component glyphName="Amacron" x="0" y="0" flags="0x204"/>
    </TTGlyph>
    <TTGlyph name="Amacron.2" xMin="50" yMin="0" xMax="702" yMax="909">
      <contour>
        <pt x="462" y="909" on="1"/>
        <pt x="462" y="833" on="1"/>
        <pt x="190" y="833" on="1"/>
        <pt x="190" y="909" on="1"/>
      </contour>
      <contour>
        <pt x="407" y="367" on="1"/>
        <pt x="357" y="535" on="1"/>
        <pt x="297" y="367" on="1"/>
      </contour>
      <contour>
        <pt x="550" y="0" on="1"/>
        <pt x="461" y="228" on="1"/>
        <pt x="461" y="227" on="1"/>
        <pt x="261" y="227" on="1"/>
        <pt x="202" y="0" on="1"/>
        <pt x="50" y="0" on="1"/>
        <pt x="266" y="769" on="1"/>
        <pt x="418" y="769" on="1"/>
        <pt x="702" y="0" on="1"/>
      </contour>
    </TTGlyph>
    <TTGlyph name="Aogonek" xMin="50" yMin="-252" xMax="702" yMax="769">
      <component glyphName="uni0328" x="614" y="-184" flags="0x4"/>
      <component glyphName="A" x="0" y="0" flags="0x204"/>
    </TTGlyph>
    <TTGlyph name="Aogonek.0" xMin="50" yMin="-252" xMax="702" yMax="769">
      <component glyphName="Aogonek" x="0" y="0" flags="0x204"/>
    </TTGlyph>
    <TTGlyph name="Aogonek.1" xMin="50" yMin="-252" xMax="702" yMax="769">
      <component glyphName="Aogonek" x="0" y="0" flags="0x204"/>
    </TTGlyph>
    <TTGlyph name="Aogonek.2" xMin="50" yMin="-252" xMax="702" yMax="769">
      <contour>
        <pt x="635" y="-252" on="1"/>
        <pt x="622" y="-252" on="1"/>
        <pt x="568" y="-252" on="0"/>
        <pt x="531" y="-214" on="1"/>
        <pt x="493" y="-177" on="0"/>
        <pt x="493" y="-124" on="1"/>
        <pt x="493" y="-70" on="0"/>
        <pt x="531" y="-32" on="1"/>
        <pt x="568" y="5" on="0"/>
        <pt x="622" y="5" on="1"/>
        <pt x="635" y="5" on="1"/>
        <pt x="635" y="-72" on="1"/>
        <pt x="627" y="-70" on="0"/>
        <pt x="622" y="-70" on="1"/>
        <pt x="600" y="-70" on="0"/>
        <pt x="584" y="-86" on="1"/>
        <pt x="568" y="-102" on="0"/>
        <pt x="568" y="-124" on="1"/>
        <pt x="568" y="-146" on="0"/>
        <pt x="584" y="-161" on="1"/>
        <pt x="599" y="-177" on="0"/>
        <pt x="622" y="-177" on="1"/>
        <pt x="627" y="-177" on="0"/>
        <pt x="635" y="-175" on="1"/>
      </contour>
      <contour>
        <pt x="407" y="367" on="1"/>
        <pt x="357" y="535" on="1"/>
        <pt x="297" y="367" on="1"/>
      </contour>
      <contour>
        <pt x="550" y="0" on="1"/>
        <pt x="461" y="228" on="1"/>
        <pt x="461" y="227" on="1"/>
        <pt x="261" y="227" on="1"/>
        <pt x="202" y="0" on="1"/>
        <pt x="50" y="0" on="1"/>
        <pt x="266" y="769" on="1"/>
        <pt x="418" y="769" on="1"/>
        <pt x="702" y="0" on="1"/>
      </contour>
    </TTGlyph>
    <TTGlyph name="Aring" xMin="50" yMin="0" xMax="702" yMax="1061">
      <component glyphName="uni030A" x="335" y="372" flags="0x4"/>
      <component glyphName="A" x="0" y="0" flags="0x204"/>
    </TTGlyph>
    <TTGlyph name="Aring.0" xMin="50" yMin="0" xMax="702" yMax="1061">
      <component glyphName="Aring" x="0" y="0" flags="0x204"/>
    </TTGlyph>
    <TTGlyph name="Aring.1" xMin="50" yMin="0" xMax="702" yMax="1061">
      <component glyphName="Aring" x="0" y="0" flags="0x204"/>
    </TTGlyph>
    <TTGlyph name="Aring.2" xMin="50" yMin="0" xMax="702" yMax="1061">
      <contour>
        <pt x="323" y="984" on="1"/>
        <pt x="323" y="985" on="1"/>
        <pt x="323" y="985" on="1"/>
        <pt x="304" y="981" on="0"/>
        <pt x="293" y="967" on="1"/>
        <pt x="281" y="952" on="0"/>
        <pt x="281" y="932" on="1"/>
        <pt x="281" y="913" on="0"/>
        <pt x="293" y="899" on="1"/>
        <pt x="304" y="884" on="0"/>
        <pt x="323" y="880" on="1"/>
        <pt x="323" y="881" on="1"/>
        <pt x="331" y="879" on="0"/>
        <pt x="335" y="879" on="1"/>
        <pt x="339" y="879" on="0"/>
        <pt x="347" y="881" on="1"/>
        <pt x="347" y="880" on="1"/>
        <pt x="366" y="884" on="0"/>
        <pt x="378" y="899" on="1"/>
        <pt x="389" y="913" on="0"/>
        <pt x="389" y="932" on="1"/>
        <pt x="389" y="952" on="0"/>
        <pt x="378" y="967" on="1"/>
        <pt x="366" y="981" on="0"/>
        <pt x="347" y="985" on="1"/>
        <pt x="347" y="984" on="1"/>
        <pt x="339" y="986" on="0"/>
        <pt x="335" y="986" on="1"/>
        <pt x="331" y="986" on="0"/>
      </contour>
      <contour>
        <pt x="334" y="804" on="1"/>
        <pt x="332" y="804" on="1"/>
        <pt x="325" y="804" on="1"/>
        <pt x="274" y="808" on="0"/>
        <pt x="240" y="845" on="1"/>
        <pt x="205" y="881" on="0"/>
        <pt x="205" y="932" on="1"/>
        <pt x="205" y="983" on="0"/>
        <pt x="240" y="1020" on="1"/>
        <pt x="275" y="1057" on="0"/>
        <pt x="325" y="1061" on="1"/>
        <pt x="332" y="1061" on="1"/>
        <pt x="334" y="1061" on="1"/>
        <pt x="336" y="1061" on="1"/>
        <pt x="390" y="1061" on="0"/>
        <pt x="428" y="1024" on="1"/>
        <pt x="465" y="986" on="0"/>
        <pt x="465" y="932" on="1"/>
        <pt x="465" y="879" on="0"/>
        <pt x="428" y="842" on="1"/>
        <pt x="390" y="804" on="0"/>
        <pt x="336" y="804" on="1"/>
      </contour>
      <contour>
        <pt x="407" y="367" on="1"/>
        <pt x="357" y="535" on="1"/>
        <pt x="297" y="367" on="1"/>
      </contour>
      <contour>
        <pt x="550" y="0" on="1"/>
        <pt x="461" y="228" on="1"/>
        <pt x="461" y="227" on="1"/>
        <pt x="261" y="227" on="1"/>
        <pt x="202" y="0" on="1"/>
        <pt x="50" y="0" on="1"/>
        <pt x="266" y="769" on="1"/>
        <pt x="418" y="769" on="1"/>
        <pt x="702" y="0" on="1"/>
      </contour>
    </TTGlyph>
    <TTGlyph name="Atilde" xMin="50" yMin="0" xMax="702" yMax="950">
      <component glyphName="tildecomb" x="342" y="31" flags="0x4"/>
      <component glyphName="A" x="0" y="0" flags="0x204"/>
    </TTGlyph>
    <TTGlyph name="Atilde.0" xMin="50" yMin="0" xMax="702" yMax="950">
      <component glyphName="Atilde" x="0" y="0" flags="0x204"/>
    </TTGlyph>
    <TTGlyph name="Atilde.1" xMin="50" yMin="0" xMax="702" yMax="950">
      <component glyphName="Atilde" x="0" y="0" flags="0x204"/>
    </TTGlyph>
    <TTGlyph name="Atilde.2" xMin="50" yMin="0" xMax="702" yMax="950">
      <contour>
        <pt x="467" y="950" on="1"/>
        <pt x="467" y="874" on="1"/>
        <pt x="466" y="872" on="0"/>
        <pt x="459" y="863" on="1"/>
        <pt x="451" y="854" on="0"/>
        <pt x="435" y="844" on="1"/>
        <pt x="419" y="833" on="0"/>
        <pt x="403" y="833" on="1"/>
        <pt x="353" y="833" on="1"/>
        <pt x="337" y="833" on="0"/>
        <pt x="315" y="847" on="1"/>
        <pt x="292" y="861" on="0"/>
        <pt x="276" y="861" on="1"/>
        <pt x="265" y="861" on="0"/>
        <pt x="250" y="854" on="1"/>
        <pt x="235" y="847" on="0"/>
        <pt x="226" y="840" on="1"/>
        <pt x="217" y="833" on="1"/>
        <pt x="217" y="909" on="1"/>
        <pt x="249" y="937" on="0"/>
        <pt x="274" y="937" on="1"/>
        <pt x="291" y="937" on="0"/>
        <pt x="315" y="924" on="1"/>
        <pt x="338" y="910" on="0"/>
        <pt x="354" y="910" on="1"/>
        <pt x="371" y="910" on="0"/>
        <pt x="383" y="910" on="0"/>
        <pt x="399" y="910" on="1"/>
        <pt x="414" y="910" on="0"/>
        <pt x="431" y="920" on="1"/>
        <pt x="448" y="930" on="0"/>
        <pt x="457" y="940" on="1"/>
      </contour>
      <contour>
        <pt x="407" y="367" on="1"/>
        <pt x="357" y="535" on="1"/>
        <pt x="297" y="367" on="1"/>
      </contour>
      <contour>
        <pt x="550" y="0" on="1"/>
        <pt x="461" y="228" on="1"/>
        <pt x="461" y="227" on="1"/>
        <pt x="261" y="227" on="1"/>
        <pt x="202" y="0" on="1"/>
        <pt x="50" y="0" on="1"/>
        <pt x="266" y="769" on="1"/>
        <pt x="418" y="769" on="1"/>
        <pt x="702" y="0" on="1"/>
      </contour>
    </TTGlyph>
    <TTGlyph name="B" xMin="50" yMin="3" xMax="484" yMax="780">
      <contour>
        <pt x="202" y="454" on="1"/>
        <pt x="214" y="451" on="0"/>
        <pt x="226" y="451" on="1"/>
        <pt x="271" y="451" on="0"/>
        <pt x="302" y="482" on="1"/>
        <pt x="333" y="513" on="0"/>
        <pt x="333" y="557" on="1"/>
        <pt x="333" y="602" on="0"/>
        <pt x="302" y="633" on="1"/>
        <pt x="271" y="664" on="0"/>
        <pt x="226" y="664" on="1"/>
        <pt x="214" y="664" on="0"/>
        <pt x="202" y="661" on="1"/>
      </contour>
      <contour>
        <pt x="202" y="136" on="1"/>
        <pt x="214" y="133" on="0"/>
        <pt x="226" y="133" on="1"/>
        <pt x="271" y="133" on="0"/>
        <pt x="302" y="164" on="1"/>
        <pt x="333" y="195" on="0"/>
        <pt x="333" y="239" on="1"/>
        <pt x="333" y="284" on="0"/>
        <pt x="302" y="315" on="1"/>
        <pt x="271" y="346" on="0"/>
        <pt x="226" y="346" on="1"/>
        <pt x="214" y="346" on="0"/>
        <pt x="202" y="343" on="1"/>
      </contour>
      <contour>
        <pt x="202" y="780" on="1"/>
        <pt x="207" y="780" on="0"/>
        <pt x="211" y="780" on="0"/>
        <pt x="220" y="780" on="1"/>
        <pt x="327" y="780" on="0"/>
        <pt x="403" y="705" on="1"/>
        <pt x="478" y="629" on="0"/>
        <pt x="478" y="522" on="1"/>
        <pt x="478" y="499" on="0"/>
        <pt x="464" y="477" on="1"/>
        <pt x="450" y="455" on="0"/>
        <pt x="426" y="429" on="1"/>
        <pt x="401" y="403" on="0"/>
        <pt x="395" y="396" on="1"/>
        <pt x="397" y="394" on="0"/>
        <pt x="428" y="362" on="1"/>
        <pt x="458" y="330" on="0"/>
        <pt x="471" y="308" on="1"/>
        <pt x="484" y="285" on="0"/>
        <pt x="484" y="260" on="1"/>
        <pt x="484" y="153" on="0"/>
        <pt x="409" y="78" on="1"/>
        <pt x="333" y="3" on="0"/>
        <pt x="226" y="3" on="1"/>
        <pt x="210" y="3" on="0"/>
        <pt x="202" y="4" on="1"/>
        <pt x="50" y="4" on="1"/>
        <pt x="50" y="780" on="1"/>
      </contour>
    </TTGlyph>
    <TTGlyph name="B.0" xMin="50" yMin="3" xMax="484" yMax="780">
      <component glyphName="B" x="0" y="0" flags="0x204"/>
    </TTGlyph>
    <TTGlyph name="B.1" xMin="50" yMin="3" xMax="484" yMax="780">
      <component glyphName="B" x="0" y="0" flags="0x204"/>
    </TTGlyph>
    <TTGlyph name="B.2" xMin="50" yMin="3" xMax="484" yMax="780">
      <contour>
        <pt x="202" y="454" on="1"/>
        <pt x="214" y="451" on="0"/>
        <pt x="226" y="451" on="1"/>
        <pt x="271" y="451" on="0"/>
        <pt x="302" y="482" on="1"/>
        <pt x="333" y="513" on="0"/>
        <pt x="333" y="557" on="1"/>
        <pt x="333" y="602" on="0"/>
        <pt x="302" y="633" on="1"/>
        <pt x="271" y="664" on="0"/>
        <pt x="226" y="664" on="1"/>
        <pt x="214" y="664" on="0"/>
        <pt x="202" y="661" on="1"/>
      </contour>
      <contour>
        <pt x="202" y="136" on="1"/>
        <pt x="214" y="133" on="0"/>
        <pt x="226" y="133" on="1"/>
        <pt x="271" y="133" on="0"/>
        <pt x="302" y="164" on="1"/>
        <pt x="333" y="195" on="0"/>
        <pt x="333" y="239" on="1"/>
        <pt x="333" y="284" on="0"/>
        <pt x="302" y="315" on="1"/>
        <pt x="271" y="346" on="0"/>
        <pt x="226" y="346" on="1"/>
        <pt x="214" y="346" on="0"/>
        <pt x="202" y="343" on="1"/>
      </contour>
      <contour>
        <pt x="202" y="780" on="1"/>
        <pt x="207" y="780" on="0"/>
        <pt x="211" y="780" on="0"/>
        <pt x="220" y="780" on="1"/>
        <pt x="327" y="780" on="0"/>
        <pt x="403" y="705" on="1"/>
        <pt x="478" y="629" on="0"/>
        <pt x="478" y="522" on="1"/>
        <pt x="478" y="499" on="0"/>
        <pt x="464" y="477" on="1"/>
        <pt x="450" y="455" on="0"/>
        <pt x="426" y="429" on="1"/>
        <pt x="401" y="403" on="0"/>
        <pt x="395" y="396" on="1"/>
        <pt x="397" y="394" on="0"/>
        <pt x="428" y="362" on="1"/>
        <pt x="458" y="330" on="0"/>
        <pt x="471" y="308" on="1"/>
        <pt x="484" y="285" on="0"/>
        <pt x="484" y="260" on="1"/>
        <pt x="484" y="153" on="0"/>
        <pt x="409" y="78" on="1"/>
        <pt x="333" y="3" on="0"/>
        <pt x="226" y="3" on="1"/>
        <pt x="210" y="3" on="0"/>
        <pt x="202" y="4" on="1"/>
        <pt x="50" y="4" on="1"/>
        <pt x="50" y="780" on="1"/>
      </contour>
    </TTGlyph>
    <TTGlyph name="C" xMin="50" yMin="-14" xMax="505" yMax="773">
      <contour>
        <pt x="432" y="612" on="1"/>
        <pt x="337" y="612" on="0"/>
        <pt x="270" y="544" on="1"/>
        <pt x="203" y="475" on="0"/>
        <pt x="203" y="378" on="1"/>
        <pt x="203" y="280" on="0"/>
        <pt x="270" y="212" on="1"/>
        <pt x="337" y="143" on="0"/>
        <pt x="432" y="143" on="1"/>
        <pt x="470" y="143" on="0"/>
        <pt x="505" y="155" on="1"/>
        <pt x="505" y="-7" on="1"/>
        <pt x="469" y="-14" on="0"/>
        <pt x="432" y="-14" on="1"/>
        <pt x="274" y="-14" on="0"/>
        <pt x="162" y="102" on="1"/>
        <pt x="50" y="217" on="0"/>
        <pt x="50" y="380" on="1"/>
        <pt x="50" y="543" on="0"/>
        <pt x="162" y="658" on="1"/>
        <pt x="274" y="773" on="0"/>
        <pt x="432" y="773" on="1"/>
        <pt x="469" y="773" on="0"/>
        <pt x="505" y="766" on="1"/>
        <pt x="505" y="600" on="1"/>
        <pt x="470" y="612" on="0"/>
      </contour>
    </TTGlyph>
    <TTGlyph name="C.0" xMin="50" yMin="-14" xMax="505" yMax="773">
      <component glyphName="C" x="0" y="0" flags="0x204"/>
    </TTGlyph>
    <TTGlyph name="C.1" xMin="50" yMin="-14" xMax="505" yMax="773">
      <component glyphName="C" x="0" y="0" flags="0x204"/>
    </TTGlyph>
    <TTGlyph name="C.2" xMin="50" yMin="-14" xMax="505" yMax="773">
      <contour>
        <pt x="432" y="612" on="1"/>
        <pt x="337" y="612" on="0"/>
        <pt x="270" y="544" on="1"/>
        <pt x="203" y="475" on="0"/>
        <pt x="203" y="378" on="1"/>
        <pt x="203" y="280" on="0"/>
        <pt x="270" y="212" on="1"/>
        <pt x="337" y="143" on="0"/>
        <pt x="432" y="143" on="1"/>
        <pt x="470" y="143" on="0"/>
        <pt x="505" y="155" on="1"/>
        <pt x="505" y="-7" on="1"/>
        <pt x="469" y="-14" on="0"/>
        <pt x="432" y="-14" on="1"/>
        <pt x="274" y="-14" on="0"/>
        <pt x="162" y="102" on="1"/>
        <pt x="50" y="217" on="0"/>
        <pt x="50" y="380" on="1"/>
        <pt x="50" y="543" on="0"/>
        <pt x="162" y="658" on="1"/>
        <pt x="274" y="773" on="0"/>
        <pt x="432" y="773" on="1"/>
        <pt x="469" y="773" on="0"/>
        <pt x="505" y="766" on="1"/>
        <pt x="505" y="600" on="1"/>
        <pt x="470" y="612" on="0"/>
      </contour>
    </TTGlyph>
    <TTGlyph name="Cacute" xMin="42" yMin="-14" xMax="505" yMax="1086">
      <component glyphName="acutecomb" x="187" y="281" flags="0x4"/>
      <component glyphName="C" x="0" y="0" flags="0x4"/>
    </TTGlyph>
    <TTGlyph name="Cacute.0" xMin="42" yMin="-14" xMax="505" yMax="1086">
      <component glyphName="Cacute" x="0" y="0" flags="0x204"/>
    </TTGlyph>
    <TTGlyph name="Cacute.1" xMin="42" yMin="-14" xMax="505" yMax="1086">
      <component glyphName="Cacute" x="0" y="0" flags="0x204"/>
    </TTGlyph>
    <TTGlyph name="Cacute.2" xMin="42" yMin="-14" xMax="505" yMax="1086">
      <contour>
        <pt x="150" y="797" on="1"/>
        <pt x="42" y="904" on="1"/>
        <pt x="224" y="1086" on="1"/>
        <pt x="332" y="979" on="1"/>
      </contour>
      <contour>
        <pt x="432" y="612" on="1"/>
        <pt x="337" y="612" on="0"/>
        <pt x="270" y="544" on="1"/>
        <pt x="203" y="475" on="0"/>
        <pt x="203" y="378" on="1"/>
        <pt x="203" y="280" on="0"/>
        <pt x="270" y="212" on="1"/>
        <pt x="337" y="143" on="0"/>
        <pt x="432" y="143" on="1"/>
        <pt x="470" y="143" on="0"/>
        <pt x="505" y="155" on="1"/>
        <pt x="505" y="-7" on="1"/>
        <pt x="469" y="-14" on="0"/>
        <pt x="432" y="-14" on="1"/>
        <pt x="274" y="-14" on="0"/>
        <pt x="162" y="102" on="1"/>
        <pt x="50" y="217" on="0"/>
        <pt x="50" y="380" on="1"/>
        <pt x="50" y="543" on="0"/>
        <pt x="162" y="658" on="1"/>
        <pt x="274" y="773" on="0"/>
        <pt x="432" y="773" on="1"/>
        <pt x="469" y="773" on="0"/>
        <pt x="505" y="766" on="1"/>
        <pt x="505" y="600" on="1"/>
        <pt x="470" y="612" on="0"/>
      </contour>
    </TTGlyph>
    <TTGlyph name="Ccaron" xMin="50" yMin="-14" xMax="532" yMax="1001">
      <component glyphName="uni030C" x="432" y="67" flags="0x4"/>
      <component glyphName="C" x="0" y="0" flags="0x4"/>
    </TTGlyph>
    <TTGlyph name="Ccaron.0" xMin="50" yMin="-14" xMax="532" yMax="1001">
      <component glyphName="Ccaron" x="0" y="0" flags="0x204"/>
    </TTGlyph>
    <TTGlyph name="Ccaron.1" xMin="50" yMin="-14" xMax="532" yMax="1001">
      <component glyphName="Ccaron" x="0" y="0" flags="0x204"/>
    </TTGlyph>
    <TTGlyph name="Ccaron.2" xMin="50" yMin="-14" xMax="532" yMax="1001">
      <contour>
        <pt x="332" y="1001" on="1"/>
        <pt x="408" y="1001" on="1"/>
        <pt x="436" y="893" on="1"/>
        <pt x="456" y="1001" on="1"/>
        <pt x="532" y="1001" on="1"/>
        <pt x="480" y="833" on="1"/>
        <pt x="479" y="833" on="1"/>
        <pt x="404" y="833" on="1"/>
        <pt x="403" y="833" on="1"/>
      </contour>
      <contour>
        <pt x="432" y="612" on="1"/>
        <pt x="337" y="612" on="0"/>
        <pt x="270" y="544" on="1"/>
        <pt x="203" y="475" on="0"/>
        <pt x="203" y="378" on="1"/>
        <pt x="203" y="280" on="0"/>
        <pt x="270" y="212" on="1"/>
        <pt x="337" y="143" on="0"/>
        <pt x="432" y="143" on="1"/>
        <pt x="470" y="143" on="0"/>
        <pt x="505" y="155" on="1"/>
        <pt x="505" y="-7" on="1"/>
        <pt x="469" y="-14" on="0"/>
        <pt x="432" y="-14" on="1"/>
        <pt x="274" y="-14" on="0"/>
        <pt x="162" y="102" on="1"/>
        <pt x="50" y="217" on="0"/>
        <pt x="50" y="380" on="1"/>
        <pt x="50" y="543" on="0"/>
        <pt x="162" y="658" on="1"/>
        <pt x="274" y="773" on="0"/>
        <pt x="432" y="773" on="1"/>
        <pt x="469" y="773" on="0"/>
        <pt x="505" y="766" on="1"/>
        <pt x="505" y="600" on="1"/>
        <pt x="470" y="612" on="0"/>
      </contour>
    </TTGlyph>
    <TTGlyph name="Ccedilla" xMin="50" yMin="-262" xMax="517" yMax="773">
      <component glyphName="uni0327" x="496" y="-194" flags="0x4"/>
      <component glyphName="C" x="0" y="0" flags="0x4"/>
    </TTGlyph>
    <TTGlyph name="Ccedilla.0" xMin="50" yMin="-262" xMax="517" yMax="773">
      <component glyphName="Ccedilla" x="0" y="0" flags="0x204"/>
    </TTGlyph>
    <TTGlyph name="Ccedilla.1" xMin="50" yMin="-262" xMax="517" yMax="773">
      <component glyphName="Ccedilla" x="0" y="0" flags="0x204"/>
    </TTGlyph>
    <TTGlyph name="Ccedilla.2" xMin="50" yMin="-262" xMax="517" yMax="773">
      <contour>
        <pt x="375" y="-262" on="1"/>
        <pt x="375" y="-185" on="1"/>
        <pt x="383" y="-187" on="0"/>
        <pt x="388" y="-187" on="1"/>
        <pt x="411" y="-187" on="0"/>
        <pt x="427" y="-171" on="1"/>
        <pt x="442" y="-156" on="0"/>
        <pt x="442" y="-134" on="1"/>
        <pt x="442" y="-112" on="0"/>
        <pt x="426" y="-96" on="1"/>
        <pt x="410" y="-80" on="0"/>
        <pt x="388" y="-80" on="1"/>
        <pt x="383" y="-80" on="0"/>
        <pt x="375" y="-82" on="1"/>
        <pt x="375" y="-5" on="1"/>
        <pt x="388" y="-5" on="1"/>
        <pt x="442" y="-5" on="0"/>
        <pt x="480" y="-42" on="1"/>
        <pt x="517" y="-80" on="0"/>
        <pt x="517" y="-134" on="1"/>
        <pt x="517" y="-187" on="0"/>
        <pt x="480" y="-224" on="1"/>
        <pt x="442" y="-262" on="0"/>
        <pt x="388" y="-262" on="1"/>
      </contour>
      <contour>
        <pt x="432" y="612" on="1"/>
        <pt x="337" y="612" on="0"/>
        <pt x="270" y="544" on="1"/>
        <pt x="203" y="475" on="0"/>
        <pt x="203" y="378" on="1"/>
        <pt x="203" y="280" on="0"/>
        <pt x="270" y="212" on="1"/>
        <pt x="337" y="143" on="0"/>
        <pt x="432" y="143" on="1"/>
        <pt x="470" y="143" on="0"/>
        <pt x="505" y="155" on="1"/>
        <pt x="505" y="-7" on="1"/>
        <pt x="469" y="-14" on="0"/>
        <pt x="432" y="-14" on="1"/>
        <pt x="274" y="-14" on="0"/>
        <pt x="162" y="102" on="1"/>
        <pt x="50" y="217" on="0"/>
        <pt x="50" y="380" on="1"/>
        <pt x="50" y="543" on="0"/>
        <pt x="162" y="658" on="1"/>
        <pt x="274" y="773" on="0"/>
        <pt x="432" y="773" on="1"/>
        <pt x="469" y="773" on="0"/>
        <pt x="505" y="766" on="1"/>
        <pt x="505" y="600" on="1"/>
        <pt x="470" y="612" on="0"/>
      </contour>
    </TTGlyph>
    <TTGlyph name="Ccircumflex" xMin="50" yMin="-14" xMax="532" yMax="1000">
      <component glyphName="uni0302" x="432" y="66" flags="0x4"/>
      <component glyphName="C" x="0" y="0" flags="0x4"/>
    </TTGlyph>
    <TTGlyph name="Ccircumflex.0" xMin="50" yMin="-14" xMax="532" yMax="1000">
      <component glyphName="Ccircumflex" x="0" y="0" flags="0x204"/>
    </TTGlyph>
    <TTGlyph name="Ccircumflex.1" xMin="50" yMin="-14" xMax="532" yMax="1000">
      <component glyphName="Ccircumflex" x="0" y="0" flags="0x204"/>
    </TTGlyph>
    <TTGlyph name="Ccircumflex.2" xMin="50" yMin="-14" xMax="532" yMax="1000">
      <contour>
        <pt x="332" y="832" on="1"/>
        <pt x="403" y="1000" on="1"/>
        <pt x="404" y="1000" on="1"/>
        <pt x="479" y="1000" on="1"/>
        <pt x="480" y="1000" on="1"/>
        <pt x="532" y="832" on="1"/>
        <pt x="456" y="832" on="1"/>
        <pt x="436" y="940" on="1"/>
        <pt x="408" y="832" on="1"/>
      </contour>
      <contour>
        <pt x="432" y="612" on="1"/>
        <pt x="337" y="612" on="0"/>
        <pt x="270" y="544" on="1"/>
        <pt x="203" y="475" on="0"/>
        <pt x="203" y="378" on="1"/>
        <pt x="203" y="280" on="0"/>
        <pt x="270" y="212" on="1"/>
        <pt x="337" y="143" on="0"/>
        <pt x="432" y="143" on="1"/>
        <pt x="470" y="143" on="0"/>
        <pt x="505" y="155" on="1"/>
        <pt x="505" y="-7" on="1"/>
        <pt x="469" y="-14" on="0"/>
        <pt x="432" y="-14" on="1"/>
        <pt x="274" y="-14" on="0"/>
        <pt x="162" y="102" on="1"/>
        <pt x="50" y="217" on="0"/>
        <pt x="50" y="380" on="1"/>
        <pt x="50" y="543" on="0"/>
        <pt x="162" y="658" on="1"/>
        <pt x="274" y="773" on="0"/>
        <pt x="432" y="773" on="1"/>
        <pt x="469" y="773" on="0"/>
        <pt x="505" y="766" on="1"/>
        <pt x="505" y="600" on="1"/>
        <pt x="470" y="612" on="0"/>
      </contour>
    </TTGlyph>
    <TTGlyph name="Cdotaccent" xMin="50" yMin="-14" xMax="505" yMax="975">
      <component glyphName="uni0307" x="384" y="335" flags="0x4"/>
      <component glyphName="C" x="0" y="0" flags="0x204"/>
    </TTGlyph>
    <TTGlyph name="Cdotaccent.0" xMin="50" yMin="-14" xMax="505" yMax="975">
      <component glyphName="Cdotaccent" x="0" y="0" flags="0x204"/>
    </TTGlyph>
    <TTGlyph name="Cdotaccent.1" xMin="50" yMin="-14" xMax="505" yMax="975">
      <component glyphName="Cdotaccent" x="0" y="0" flags="0x204"/>
    </TTGlyph>
    <TTGlyph name="Cdotaccent.2" xMin="50" yMin="-14" xMax="505" yMax="975">
      <contour>
        <pt x="308" y="833" on="1"/>
        <pt x="308" y="975" on="1"/>
        <pt x="460" y="975" on="1"/>
        <pt x="460" y="833" on="1"/>
      </contour>
      <contour>
        <pt x="432" y="612" on="1"/>
        <pt x="337" y="612" on="0"/>
        <pt x="270" y="544" on="1"/>
        <pt x="203" y="475" on="0"/>
        <pt x="203" y="378" on="1"/>
        <pt x="203" y="280" on="0"/>
        <pt x="270" y="212" on="1"/>
        <pt x="337" y="143" on="0"/>
        <pt x="432" y="143" on="1"/>
        <pt x="470" y="143" on="0"/>
        <pt x="505" y="155" on="1"/>
        <pt x="505" y="-7" on="1"/>
        <pt x="469" y="-14" on="0"/>
        <pt x="432" y="-14" on="1"/>
        <pt x="274" y="-14" on="0"/>
        <pt x="162" y="102" on="1"/>
        <pt x="50" y="217" on="0"/>
        <pt x="50" y="380" on="1"/>
        <pt x="50" y="543" on="0"/>
        <pt x="162" y="658" on="1"/>
        <pt x="274" y="773" on="0"/>
        <pt x="432" y="773" on="1"/>
        <pt x="469" y="773" on="0"/>
        <pt x="505" y="766" on="1"/>
        <pt x="505" y="600" on="1"/>
        <pt x="470" y="612" on="0"/>
      </contour>
    </TTGlyph>
    <TTGlyph name="D" xMin="50" yMin="-14" xMax="580" yMax="773">
      <contour>
        <pt x="202" y="143" on="1"/>
        <pt x="296" y="145" on="0"/>
        <pt x="362" y="214" on="1"/>
        <pt x="427" y="282" on="0"/>
        <pt x="427" y="378" on="1"/>
        <pt x="427" y="474" on="0"/>
        <pt x="362" y="542" on="1"/>
        <pt x="296" y="610" on="0"/>
        <pt x="202" y="612" on="1"/>
      </contour>
      <contour>
        <pt x="50" y="768" on="1"/>
        <pt x="65" y="763" on="0"/>
        <pt x="124" y="768" on="1"/>
        <pt x="183" y="773" on="0"/>
        <pt x="198" y="773" on="1"/>
        <pt x="356" y="773" on="0"/>
        <pt x="468" y="658" on="1"/>
        <pt x="580" y="543" on="0"/>
        <pt x="580" y="380" on="1"/>
        <pt x="580" y="273" on="0"/>
        <pt x="530" y="183" on="1"/>
        <pt x="479" y="93" on="0"/>
        <pt x="392" y="40" on="1"/>
        <pt x="305" y="-13" on="0"/>
        <pt x="202" y="-14" on="1"/>
        <pt x="50" y="-14" on="1"/>
      </contour>
    </TTGlyph>
    <TTGlyph name="D.0" xMin="50" yMin="-14" xMax="580" yMax="773">
      <component glyphName="D" x="0" y="0" flags="0x204"/>
    </TTGlyph>
    <TTGlyph name="D.1" xMin="50" yMin="-14" xMax="580" yMax="773">
      <component glyphName="D" x="0" y="0" flags="0x204"/>
    </TTGlyph>
    <TTGlyph name="D.2" xMin="50" yMin="-14" xMax="580" yMax="773">
      <contour>
        <pt x="202" y="143" on="1"/>
        <pt x="296" y="145" on="0"/>
        <pt x="362" y="214" on="1"/>
        <pt x="427" y="282" on="0"/>
        <pt x="427" y="378" on="1"/>
        <pt x="427" y="474" on="0"/>
        <pt x="362" y="542" on="1"/>
        <pt x="296" y="610" on="0"/>
        <pt x="202" y="612" on="1"/>
      </contour>
      <contour>
        <pt x="50" y="768" on="1"/>
        <pt x="65" y="763" on="0"/>
        <pt x="124" y="768" on="1"/>
        <pt x="183" y="773" on="0"/>
        <pt x="198" y="773" on="1"/>
        <pt x="356" y="773" on="0"/>
        <pt x="468" y="658" on="1"/>
        <pt x="580" y="543" on="0"/>
        <pt x="580" y="380" on="1"/>
        <pt x="580" y="273" on="0"/>
        <pt x="530" y="183" on="1"/>
        <pt x="479" y="93" on="0"/>
        <pt x="392" y="40" on="1"/>
        <pt x="305" y="-13" on="0"/>
        <pt x="202" y="-14" on="1"/>
        <pt x="50" y="-14" on="1"/>
      </contour>
    </TTGlyph>
    <TTGlyph name="Dcaron" xMin="50" yMin="-14" xMax="580" yMax="1001">
      <component glyphName="uni030C" x="315" y="67" flags="0x4"/>
      <component glyphName="D" x="0" y="0" flags="0x204"/>
    </TTGlyph>
    <TTGlyph name="Dcaron.0" xMin="50" yMin="-14" xMax="580" yMax="1001">
      <component glyphName="Dcaron" x="0" y="0" flags="0x204"/>
    </TTGlyph>
    <TTGlyph name="Dcaron.1" xMin="50" yMin="-14" xMax="580" yMax="1001">
      <component glyphName="Dcaron" x="0" y="0" flags="0x204"/>
    </TTGlyph>
    <TTGlyph name="Dcaron.2" xMin="50" yMin="-14" xMax="580" yMax="1001">
      <contour>
        <pt x="215" y="1001" on="1"/>
        <pt x="291" y="1001" on="1"/>
        <pt x="319" y="893" on="1"/>
        <pt x="339" y="1001" on="1"/>
        <pt x="415" y="1001" on="1"/>
        <pt x="363" y="833" on="1"/>
        <pt x="362" y="833" on="1"/>
        <pt x="287" y="833" on="1"/>
        <pt x="286" y="833" on="1"/>
      </contour>
      <contour>
        <pt x="202" y="143" on="1"/>
        <pt x="296" y="145" on="0"/>
        <pt x="362" y="214" on="1"/>
        <pt x="427" y="282" on="0"/>
        <pt x="427" y="378" on="1"/>
        <pt x="427" y="474" on="0"/>
        <pt x="362" y="542" on="1"/>
        <pt x="296" y="610" on="0"/>
        <pt x="202" y="612" on="1"/>
      </contour>
      <contour>
        <pt x="50" y="768" on="1"/>
        <pt x="65" y="763" on="0"/>
        <pt x="124" y="768" on="1"/>
        <pt x="183" y="773" on="0"/>
        <pt x="198" y="773" on="1"/>
        <pt x="356" y="773" on="0"/>
        <pt x="468" y="658" on="1"/>
        <pt x="580" y="543" on="0"/>
        <pt x="580" y="380" on="1"/>
        <pt x="580" y="273" on="0"/>
        <pt x="530" y="183" on="1"/>
        <pt x="479" y="93" on="0"/>
        <pt x="392" y="40" on="1"/>
        <pt x="305" y="-13" on="0"/>
        <pt x="202" y="-14" on="1"/>
        <pt x="50" y="-14" on="1"/>
      </contour>
    </TTGlyph>
    <TTGlyph name="Dcroat" xMin="100" yMin="-14" xMax="690" yMax="773">
      <component glyphName="Eth" x="50" y="0" flags="0x4"/>
    </TTGlyph>
    <TTGlyph name="Dcroat.0" xMin="100" yMin="-14" xMax="690" yMax="773">
      <component glyphName="Dcroat" x="0" y="0" flags="0x204"/>
    </TTGlyph>
    <TTGlyph name="Dcroat.1" xMin="100" yMin="-14" xMax="690" yMax="773">
      <component glyphName="Dcroat" x="0" y="0" flags="0x204"/>
    </TTGlyph>
    <TTGlyph name="Dcroat.2" xMin="100" yMin="-14" xMax="690" yMax="773">
      <contour>
        <pt x="160" y="768" on="1"/>
        <pt x="175" y="763" on="0"/>
        <pt x="234" y="768" on="1"/>
        <pt x="293" y="773" on="0"/>
        <pt x="308" y="773" on="1"/>
        <pt x="466" y="773" on="0"/>
        <pt x="578" y="658" on="1"/>
        <pt x="690" y="543" on="0"/>
        <pt x="690" y="380" on="1"/>
        <pt x="690" y="273" on="0"/>
        <pt x="640" y="183" on="1"/>
        <pt x="589" y="93" on="0"/>
        <pt x="502" y="40" on="1"/>
        <pt x="415" y="-13" on="0"/>
        <pt x="312" y="-14" on="1"/>
        <pt x="160" y="-14" on="1"/>
        <pt x="160" y="344" on="1"/>
        <pt x="100" y="344" on="1"/>
        <pt x="100" y="496" on="1"/>
        <pt x="160" y="496" on="1"/>
      </contour>
      <contour>
        <pt x="312" y="143" on="1"/>
        <pt x="406" y="145" on="0"/>
        <pt x="472" y="214" on="1"/>
        <pt x="537" y="282" on="0"/>
        <pt x="537" y="378" on="1"/>
        <pt x="537" y="474" on="0"/>
        <pt x="472" y="542" on="1"/>
        <pt x="406" y="610" on="0"/>
        <pt x="312" y="612" on="1"/>
        <pt x="312" y="496" on="1"/>
        <pt x="371" y="496" on="1"/>
        <pt x="371" y="344" on="1"/>
        <pt x="312" y="344" on="1"/>
      </contour>
    </TTGlyph>
    <TTGlyph name="E" xMin="50" yMin="-3" xMax="618" yMax="778">
      <contour>
        <pt x="509" y="485" on="1"/>
        <pt x="510" y="333" on="1"/>
        <pt x="202" y="333" on="1"/>
        <pt x="202" y="149" on="1"/>
        <pt x="617" y="149" on="1"/>
        <pt x="618" y="-3" on="1"/>
        <pt x="51" y="-3" on="1"/>
        <pt x="51" y="-2" on="1"/>
        <pt x="50" y="-2" on="1"/>
        <pt x="50" y="774" on="1"/>
        <pt x="50" y="778" on="1"/>
        <pt x="617" y="778" on="1"/>
        <pt x="618" y="626" on="1"/>
        <pt x="202" y="626" on="1"/>
        <pt x="202" y="485" on="1"/>
      </contour>
    </TTGlyph>
    <TTGlyph name="E.0" xMin="50" yMin="-3" xMax="618" yMax="778">
      <component glyphName="E" x="0" y="0" flags="0x204"/>
    </TTGlyph>
    <TTGlyph name="E.1" xMin="50" yMin="-3" xMax="618" yMax="778">
      <component glyphName="E" x="0" y="0" flags="0x204"/>
    </TTGlyph>
    <TTGlyph name="E.2" xMin="50" yMin="-3" xMax="618" yMax="778">
      <contour>
        <pt x="509" y="485" on="1"/>
        <pt x="510" y="333" on="1"/>
        <pt x="202" y="333" on="1"/>
        <pt x="202" y="149" on="1"/>
        <pt x="617" y="149" on="1"/>
        <pt x="618" y="-3" on="1"/>
        <pt x="51" y="-3" on="1"/>
        <pt x="51" y="-2" on="1"/>
        <pt x="50" y="-2" on="1"/>
        <pt x="50" y="774" on="1"/>
        <pt x="50" y="778" on="1"/>
        <pt x="617" y="778" on="1"/>
        <pt x="618" y="626" on="1"/>
        <pt x="202" y="626" on="1"/>
        <pt x="202" y="485" on="1"/>
      </contour>
    </TTGlyph>
    <TTGlyph name="Eacute" xMin="6" yMin="-3" xMax="618" yMax="1091">
      <component glyphName="acutecomb" x="151" y="286" flags="0x4"/>
      <component glyphName="E" x="0" y="0" flags="0x204"/>
    </TTGlyph>
    <TTGlyph name="Eacute.0" xMin="6" yMin="-3" xMax="618" yMax="1091">
      <component glyphName="Eacute" x="0" y="0" flags="0x204"/>
    </TTGlyph>
    <TTGlyph name="Eacute.1" xMin="6" yMin="-3" xMax="618" yMax="1091">
      <component glyphName="Eacute" x="0" y="0" flags="0x204"/>
    </TTGlyph>
    <TTGlyph name="Eacute.2" xMin="6" yMin="-3" xMax="618" yMax="1091">
      <contour>
        <pt x="114" y="802" on="1"/>
        <pt x="6" y="909" on="1"/>
        <pt x="188" y="1091" on="1"/>
        <pt x="296" y="984" on="1"/>
      </contour>
      <contour>
        <pt x="509" y="485" on="1"/>
        <pt x="510" y="333" on="1"/>
        <pt x="202" y="333" on="1"/>
        <pt x="202" y="149" on="1"/>
        <pt x="617" y="149" on="1"/>
        <pt x="618" y="-3" on="1"/>
        <pt x="51" y="-3" on="1"/>
        <pt x="51" y="-2" on="1"/>
        <pt x="50" y="-2" on="1"/>
        <pt x="50" y="774" on="1"/>
        <pt x="50" y="778" on="1"/>
        <pt x="617" y="778" on="1"/>
        <pt x="618" y="626" on="1"/>
        <pt x="202" y="626" on="1"/>
        <pt x="202" y="485" on="1"/>
      </contour>
    </TTGlyph>
    <TTGlyph name="Ebreve" xMin="50" yMin="-3" xMax="618" yMax="962">
      <component glyphName="uni0306" x="334" y="30" flags="0x4"/>
      <component glyphName="E" x="0" y="0" flags="0x204"/>
    </TTGlyph>
    <TTGlyph name="Ebreve.0" xMin="50" yMin="-3" xMax="618" yMax="962">
      <component glyphName="Ebreve" x="0" y="0" flags="0x204"/>
    </TTGlyph>
    <TTGlyph name="Ebreve.1" xMin="50" yMin="-3" xMax="618" yMax="962">
      <component glyphName="Ebreve" x="0" y="0" flags="0x204"/>
    </TTGlyph>
    <TTGlyph name="Ebreve.2" xMin="50" yMin="-3" xMax="618" yMax="962">
      <contour>
        <pt x="462" y="962" on="1"/>
        <pt x="462" y="948" on="1"/>
        <pt x="462" y="895" on="0"/>
        <pt x="425" y="858" on="1"/>
        <pt x="388" y="820" on="0"/>
        <pt x="334" y="820" on="1"/>
        <pt x="280" y="820" on="0"/>
        <pt x="243" y="857" on="1"/>
        <pt x="206" y="894" on="0"/>
        <pt x="206" y="948" on="1"/>
        <pt x="206" y="962" on="1"/>
        <pt x="282" y="962" on="1"/>
        <pt x="280" y="954" on="0"/>
        <pt x="280" y="948" on="1"/>
        <pt x="280" y="926" on="0"/>
        <pt x="296" y="910" on="1"/>
        <pt x="312" y="894" on="0"/>
        <pt x="335" y="894" on="1"/>
        <pt x="357" y="894" on="0"/>
        <pt x="373" y="910" on="1"/>
        <pt x="388" y="926" on="0"/>
        <pt x="388" y="948" on="1"/>
        <pt x="388" y="954" on="0"/>
        <pt x="386" y="962" on="1"/>
      </contour>
      <contour>
        <pt x="509" y="485" on="1"/>
        <pt x="510" y="333" on="1"/>
        <pt x="202" y="333" on="1"/>
        <pt x="202" y="149" on="1"/>
        <pt x="617" y="149" on="1"/>
        <pt x="618" y="-3" on="1"/>
        <pt x="51" y="-3" on="1"/>
        <pt x="51" y="-2" on="1"/>
        <pt x="50" y="-2" on="1"/>
        <pt x="50" y="774" on="1"/>
        <pt x="50" y="778" on="1"/>
        <pt x="617" y="778" on="1"/>
        <pt x="618" y="626" on="1"/>
        <pt x="202" y="626" on="1"/>
        <pt x="202" y="485" on="1"/>
      </contour>
    </TTGlyph>
    <TTGlyph name="Ecaron" xMin="50" yMin="-3" xMax="618" yMax="1006">
      <component glyphName="uni030C" x="334" y="72" flags="0x4"/>
      <component glyphName="E" x="0" y="0" flags="0x204"/>
    </TTGlyph>
    <TTGlyph name="Ecaron.0" xMin="50" yMin="-3" xMax="618" yMax="1006">
      <component glyphName="Ecaron" x="0" y="0" flags="0x204"/>
    </TTGlyph>
    <TTGlyph name="Ecaron.1" xMin="50" yMin="-3" xMax="618" yMax="1006">
      <component glyphName="Ecaron" x="0" y="0" flags="0x204"/>
    </TTGlyph>
    <TTGlyph name="Ecaron.2" xMin="50" yMin="-3" xMax="618" yMax="1006">
      <contour>
        <pt x="234" y="1006" on="1"/>
        <pt x="310" y="1006" on="1"/>
        <pt x="338" y="898" on="1"/>
        <pt x="358" y="1006" on="1"/>
        <pt x="434" y="1006" on="1"/>
        <pt x="382" y="838" on="1"/>
        <pt x="381" y="838" on="1"/>
        <pt x="306" y="838" on="1"/>
        <pt x="305" y="838" on="1"/>
      </contour>
      <contour>
        <pt x="509" y="485" on="1"/>
        <pt x="510" y="333" on="1"/>
        <pt x="202" y="333" on="1"/>
        <pt x="202" y="149" on="1"/>
        <pt x="617" y="149" on="1"/>
        <pt x="618" y="-3" on="1"/>
        <pt x="51" y="-3" on="1"/>
        <pt x="51" y="-2" on="1"/>
        <pt x="50" y="-2" on="1"/>
        <pt x="50" y="774" on="1"/>
        <pt x="50" y="778" on="1"/>
        <pt x="617" y="778" on="1"/>
        <pt x="618" y="626" on="1"/>
        <pt x="202" y="626" on="1"/>
        <pt x="202" y="485" on="1"/>
      </contour>
    </TTGlyph>
    <TTGlyph name="Ecircumflex" xMin="50" yMin="-3" xMax="618" yMax="1006">
      <component glyphName="uni0302" x="334" y="72" flags="0x4"/>
      <component glyphName="E" x="0" y="0" flags="0x204"/>
    </TTGlyph>
    <TTGlyph name="Ecircumflex.0" xMin="50" yMin="-3" xMax="618" yMax="1006">
      <component glyphName="Ecircumflex" x="0" y="0" flags="0x204"/>
    </TTGlyph>
    <TTGlyph name="Ecircumflex.1" xMin="50" yMin="-3" xMax="618" yMax="1006">
      <component glyphName="Ecircumflex" x="0" y="0" flags="0x204"/>
    </TTGlyph>
    <TTGlyph name="Ecircumflex.2" xMin="50" yMin="-3" xMax="618" yMax="1006">
      <contour>
        <pt x="234" y="838" on="1"/>
        <pt x="305" y="1006" on="1"/>
        <pt x="306" y="1006" on="1"/>
        <pt x="381" y="1006" on="1"/>
        <pt x="382" y="1006" on="1"/>
        <pt x="434" y="838" on="1"/>
        <pt x="358" y="838" on="1"/>
        <pt x="338" y="946" on="1"/>
        <pt x="310" y="838" on="1"/>
      </contour>
      <contour>
        <pt x="509" y="485" on="1"/>
        <pt x="510" y="333" on="1"/>
        <pt x="202" y="333" on="1"/>
        <pt x="202" y="149" on="1"/>
        <pt x="617" y="149" on="1"/>
        <pt x="618" y="-3" on="1"/>
        <pt x="51" y="-3" on="1"/>
        <pt x="51" y="-2" on="1"/>
        <pt x="50" y="-2" on="1"/>
        <pt x="50" y="774" on="1"/>
        <pt x="50" y="778" on="1"/>
        <pt x="617" y="778" on="1"/>
        <pt x="618" y="626" on="1"/>
        <pt x="202" y="626" on="1"/>
        <pt x="202" y="485" on="1"/>
      </contour>
    </TTGlyph>
    <TTGlyph name="Edieresis" xMin="50" yMin="-3" xMax="618" yMax="980">
      <component glyphName="uni0308" x="334" y="340" flags="0x4"/>
      <component glyphName="E" x="0" y="0" flags="0x204"/>
    </TTGlyph>
    <TTGlyph name="Edieresis.0" xMin="50" yMin="-3" xMax="618" yMax="980">
      <component glyphName="Edieresis" x="0" y="0" flags="0x204"/>
    </TTGlyph>
    <TTGlyph name="Edieresis.1" xMin="50" yMin="-3" xMax="618" yMax="980">
      <component glyphName="Edieresis" x="0" y="0" flags="0x204"/>
    </TTGlyph>
    <TTGlyph name="Edieresis.2" xMin="50" yMin="-3" xMax="618" yMax="980">
      <contour>
        <pt x="158" y="838" on="1"/>
        <pt x="158" y="980" on="1"/>
        <pt x="310" y="980" on="1"/>
        <pt x="310" y="838" on="1"/>
      </contour>
      <contour>
        <pt x="358" y="838" on="1"/>
        <pt x="358" y="980" on="1"/>
        <pt x="510" y="980" on="1"/>
        <pt x="510" y="838" on="1"/>
      </contour>
      <contour>
        <pt x="509" y="485" on="1"/>
        <pt x="510" y="333" on="1"/>
        <pt x="202" y="333" on="1"/>
        <pt x="202" y="149" on="1"/>
        <pt x="617" y="149" on="1"/>
        <pt x="618" y="-3" on="1"/>
        <pt x="51" y="-3" on="1"/>
        <pt x="51" y="-2" on="1"/>
        <pt x="50" y="-2" on="1"/>
        <pt x="50" y="774" on="1"/>
        <pt x="50" y="778" on="1"/>
        <pt x="617" y="778" on="1"/>
        <pt x="618" y="626" on="1"/>
        <pt x="202" y="626" on="1"/>
        <pt x="202" y="485" on="1"/>
      </contour>
    </TTGlyph>
    <TTGlyph name="Edotaccent" xMin="50" yMin="-3" xMax="618" yMax="980">
      <component glyphName="uni0307" x="334" y="340" flags="0x4"/>
      <component glyphName="E" x="0" y="0" flags="0x204"/>
    </TTGlyph>
    <TTGlyph name="Edotaccent.0" xMin="50" yMin="-3" xMax="618" yMax="980">
      <component glyphName="Edotaccent" x="0" y="0" flags="0x204"/>
    </TTGlyph>
    <TTGlyph name="Edotaccent.1" xMin="50" yMin="-3" xMax="618" yMax="980">
      <component glyphName="Edotaccent" x="0" y="0" flags="0x204"/>
    </TTGlyph>
    <TTGlyph name="Edotaccent.2" xMin="50" yMin="-3" xMax="618" yMax="980">
      <contour>
        <pt x="258" y="838" on="1"/>
        <pt x="258" y="980" on="1"/>
        <pt x="410" y="980" on="1"/>
        <pt x="410" y="838" on="1"/>
      </contour>
      <contour>
        <pt x="509" y="485" on="1"/>
        <pt x="510" y="333" on="1"/>
        <pt x="202" y="333" on="1"/>
        <pt x="202" y="149" on="1"/>
        <pt x="617" y="149" on="1"/>
        <pt x="618" y="-3" on="1"/>
        <pt x="51" y="-3" on="1"/>
        <pt x="51" y="-2" on="1"/>
        <pt x="50" y="-2" on="1"/>
        <pt x="50" y="774" on="1"/>
        <pt x="50" y="778" on="1"/>
        <pt x="617" y="778" on="1"/>
        <pt x="618" y="626" on="1"/>
        <pt x="202" y="626" on="1"/>
        <pt x="202" y="485" on="1"/>
      </contour>
    </TTGlyph>
    <TTGlyph name="Egrave" xMin="-23" yMin="-3" xMax="618" yMax="1091">
      <component glyphName="gravecomb" x="122" y="286" flags="0x4"/>
      <component glyphName="E" x="0" y="0" flags="0x204"/>
    </TTGlyph>
    <TTGlyph name="Egrave.0" xMin="-23" yMin="-3" xMax="618" yMax="1091">
      <component glyphName="Egrave" x="0" y="0" flags="0x204"/>
    </TTGlyph>
    <TTGlyph name="Egrave.1" xMin="-23" yMin="-3" xMax="618" yMax="1091">
      <component glyphName="Egrave" x="0" y="0" flags="0x204"/>
    </TTGlyph>
    <TTGlyph name="Egrave.2" xMin="-23" yMin="-3" xMax="618" yMax="1091">
      <contour>
        <pt x="159" y="802" on="1"/>
        <pt x="-23" y="984" on="1"/>
        <pt x="85" y="1091" on="1"/>
        <pt x="267" y="909" on="1"/>
      </contour>
      <contour>
        <pt x="509" y="485" on="1"/>
        <pt x="510" y="333" on="1"/>
        <pt x="202" y="333" on="1"/>
        <pt x="202" y="149" on="1"/>
        <pt x="617" y="149" on="1"/>
        <pt x="618" y="-3" on="1"/>
        <pt x="51" y="-3" on="1"/>
        <pt x="51" y="-2" on="1"/>
        <pt x="50" y="-2" on="1"/>
        <pt x="50" y="774" on="1"/>
        <pt x="50" y="778" on="1"/>
        <pt x="617" y="778" on="1"/>
        <pt x="618" y="626" on="1"/>
        <pt x="202" y="626" on="1"/>
        <pt x="202" y="485" on="1"/>
      </contour>
    </TTGlyph>
    <TTGlyph name="Emacron" xMin="50" yMin="-3" xMax="618" yMax="914">
      <component glyphName="uni0304" x="334" y="56" flags="0x4"/>
      <component glyphName="E" x="0" y="0" flags="0x204"/>
    </TTGlyph>
    <TTGlyph name="Emacron.0" xMin="50" yMin="-3" xMax="618" yMax="914">
      <component glyphName="Emacron" x="0" y="0" flags="0x204"/>
    </TTGlyph>
    <TTGlyph name="Emacron.1" xMin="50" yMin="-3" xMax="618" yMax="914">
      <component glyphName="Emacron" x="0" y="0" flags="0x204"/>
    </TTGlyph>
    <TTGlyph name="Emacron.2" xMin="50" yMin="-3" xMax="618" yMax="914">
      <contour>
        <pt x="470" y="914" on="1"/>
        <pt x="470" y="838" on="1"/>
        <pt x="198" y="838" on="1"/>
        <pt x="198" y="914" on="1"/>
      </contour>
      <contour>
        <pt x="509" y="485" on="1"/>
        <pt x="510" y="333" on="1"/>
        <pt x="202" y="333" on="1"/>
        <pt x="202" y="149" on="1"/>
        <pt x="617" y="149" on="1"/>
        <pt x="618" y="-3" on="1"/>
        <pt x="51" y="-3" on="1"/>
        <pt x="51" y="-2" on="1"/>
        <pt x="50" y="-2" on="1"/>
        <pt x="50" y="774" on="1"/>
        <pt x="50" y="778" on="1"/>
        <pt x="617" y="778" on="1"/>
        <pt x="618" y="626" on="1"/>
        <pt x="202" y="626" on="1"/>
        <pt x="202" y="485" on="1"/>
      </contour>
    </TTGlyph>
    <TTGlyph name="Eogonek" xMin="50" yMin="-263" xMax="618" yMax="778">
      <component glyphName="uni0328" x="548" y="-195" flags="0x4"/>
      <component glyphName="E" x="0" y="0" flags="0x204"/>
    </TTGlyph>
    <TTGlyph name="Eogonek.0" xMin="50" yMin="-263" xMax="618" yMax="778">
      <component glyphName="Eogonek" x="0" y="0" flags="0x204"/>
    </TTGlyph>
    <TTGlyph name="Eogonek.1" xMin="50" yMin="-263" xMax="618" yMax="778">
      <component glyphName="Eogonek" x="0" y="0" flags="0x204"/>
    </TTGlyph>
    <TTGlyph name="Eogonek.2" xMin="50" yMin="-263" xMax="618" yMax="778">
      <contour>
        <pt x="569" y="-263" on="1"/>
        <pt x="556" y="-263" on="1"/>
        <pt x="502" y="-263" on="0"/>
        <pt x="465" y="-225" on="1"/>
        <pt x="427" y="-188" on="0"/>
        <pt x="427" y="-135" on="1"/>
        <pt x="427" y="-81" on="0"/>
        <pt x="465" y="-43" on="1"/>
        <pt x="502" y="-6" on="0"/>
        <pt x="556" y="-6" on="1"/>
        <pt x="569" y="-6" on="1"/>
        <pt x="569" y="-83" on="1"/>
        <pt x="561" y="-81" on="0"/>
        <pt x="556" y="-81" on="1"/>
        <pt x="534" y="-81" on="0"/>
        <pt x="518" y="-97" on="1"/>
        <pt x="502" y="-113" on="0"/>
        <pt x="502" y="-135" on="1"/>
        <pt x="502" y="-157" on="0"/>
        <pt x="518" y="-172" on="1"/>
        <pt x="533" y="-188" on="0"/>
        <pt x="556" y="-188" on="1"/>
        <pt x="561" y="-188" on="0"/>
        <pt x="569" y="-186" on="1"/>
      </contour>
      <contour>
        <pt x="509" y="485" on="1"/>
        <pt x="510" y="333" on="1"/>
        <pt x="202" y="333" on="1"/>
        <pt x="202" y="149" on="1"/>
        <pt x="617" y="149" on="1"/>
        <pt x="618" y="-3" on="1"/>
        <pt x="51" y="-3" on="1"/>
        <pt x="51" y="-2" on="1"/>
        <pt x="50" y="-2" on="1"/>
        <pt x="50" y="774" on="1"/>
        <pt x="50" y="778" on="1"/>
        <pt x="617" y="778" on="1"/>
        <pt x="618" y="626" on="1"/>
        <pt x="202" y="626" on="1"/>
        <pt x="202" y="485" on="1"/>
      </contour>
    </TTGlyph>
    <TTGlyph name="Eth" xMin="50" yMin="-14" xMax="640" yMax="773">
      <contour>
        <pt x="110" y="768" on="1"/>
        <pt x="125" y="763" on="0"/>
        <pt x="184" y="768" on="1"/>
        <pt x="243" y="773" on="0"/>
        <pt x="258" y="773" on="1"/>
        <pt x="416" y="773" on="0"/>
        <pt x="528" y="658" on="1"/>
        <pt x="640" y="543" on="0"/>
        <pt x="640" y="380" on="1"/>
        <pt x="640" y="273" on="0"/>
        <pt x="590" y="183" on="1"/>
        <pt x="539" y="93" on="0"/>
        <pt x="452" y="40" on="1"/>
        <pt x="365" y="-13" on="0"/>
        <pt x="262" y="-14" on="1"/>
        <pt x="110" y="-14" on="1"/>
        <pt x="110" y="344" on="1"/>
        <pt x="50" y="344" on="1"/>
        <pt x="50" y="496" on="1"/>
        <pt x="110" y="496" on="1"/>
      </contour>
      <contour>
        <pt x="262" y="143" on="1"/>
        <pt x="356" y="145" on="0"/>
        <pt x="422" y="214" on="1"/>
        <pt x="487" y="282" on="0"/>
        <pt x="487" y="378" on="1"/>
        <pt x="487" y="474" on="0"/>
        <pt x="422" y="542" on="1"/>
        <pt x="356" y="610" on="0"/>
        <pt x="262" y="612" on="1"/>
        <pt x="262" y="496" on="1"/>
        <pt x="321" y="496" on="1"/>
        <pt x="321" y="344" on="1"/>
        <pt x="262" y="344" on="1"/>
      </contour>
    </TTGlyph>
    <TTGlyph name="Eth.0" xMin="50" yMin="-14" xMax="640" yMax="773">
      <component glyphName="Eth" x="0" y="0" flags="0x204"/>
    </TTGlyph>
    <TTGlyph name="Eth.1" xMin="50" yMin="-14" xMax="640" yMax="773">
      <component glyphName="Eth" x="0" y="0" flags="0x204"/>
    </TTGlyph>
    <TTGlyph name="Eth.2" xMin="50" yMin="-14" xMax="640" yMax="773">
      <contour>
        <pt x="110" y="768" on="1"/>
        <pt x="125" y="763" on="0"/>
        <pt x="184" y="768" on="1"/>
        <pt x="243" y="773" on="0"/>
        <pt x="258" y="773" on="1"/>
        <pt x="416" y="773" on="0"/>
        <pt x="528" y="658" on="1"/>
        <pt x="640" y="543" on="0"/>
        <pt x="640" y="380" on="1"/>
        <pt x="640" y="273" on="0"/>
        <pt x="590" y="183" on="1"/>
        <pt x="539" y="93" on="0"/>
        <pt x="452" y="40" on="1"/>
        <pt x="365" y="-13" on="0"/>
        <pt x="262" y="-14" on="1"/>
        <pt x="110" y="-14" on="1"/>
        <pt x="110" y="344" on="1"/>
        <pt x="50" y="344" on="1"/>
        <pt x="50" y="496" on="1"/>
        <pt x="110" y="496" on="1"/>
      </contour>
      <contour>
        <pt x="262" y="143" on="1"/>
        <pt x="356" y="145" on="0"/>
        <pt x="422" y="214" on="1"/>
        <pt x="487" y="282" on="0"/>
        <pt x="487" y="378" on="1"/>
        <pt x="487" y="474" on="0"/>
        <pt x="422" y="542" on="1"/>
        <pt x="356" y="610" on="0"/>
        <pt x="262" y="612" on="1"/>
        <pt x="262" y="496" on="1"/>
        <pt x="321" y="496" on="1"/>
        <pt x="321" y="344" on="1"/>
        <pt x="262" y="344" on="1"/>
      </contour>
    </TTGlyph>
    <TTGlyph name="Euro" xMin="50" yMin="-14" xMax="603" yMax="773">
      <contour>
        <pt x="65" y="358" on="1"/>
        <pt x="494" y="358" on="1"/>
        <pt x="500" y="358" on="0"/>
        <pt x="505" y="354" on="1"/>
        <pt x="509" y="349" on="0"/>
        <pt x="509" y="343" on="1"/>
        <pt x="509" y="287" on="1"/>
        <pt x="509" y="281" on="0"/>
        <pt x="505" y="277" on="1"/>
        <pt x="500" y="272" on="0"/>
        <pt x="494" y="272" on="1"/>
        <pt x="65" y="272" on="1"/>
        <pt x="59" y="272" on="0"/>
        <pt x="55" y="277" on="1"/>
        <pt x="50" y="281" on="0"/>
        <pt x="50" y="287" on="1"/>
        <pt x="50" y="343" on="1"/>
        <pt x="50" y="349" on="0"/>
        <pt x="55" y="354" on="1"/>
        <pt x="59" y="358" on="0"/>
      </contour>
      <contour>
        <pt x="65" y="533" on="1"/>
        <pt x="494" y="533" on="1"/>
        <pt x="500" y="533" on="0"/>
        <pt x="505" y="529" on="1"/>
        <pt x="509" y="524" on="0"/>
        <pt x="509" y="518" on="1"/>
        <pt x="509" y="462" on="1"/>
        <pt x="509" y="456" on="0"/>
        <pt x="505" y="452" on="1"/>
        <pt x="500" y="447" on="0"/>
        <pt x="494" y="447" on="1"/>
        <pt x="65" y="447" on="1"/>
        <pt x="59" y="447" on="0"/>
        <pt x="55" y="452" on="1"/>
        <pt x="50" y="456" on="0"/>
        <pt x="50" y="462" on="1"/>
        <pt x="50" y="518" on="1"/>
        <pt x="50" y="524" on="0"/>
        <pt x="55" y="529" on="1"/>
        <pt x="59" y="533" on="0"/>
      </contour>
      <contour>
        <pt x="530" y="612" on="1"/>
        <pt x="435" y="612" on="0"/>
        <pt x="368" y="544" on="1"/>
        <pt x="301" y="475" on="0"/>
        <pt x="301" y="378" on="1"/>
        <pt x="301" y="280" on="0"/>
        <pt x="368" y="212" on="1"/>
        <pt x="435" y="143" on="0"/>
        <pt x="530" y="143" on="1"/>
        <pt x="568" y="143" on="0"/>
        <pt x="603" y="155" on="1"/>
        <pt x="603" y="-7" on="1"/>
        <pt x="567" y="-14" on="0"/>
        <pt x="530" y="-14" on="1"/>
        <pt x="372" y="-14" on="0"/>
        <pt x="260" y="102" on="1"/>
        <pt x="148" y="217" on="0"/>
        <pt x="148" y="380" on="1"/>
        <pt x="148" y="543" on="0"/>
        <pt x="260" y="658" on="1"/>
        <pt x="372" y="773" on="0"/>
        <pt x="530" y="773" on="1"/>
        <pt x="567" y="773" on="0"/>
        <pt x="603" y="766" on="1"/>
        <pt x="603" y="600" on="1"/>
        <pt x="568" y="612" on="0"/>
      </contour>
    </TTGlyph>
    <TTGlyph name="Euro.0" xMin="50" yMin="-14" xMax="603" yMax="773">
      <component glyphName="Euro" x="0" y="0" flags="0x4"/>
    </TTGlyph>
    <TTGlyph name="Euro.1" xMin="50" yMin="-14" xMax="603" yMax="773">
      <component glyphName="Euro" x="0" y="0" flags="0x4"/>
    </TTGlyph>
    <TTGlyph name="Euro.2" xMin="50" yMin="-14" xMax="603" yMax="773">
      <contour>
        <pt x="65" y="358" on="1"/>
        <pt x="494" y="358" on="1"/>
        <pt x="500" y="358" on="0"/>
        <pt x="505" y="354" on="1"/>
        <pt x="509" y="349" on="0"/>
        <pt x="509" y="343" on="1"/>
        <pt x="509" y="287" on="1"/>
        <pt x="509" y="281" on="0"/>
        <pt x="505" y="277" on="1"/>
        <pt x="500" y="272" on="0"/>
        <pt x="494" y="272" on="1"/>
        <pt x="65" y="272" on="1"/>
        <pt x="59" y="272" on="0"/>
        <pt x="55" y="277" on="1"/>
        <pt x="50" y="281" on="0"/>
        <pt x="50" y="287" on="1"/>
        <pt x="50" y="343" on="1"/>
        <pt x="50" y="349" on="0"/>
        <pt x="55" y="354" on="1"/>
        <pt x="59" y="358" on="0"/>
      </contour>
      <contour>
        <pt x="65" y="533" on="1"/>
        <pt x="494" y="533" on="1"/>
        <pt x="500" y="533" on="0"/>
        <pt x="505" y="529" on="1"/>
        <pt x="509" y="524" on="0"/>
        <pt x="509" y="518" on="1"/>
        <pt x="509" y="462" on="1"/>
        <pt x="509" y="456" on="0"/>
        <pt x="505" y="452" on="1"/>
        <pt x="500" y="447" on="0"/>
        <pt x="494" y="447" on="1"/>
        <pt x="65" y="447" on="1"/>
        <pt x="59" y="447" on="0"/>
        <pt x="55" y="452" on="1"/>
        <pt x="50" y="456" on="0"/>
        <pt x="50" y="462" on="1"/>
        <pt x="50" y="518" on="1"/>
        <pt x="50" y="524" on="0"/>
        <pt x="55" y="529" on="1"/>
        <pt x="59" y="533" on="0"/>
      </contour>
      <contour>
        <pt x="530" y="612" on="1"/>
        <pt x="435" y="612" on="0"/>
        <pt x="368" y="544" on="1"/>
        <pt x="301" y="475" on="0"/>
        <pt x="301" y="378" on="1"/>
        <pt x="301" y="280" on="0"/>
        <pt x="368" y="212" on="1"/>
        <pt x="435" y="143" on="0"/>
        <pt x="530" y="143" on="1"/>
        <pt x="568" y="143" on="0"/>
        <pt x="603" y="155" on="1"/>
        <pt x="603" y="-7" on="1"/>
        <pt x="567" y="-14" on="0"/>
        <pt x="530" y="-14" on="1"/>
        <pt x="372" y="-14" on="0"/>
        <pt x="260" y="102" on="1"/>
        <pt x="148" y="217" on="0"/>
        <pt x="148" y="380" on="1"/>
        <pt x="148" y="543" on="0"/>
        <pt x="260" y="658" on="1"/>
        <pt x="372" y="773" on="0"/>
        <pt x="530" y="773" on="1"/>
        <pt x="567" y="773" on="0"/>
        <pt x="603" y="766" on="1"/>
        <pt x="603" y="600" on="1"/>
        <pt x="568" y="612" on="0"/>
      </contour>
    </TTGlyph>
    <TTGlyph name="F" xMin="50" yMin="-2" xMax="618" yMax="778">
      <contour>
        <pt x="509" y="485" on="1"/>
        <pt x="510" y="333" on="1"/>
        <pt x="202" y="333" on="1"/>
        <pt x="202" y="-2" on="1"/>
        <pt x="50" y="-2" on="1"/>
        <pt x="50" y="774" on="1"/>
        <pt x="50" y="778" on="1"/>
        <pt x="617" y="778" on="1"/>
        <pt x="618" y="626" on="1"/>
        <pt x="202" y="626" on="1"/>
        <pt x="202" y="485" on="1"/>
      </contour>
    </TTGlyph>
    <TTGlyph name="F.0" xMin="50" yMin="-2" xMax="618" yMax="778">
      <component glyphName="F" x="0" y="0" flags="0x204"/>
    </TTGlyph>
    <TTGlyph name="F.1" xMin="50" yMin="-2" xMax="618" yMax="778">
      <component glyphName="F" x="0" y="0" flags="0x204"/>
    </TTGlyph>
    <TTGlyph name="F.2" xMin="50" yMin="-2" xMax="618" yMax="778">
      <contour>
        <pt x="509" y="485" on="1"/>
        <pt x="510" y="333" on="1"/>
        <pt x="202" y="333" on="1"/>
        <pt x="202" y="-2" on="1"/>
        <pt x="50" y="-2" on="1"/>
        <pt x="50" y="774" on="1"/>
        <pt x="50" y="778" on="1"/>
        <pt x="617" y="778" on="1"/>
        <pt x="618" y="626" on="1"/>
        <pt x="202" y="626" on="1"/>
        <pt x="202" y="485" on="1"/>
      </contour>
    </TTGlyph>
    <TTGlyph name="G" xMin="50" yMin="-14" xMax="601" yMax="773">
      <contour>
        <pt x="432" y="612" on="1"/>
        <pt x="337" y="612" on="0"/>
        <pt x="270" y="544" on="1"/>
        <pt x="203" y="475" on="0"/>
        <pt x="203" y="378" on="1"/>
        <pt x="203" y="280" on="0"/>
        <pt x="270" y="212" on="1"/>
        <pt x="337" y="143" on="0"/>
        <pt x="432" y="143" on="1"/>
        <pt x="441" y="143" on="0"/>
        <pt x="449" y="144" on="1"/>
        <pt x="449" y="313" on="1"/>
        <pt x="601" y="313" on="1"/>
        <pt x="601" y="-14" on="1"/>
        <pt x="449" y="-14" on="1"/>
        <pt x="443" y="-14" on="0"/>
        <pt x="439" y="-14" on="0"/>
        <pt x="432" y="-14" on="1"/>
        <pt x="274" y="-14" on="0"/>
        <pt x="162" y="102" on="1"/>
        <pt x="50" y="217" on="0"/>
        <pt x="50" y="380" on="1"/>
        <pt x="50" y="543" on="0"/>
        <pt x="162" y="658" on="1"/>
        <pt x="274" y="773" on="0"/>
        <pt x="432" y="773" on="1"/>
        <pt x="469" y="773" on="0"/>
        <pt x="505" y="766" on="1"/>
        <pt x="505" y="600" on="1"/>
        <pt x="470" y="612" on="0"/>
      </contour>
    </TTGlyph>
    <TTGlyph name="G.0" xMin="50" yMin="-14" xMax="601" yMax="773">
      <component glyphName="G" x="0" y="0" flags="0x204"/>
    </TTGlyph>
    <TTGlyph name="G.1" xMin="50" yMin="-14" xMax="601" yMax="773">
      <component glyphName="G" x="0" y="0" flags="0x204"/>
    </TTGlyph>
    <TTGlyph name="G.2" xMin="50" yMin="-14" xMax="601" yMax="773">
      <contour>
        <pt x="432" y="612" on="1"/>
        <pt x="337" y="612" on="0"/>
        <pt x="270" y="544" on="1"/>
        <pt x="203" y="475" on="0"/>
        <pt x="203" y="378" on="1"/>
        <pt x="203" y="280" on="0"/>
        <pt x="270" y="212" on="1"/>
        <pt x="337" y="143" on="0"/>
        <pt x="432" y="143" on="1"/>
        <pt x="441" y="143" on="0"/>
        <pt x="449" y="144" on="1"/>
        <pt x="449" y="313" on="1"/>
        <pt x="601" y="313" on="1"/>
        <pt x="601" y="-14" on="1"/>
        <pt x="449" y="-14" on="1"/>
        <pt x="443" y="-14" on="0"/>
        <pt x="439" y="-14" on="0"/>
        <pt x="432" y="-14" on="1"/>
        <pt x="274" y="-14" on="0"/>
        <pt x="162" y="102" on="1"/>
        <pt x="50" y="217" on="0"/>
        <pt x="50" y="380" on="1"/>
        <pt x="50" y="543" on="0"/>
        <pt x="162" y="658" on="1"/>
        <pt x="274" y="773" on="0"/>
        <pt x="432" y="773" on="1"/>
        <pt x="469" y="773" on="0"/>
        <pt x="505" y="766" on="1"/>
        <pt x="505" y="600" on="1"/>
        <pt x="470" y="612" on="0"/>
      </contour>
    </TTGlyph>
    <TTGlyph name="Gbreve" xMin="50" yMin="-14" xMax="601" yMax="957">
      <component glyphName="uni0306" x="432" y="25" flags="0x4"/>
      <component glyphName="G" x="0" y="0" flags="0x204"/>
    </TTGlyph>
    <TTGlyph name="Gbreve.0" xMin="50" yMin="-14" xMax="601" yMax="957">
      <component glyphName="Gbreve" x="0" y="0" flags="0x204"/>
    </TTGlyph>
    <TTGlyph name="Gbreve.1" xMin="50" yMin="-14" xMax="601" yMax="957">
      <component glyphName="Gbreve" x="0" y="0" flags="0x204"/>
    </TTGlyph>
    <TTGlyph name="Gbreve.2" xMin="50" yMin="-14" xMax="601" yMax="957">
      <contour>
        <pt x="560" y="957" on="1"/>
        <pt x="560" y="943" on="1"/>
        <pt x="560" y="890" on="0"/>
        <pt x="523" y="853" on="1"/>
        <pt x="486" y="815" on="0"/>
        <pt x="432" y="815" on="1"/>
        <pt x="378" y="815" on="0"/>
        <pt x="341" y="852" on="1"/>
        <pt x="304" y="889" on="0"/>
        <pt x="304" y="943" on="1"/>
        <pt x="304" y="957" on="1"/>
        <pt x="380" y="957" on="1"/>
        <pt x="378" y="949" on="0"/>
        <pt x="378" y="943" on="1"/>
        <pt x="378" y="921" on="0"/>
        <pt x="394" y="905" on="1"/>
        <pt x="410" y="889" on="0"/>
        <pt x="433" y="889" on="1"/>
        <pt x="455" y="889" on="0"/>
        <pt x="471" y="905" on="1"/>
        <pt x="486" y="921" on="0"/>
        <pt x="486" y="943" on="1"/>
        <pt x="486" y="949" on="0"/>
        <pt x="484" y="957" on="1"/>
      </contour>
      <contour>
        <pt x="432" y="612" on="1"/>
        <pt x="337" y="612" on="0"/>
        <pt x="270" y="544" on="1"/>
        <pt x="203" y="475" on="0"/>
        <pt x="203" y="378" on="1"/>
        <pt x="203" y="280" on="0"/>
        <pt x="270" y="212" on="1"/>
        <pt x="337" y="143" on="0"/>
        <pt x="432" y="143" on="1"/>
        <pt x="441" y="143" on="0"/>
        <pt x="449" y="144" on="1"/>
        <pt x="449" y="313" on="1"/>
        <pt x="601" y="313" on="1"/>
        <pt x="601" y="-14" on="1"/>
        <pt x="449" y="-14" on="1"/>
        <pt x="443" y="-14" on="0"/>
        <pt x="439" y="-14" on="0"/>
        <pt x="432" y="-14" on="1"/>
        <pt x="274" y="-14" on="0"/>
        <pt x="162" y="102" on="1"/>
        <pt x="50" y="217" on="0"/>
        <pt x="50" y="380" on="1"/>
        <pt x="50" y="543" on="0"/>
        <pt x="162" y="658" on="1"/>
        <pt x="274" y="773" on="0"/>
        <pt x="432" y="773" on="1"/>
        <pt x="469" y="773" on="0"/>
        <pt x="505" y="766" on="1"/>
        <pt x="505" y="600" on="1"/>
        <pt x="470" y="612" on="0"/>
      </contour>
    </TTGlyph>
    <TTGlyph name="Gcircumflex" xMin="50" yMin="-14" xMax="601" yMax="1000">
      <component glyphName="uni0302" x="432" y="66" flags="0x4"/>
      <component glyphName="G" x="0" y="0" flags="0x204"/>
    </TTGlyph>
    <TTGlyph name="Gcircumflex.0" xMin="50" yMin="-14" xMax="601" yMax="1000">
      <component glyphName="Gcircumflex" x="0" y="0" flags="0x204"/>
    </TTGlyph>
    <TTGlyph name="Gcircumflex.1" xMin="50" yMin="-14" xMax="601" yMax="1000">
      <component glyphName="Gcircumflex" x="0" y="0" flags="0x204"/>
    </TTGlyph>
    <TTGlyph name="Gcircumflex.2" xMin="50" yMin="-14" xMax="601" yMax="1000">
      <contour>
        <pt x="332" y="832" on="1"/>
        <pt x="403" y="1000" on="1"/>
        <pt x="404" y="1000" on="1"/>
        <pt x="479" y="1000" on="1"/>
        <pt x="480" y="1000" on="1"/>
        <pt x="532" y="832" on="1"/>
        <pt x="456" y="832" on="1"/>
        <pt x="436" y="940" on="1"/>
        <pt x="408" y="832" on="1"/>
      </contour>
      <contour>
        <pt x="432" y="612" on="1"/>
        <pt x="337" y="612" on="0"/>
        <pt x="270" y="544" on="1"/>
        <pt x="203" y="475" on="0"/>
        <pt x="203" y="378" on="1"/>
        <pt x="203" y="280" on="0"/>
        <pt x="270" y="212" on="1"/>
        <pt x="337" y="143" on="0"/>
        <pt x="432" y="143" on="1"/>
        <pt x="441" y="143" on="0"/>
        <pt x="449" y="144" on="1"/>
        <pt x="449" y="313" on="1"/>
        <pt x="601" y="313" on="1"/>
        <pt x="601" y="-14" on="1"/>
        <pt x="449" y="-14" on="1"/>
        <pt x="443" y="-14" on="0"/>
        <pt x="439" y="-14" on="0"/>
        <pt x="432" y="-14" on="1"/>
        <pt x="274" y="-14" on="0"/>
        <pt x="162" y="102" on="1"/>
        <pt x="50" y="217" on="0"/>
        <pt x="50" y="380" on="1"/>
        <pt x="50" y="543" on="0"/>
        <pt x="162" y="658" on="1"/>
        <pt x="274" y="773" on="0"/>
        <pt x="432" y="773" on="1"/>
        <pt x="469" y="773" on="0"/>
        <pt x="505" y="766" on="1"/>
        <pt x="505" y="600" on="1"/>
        <pt x="470" y="612" on="0"/>
      </contour>
    </TTGlyph>
    <TTGlyph name="Gdotaccent" xMin="50" yMin="-14" xMax="601" yMax="975">
      <component glyphName="uni0307" x="432" y="335" flags="0x4"/>
      <component glyphName="G" x="0" y="0" flags="0x204"/>
    </TTGlyph>
    <TTGlyph name="Gdotaccent.0" xMin="50" yMin="-14" xMax="601" yMax="975">
      <component glyphName="Gdotaccent" x="0" y="0" flags="0x204"/>
    </TTGlyph>
    <TTGlyph name="Gdotaccent.1" xMin="50" yMin="-14" xMax="601" yMax="975">
      <component glyphName="Gdotaccent" x="0" y="0" flags="0x204"/>
    </TTGlyph>
    <TTGlyph name="Gdotaccent.2" xMin="50" yMin="-14" xMax="601" yMax="975">
      <contour>
        <pt x="356" y="833" on="1"/>
        <pt x="356" y="975" on="1"/>
        <pt x="508" y="975" on="1"/>
        <pt x="508" y="833" on="1"/>
      </contour>
      <contour>
        <pt x="432" y="612" on="1"/>
        <pt x="337" y="612" on="0"/>
        <pt x="270" y="544" on="1"/>
        <pt x="203" y="475" on="0"/>
        <pt x="203" y="378" on="1"/>
        <pt x="203" y="280" on="0"/>
        <pt x="270" y="212" on="1"/>
        <pt x="337" y="143" on="0"/>
        <pt x="432" y="143" on="1"/>
        <pt x="441" y="143" on="0"/>
        <pt x="449" y="144" on="1"/>
        <pt x="449" y="313" on="1"/>
        <pt x="601" y="313" on="1"/>
        <pt x="601" y="-14" on="1"/>
        <pt x="449" y="-14" on="1"/>
        <pt x="443" y="-14" on="0"/>
        <pt x="439" y="-14" on="0"/>
        <pt x="432" y="-14" on="1"/>
        <pt x="274" y="-14" on="0"/>
        <pt x="162" y="102" on="1"/>
        <pt x="50" y="217" on="0"/>
        <pt x="50" y="380" on="1"/>
        <pt x="50" y="543" on="0"/>
        <pt x="162" y="658" on="1"/>
        <pt x="274" y="773" on="0"/>
        <pt x="432" y="773" on="1"/>
        <pt x="469" y="773" on="0"/>
        <pt x="505" y="766" on="1"/>
        <pt x="505" y="600" on="1"/>
        <pt x="470" y="612" on="0"/>
      </contour>
    </TTGlyph>
    <TTGlyph name="H" xMin="50" yMin="-2" xMax="602" yMax="774">
      <contour>
        <pt x="450" y="774" on="1"/>
        <pt x="602" y="774" on="1"/>
        <pt x="602" y="-2" on="1"/>
        <pt x="450" y="-2" on="1"/>
        <pt x="450" y="333" on="1"/>
        <pt x="202" y="333" on="1"/>
        <pt x="202" y="-2" on="1"/>
        <pt x="50" y="-2" on="1"/>
        <pt x="50" y="774" on="1"/>
        <pt x="202" y="774" on="1"/>
        <pt x="202" y="485" on="1"/>
        <pt x="450" y="485" on="1"/>
      </contour>
    </TTGlyph>
    <TTGlyph name="H.0" xMin="50" yMin="-2" xMax="602" yMax="774">
      <component glyphName="H" x="0" y="0" flags="0x204"/>
    </TTGlyph>
    <TTGlyph name="H.1" xMin="50" yMin="-2" xMax="602" yMax="774">
      <component glyphName="H" x="0" y="0" flags="0x204"/>
    </TTGlyph>
    <TTGlyph name="H.2" xMin="50" yMin="-2" xMax="602" yMax="774">
      <contour>
        <pt x="450" y="774" on="1"/>
        <pt x="602" y="774" on="1"/>
        <pt x="602" y="-2" on="1"/>
        <pt x="450" y="-2" on="1"/>
        <pt x="450" y="333" on="1"/>
        <pt x="202" y="333" on="1"/>
        <pt x="202" y="-2" on="1"/>
        <pt x="50" y="-2" on="1"/>
        <pt x="50" y="774" on="1"/>
        <pt x="202" y="774" on="1"/>
        <pt x="202" y="485" on="1"/>
        <pt x="450" y="485" on="1"/>
      </contour>
    </TTGlyph>
    <TTGlyph name="Hbar" xMin="50" yMin="-2" xMax="697" yMax="774">
      <contour>
        <pt x="252" y="561" on="1"/>
        <pt x="252" y="485" on="1"/>
        <pt x="500" y="485" on="1"/>
        <pt x="500" y="561" on="1"/>
      </contour>
      <contour>
        <pt x="500" y="774" on="1"/>
        <pt x="652" y="774" on="1"/>
        <pt x="652" y="713" on="1"/>
        <pt x="697" y="713" on="1"/>
        <pt x="697" y="561" on="1"/>
        <pt x="652" y="561" on="1"/>
        <pt x="652" y="-2" on="1"/>
        <pt x="500" y="-2" on="1"/>
        <pt x="500" y="333" on="1"/>
        <pt x="252" y="333" on="1"/>
        <pt x="252" y="-2" on="1"/>
        <pt x="100" y="-2" on="1"/>
        <pt x="100" y="561" on="1"/>
        <pt x="50" y="561" on="1"/>
        <pt x="50" y="713" on="1"/>
        <pt x="100" y="713" on="1"/>
        <pt x="100" y="774" on="1"/>
        <pt x="252" y="774" on="1"/>
        <pt x="252" y="713" on="1"/>
        <pt x="500" y="713" on="1"/>
      </contour>
    </TTGlyph>
    <TTGlyph name="Hbar.0" xMin="50" yMin="-2" xMax="697" yMax="774">
      <component glyphName="Hbar" x="0" y="0" flags="0x204"/>
    </TTGlyph>
    <TTGlyph name="Hbar.1" xMin="50" yMin="-2" xMax="697" yMax="774">
      <component glyphName="Hbar" x="0" y="0" flags="0x204"/>
    </TTGlyph>
    <TTGlyph name="Hbar.2" xMin="50" yMin="-2" xMax="697" yMax="774">
      <contour>
        <pt x="252" y="561" on="1"/>
        <pt x="252" y="485" on="1"/>
        <pt x="500" y="485" on="1"/>
        <pt x="500" y="561" on="1"/>
      </contour>
      <contour>
        <pt x="500" y="774" on="1"/>
        <pt x="652" y="774" on="1"/>
        <pt x="652" y="713" on="1"/>
        <pt x="697" y="713" on="1"/>
        <pt x="697" y="561" on="1"/>
        <pt x="652" y="561" on="1"/>
        <pt x="652" y="-2" on="1"/>
        <pt x="500" y="-2" on="1"/>
        <pt x="500" y="333" on="1"/>
        <pt x="252" y="333" on="1"/>
        <pt x="252" y="-2" on="1"/>
        <pt x="100" y="-2" on="1"/>
        <pt x="100" y="561" on="1"/>
        <pt x="50" y="561" on="1"/>
        <pt x="50" y="713" on="1"/>
        <pt x="100" y="713" on="1"/>
        <pt x="100" y="774" on="1"/>
        <pt x="252" y="774" on="1"/>
        <pt x="252" y="713" on="1"/>
        <pt x="500" y="713" on="1"/>
      </contour>
    </TTGlyph>
    <TTGlyph name="Hcircumflex" xMin="50" yMin="-2" xMax="602" yMax="1002">
      <component glyphName="uni0302" x="326" y="68" flags="0x4"/>
      <component glyphName="H" x="0" y="0" flags="0x204"/>
    </TTGlyph>
    <TTGlyph name="Hcircumflex.0" xMin="50" yMin="-2" xMax="602" yMax="1002">
      <component glyphName="Hcircumflex" x="0" y="0" flags="0x204"/>
    </TTGlyph>
    <TTGlyph name="Hcircumflex.1" xMin="50" yMin="-2" xMax="602" yMax="1002">
      <component glyphName="Hcircumflex" x="0" y="0" flags="0x204"/>
    </TTGlyph>
    <TTGlyph name="Hcircumflex.2" xMin="50" yMin="-2" xMax="602" yMax="1002">
      <contour>
        <pt x="226" y="834" on="1"/>
        <pt x="297" y="1002" on="1"/>
        <pt x="298" y="1002" on="1"/>
        <pt x="373" y="1002" on="1"/>
        <pt x="374" y="1002" on="1"/>
        <pt x="426" y="834" on="1"/>
        <pt x="350" y="834" on="1"/>
        <pt x="330" y="942" on="1"/>
        <pt x="302" y="834" on="1"/>
      </contour>
      <contour>
        <pt x="450" y="774" on="1"/>
        <pt x="602" y="774" on="1"/>
        <pt x="602" y="-2" on="1"/>
        <pt x="450" y="-2" on="1"/>
        <pt x="450" y="333" on="1"/>
        <pt x="202" y="333" on="1"/>
        <pt x="202" y="-2" on="1"/>
        <pt x="50" y="-2" on="1"/>
        <pt x="50" y="774" on="1"/>
        <pt x="202" y="774" on="1"/>
        <pt x="202" y="485" on="1"/>
        <pt x="450" y="485" on="1"/>
      </contour>
    </TTGlyph>
    <TTGlyph name="I" xMin="50" yMin="-2" xMax="202" yMax="774">
      <contour>
        <pt x="50" y="774" on="1"/>
        <pt x="202" y="774" on="1"/>
        <pt x="202" y="-2" on="1"/>
        <pt x="50" y="-2" on="1"/>
      </contour>
    </TTGlyph>
    <TTGlyph name="I.0" xMin="50" yMin="-2" xMax="202" yMax="774">
      <component glyphName="I" x="0" y="0" flags="0x204"/>
    </TTGlyph>
    <TTGlyph name="I.1" xMin="50" yMin="-2" xMax="202" yMax="774">
      <component glyphName="I" x="0" y="0" flags="0x204"/>
    </TTGlyph>
    <TTGlyph name="I.2" xMin="50" yMin="-2" xMax="202" yMax="774">
      <contour>
        <pt x="50" y="774" on="1"/>
        <pt x="202" y="774" on="1"/>
        <pt x="202" y="-2" on="1"/>
        <pt x="50" y="-2" on="1"/>
      </contour>
    </TTGlyph>
    <TTGlyph name="Iacute" xMin="18" yMin="-2" xMax="308" yMax="1123">
      <component glyphName="acutecomb" x="163" y="318" flags="0x4"/>
      <component glyphName="I" x="0" y="0" flags="0x204"/>
    </TTGlyph>
    <TTGlyph name="Iacute.0" xMin="18" yMin="-2" xMax="308" yMax="1123">
      <component glyphName="Iacute" x="0" y="0" flags="0x4"/>
    </TTGlyph>
    <TTGlyph name="Iacute.1" xMin="18" yMin="-2" xMax="308" yMax="1123">
      <component glyphName="Iacute" x="0" y="0" flags="0x4"/>
    </TTGlyph>
    <TTGlyph name="Iacute.2" xMin="18" yMin="-2" xMax="308" yMax="1123">
      <contour>
        <pt x="126" y="834" on="1"/>
        <pt x="18" y="941" on="1"/>
        <pt x="200" y="1123" on="1"/>
        <pt x="308" y="1016" on="1"/>
      </contour>
      <contour>
        <pt x="50" y="774" on="1"/>
        <pt x="202" y="774" on="1"/>
        <pt x="202" y="-2" on="1"/>
        <pt x="50" y="-2" on="1"/>
      </contour>
    </TTGlyph>
    <TTGlyph name="Ibreve" xMin="50" yMin="-2" xMax="306" yMax="942">
      <component glyphName="uni0306" x="178" y="10" flags="0x4"/>
      <component glyphName="I" x="50" y="0" flags="0x4"/>
    </TTGlyph>
    <TTGlyph name="Ibreve.0" xMin="50" yMin="-2" xMax="306" yMax="942">
      <component glyphName="Ibreve" x="0" y="0" flags="0x204"/>
    </TTGlyph>
    <TTGlyph name="Ibreve.1" xMin="50" yMin="-2" xMax="306" yMax="942">
      <component glyphName="Ibreve" x="0" y="0" flags="0x204"/>
    </TTGlyph>
    <TTGlyph name="Ibreve.2" xMin="50" yMin="-2" xMax="306" yMax="942">
      <contour>
        <pt x="306" y="942" on="1"/>
        <pt x="306" y="928" on="1"/>
        <pt x="306" y="875" on="0"/>
        <pt x="269" y="838" on="1"/>
        <pt x="232" y="800" on="0"/>
        <pt x="178" y="800" on="1"/>
        <pt x="124" y="800" on="0"/>
        <pt x="87" y="837" on="1"/>
        <pt x="50" y="874" on="0"/>
        <pt x="50" y="928" on="1"/>
        <pt x="50" y="942" on="1"/>
        <pt x="126" y="942" on="1"/>
        <pt x="124" y="934" on="0"/>
        <pt x="124" y="928" on="1"/>
        <pt x="124" y="906" on="0"/>
        <pt x="140" y="890" on="1"/>
        <pt x="156" y="874" on="0"/>
        <pt x="179" y="874" on="1"/>
        <pt x="201" y="874" on="0"/>
        <pt x="217" y="890" on="1"/>
        <pt x="232" y="906" on="0"/>
        <pt x="232" y="928" on="1"/>
        <pt x="232" y="934" on="0"/>
        <pt x="230" y="942" on="1"/>
      </contour>
      <contour>
        <pt x="100" y="774" on="1"/>
        <pt x="252" y="774" on="1"/>
        <pt x="252" y="-2" on="1"/>
        <pt x="100" y="-2" on="1"/>
      </contour>
    </TTGlyph>
    <TTGlyph name="Icircumflex" xMin="50" yMin="-2" xMax="250" yMax="1002">
      <component glyphName="uni0302" x="150" y="68" flags="0x4"/>
      <component glyphName="I" x="24" y="0" flags="0x4"/>
    </TTGlyph>
    <TTGlyph name="Icircumflex.0" xMin="50" yMin="-2" xMax="250" yMax="1002">
      <component glyphName="Icircumflex" x="0" y="0" flags="0x204"/>
    </TTGlyph>
    <TTGlyph name="Icircumflex.1" xMin="50" yMin="-2" xMax="250" yMax="1002">
      <component glyphName="Icircumflex" x="0" y="0" flags="0x204"/>
    </TTGlyph>
    <TTGlyph name="Icircumflex.2" xMin="50" yMin="-2" xMax="250" yMax="1002">
      <contour>
        <pt x="50" y="834" on="1"/>
        <pt x="121" y="1002" on="1"/>
        <pt x="122" y="1002" on="1"/>
        <pt x="197" y="1002" on="1"/>
        <pt x="198" y="1002" on="1"/>
        <pt x="250" y="834" on="1"/>
        <pt x="174" y="834" on="1"/>
        <pt x="154" y="942" on="1"/>
        <pt x="126" y="834" on="1"/>
      </contour>
      <contour>
        <pt x="74" y="774" on="1"/>
        <pt x="226" y="774" on="1"/>
        <pt x="226" y="-2" on="1"/>
        <pt x="74" y="-2" on="1"/>
      </contour>
    </TTGlyph>
    <TTGlyph name="Idieresis" xMin="50" yMin="-2" xMax="402" yMax="976">
      <component glyphName="uni0308" x="226" y="336" flags="0x4"/>
      <component glyphName="I" x="100" y="0" flags="0x4"/>
    </TTGlyph>
    <TTGlyph name="Idieresis.0" xMin="50" yMin="-2" xMax="402" yMax="976">
      <component glyphName="Idieresis" x="0" y="0" flags="0x204"/>
    </TTGlyph>
    <TTGlyph name="Idieresis.1" xMin="50" yMin="-2" xMax="402" yMax="976">
      <component glyphName="Idieresis" x="0" y="0" flags="0x204"/>
    </TTGlyph>
    <TTGlyph name="Idieresis.2" xMin="50" yMin="-2" xMax="402" yMax="976">
      <contour>
        <pt x="50" y="834" on="1"/>
        <pt x="50" y="976" on="1"/>
        <pt x="202" y="976" on="1"/>
        <pt x="202" y="834" on="1"/>
      </contour>
      <contour>
        <pt x="250" y="834" on="1"/>
        <pt x="250" y="976" on="1"/>
        <pt x="402" y="976" on="1"/>
        <pt x="402" y="834" on="1"/>
      </contour>
      <contour>
        <pt x="150" y="774" on="1"/>
        <pt x="302" y="774" on="1"/>
        <pt x="302" y="-2" on="1"/>
        <pt x="150" y="-2" on="1"/>
      </contour>
    </TTGlyph>
    <TTGlyph name="Idotaccent" xMin="50" yMin="-2" xMax="202" yMax="976">
      <component glyphName="uni0307" x="126" y="336" flags="0x4"/>
      <component glyphName="I" x="0" y="0" flags="0x204"/>
    </TTGlyph>
    <TTGlyph name="Idotaccent.0" xMin="50" yMin="-2" xMax="202" yMax="976">
      <component glyphName="Idotaccent" x="0" y="0" flags="0x204"/>
    </TTGlyph>
    <TTGlyph name="Idotaccent.1" xMin="50" yMin="-2" xMax="202" yMax="976">
      <component glyphName="Idotaccent" x="0" y="0" flags="0x204"/>
    </TTGlyph>
    <TTGlyph name="Idotaccent.2" xMin="50" yMin="-2" xMax="202" yMax="976">
      <contour>
        <pt x="50" y="834" on="1"/>
        <pt x="50" y="976" on="1"/>
        <pt x="202" y="976" on="1"/>
        <pt x="202" y="834" on="1"/>
      </contour>
      <contour>
        <pt x="50" y="774" on="1"/>
        <pt x="202" y="774" on="1"/>
        <pt x="202" y="-2" on="1"/>
        <pt x="50" y="-2" on="1"/>
      </contour>
    </TTGlyph>
    <TTGlyph name="Igrave" xMin="-56" yMin="-2" xMax="234" yMax="1123">
      <component glyphName="gravecomb" x="89" y="318" flags="0x4"/>
      <component glyphName="I" x="0" y="0" flags="0x204"/>
    </TTGlyph>
    <TTGlyph name="Igrave.0" xMin="-56" yMin="-2" xMax="234" yMax="1123">
      <component glyphName="Igrave" x="0" y="0" flags="0x4"/>
    </TTGlyph>
    <TTGlyph name="Igrave.1" xMin="-56" yMin="-2" xMax="234" yMax="1123">
      <component glyphName="Igrave" x="0" y="0" flags="0x4"/>
    </TTGlyph>
    <TTGlyph name="Igrave.2" xMin="-56" yMin="-2" xMax="234" yMax="1123">
      <contour>
        <pt x="126" y="834" on="1"/>
        <pt x="-56" y="1016" on="1"/>
        <pt x="52" y="1123" on="1"/>
        <pt x="234" y="941" on="1"/>
      </contour>
      <contour>
        <pt x="50" y="774" on="1"/>
        <pt x="202" y="774" on="1"/>
        <pt x="202" y="-2" on="1"/>
        <pt x="50" y="-2" on="1"/>
      </contour>
    </TTGlyph>
    <TTGlyph name="Imacron" xMin="50" yMin="-2" xMax="322" yMax="910">
      <component glyphName="uni0304" x="186" y="52" flags="0x4"/>
      <component glyphName="I" x="60" y="0" flags="0x4"/>
    </TTGlyph>
    <TTGlyph name="Imacron.0" xMin="50" yMin="-2" xMax="322" yMax="910">
      <component glyphName="Imacron" x="0" y="0" flags="0x204"/>
    </TTGlyph>
    <TTGlyph name="Imacron.1" xMin="50" yMin="-2" xMax="322" yMax="910">
      <component glyphName="Imacron" x="0" y="0" flags="0x204"/>
    </TTGlyph>
    <TTGlyph name="Imacron.2" xMin="50" yMin="-2" xMax="322" yMax="910">
      <contour>
        <pt x="322" y="910" on="1"/>
        <pt x="322" y="834" on="1"/>
        <pt x="50" y="834" on="1"/>
        <pt x="50" y="910" on="1"/>
      </contour>
      <contour>
        <pt x="110" y="774" on="1"/>
        <pt x="262" y="774" on="1"/>
        <pt x="262" y="-2" on="1"/>
        <pt x="110" y="-2" on="1"/>
      </contour>
    </TTGlyph>
    <TTGlyph name="Iogonek" xMin="50" yMin="-256" xMax="203" yMax="774">
      <component glyphName="uni0328" x="182" y="-188" flags="0x4"/>
      <component glyphName="I" x="0" y="0" flags="0x4"/>
    </TTGlyph>
    <TTGlyph name="Iogonek.0" xMin="50" yMin="-256" xMax="203" yMax="774">
      <component glyphName="Iogonek" x="0" y="0" flags="0x204"/>
    </TTGlyph>
    <TTGlyph name="Iogonek.1" xMin="50" yMin="-256" xMax="203" yMax="774">
      <component glyphName="Iogonek" x="0" y="0" flags="0x204"/>
    </TTGlyph>
    <TTGlyph name="Iogonek.2" xMin="50" yMin="-256" xMax="203" yMax="774">
      <contour>
        <pt x="203" y="-256" on="1"/>
        <pt x="190" y="-256" on="1"/>
        <pt x="136" y="-256" on="0"/>
        <pt x="99" y="-218" on="1"/>
        <pt x="61" y="-181" on="0"/>
        <pt x="61" y="-128" on="1"/>
        <pt x="61" y="-74" on="0"/>
        <pt x="99" y="-36" on="1"/>
        <pt x="136" y="1" on="0"/>
        <pt x="190" y="1" on="1"/>
        <pt x="203" y="1" on="1"/>
        <pt x="203" y="-76" on="1"/>
        <pt x="195" y="-74" on="0"/>
        <pt x="190" y="-74" on="1"/>
        <pt x="168" y="-74" on="0"/>
        <pt x="152" y="-90" on="1"/>
        <pt x="136" y="-106" on="0"/>
        <pt x="136" y="-128" on="1"/>
        <pt x="136" y="-150" on="0"/>
        <pt x="152" y="-165" on="1"/>
        <pt x="167" y="-181" on="0"/>
        <pt x="190" y="-181" on="1"/>
        <pt x="195" y="-181" on="0"/>
        <pt x="203" y="-179" on="1"/>
      </contour>
      <contour>
        <pt x="50" y="774" on="1"/>
        <pt x="202" y="774" on="1"/>
        <pt x="202" y="-2" on="1"/>
        <pt x="50" y="-2" on="1"/>
      </contour>
    </TTGlyph>
    <TTGlyph name="Itilde" xMin="-114" yMin="-2" xMax="251" yMax="917">
      <component glyphName="tildecomb" x="11" y="-2" flags="0x4"/>
      <component glyphName="I" x="49" y="0" flags="0x4"/>
    </TTGlyph>
    <TTGlyph name="Itilde.0" xMin="-114" yMin="-2" xMax="251" yMax="917">
      <component glyphName="Itilde" x="0" y="0" flags="0x204"/>
    </TTGlyph>
    <TTGlyph name="Itilde.1" xMin="-114" yMin="-2" xMax="251" yMax="917">
      <component glyphName="Itilde" x="0" y="0" flags="0x204"/>
    </TTGlyph>
    <TTGlyph name="Itilde.2" xMin="-114" yMin="-2" xMax="251" yMax="917">
      <contour>
        <pt x="136" y="917" on="1"/>
        <pt x="136" y="841" on="1"/>
        <pt x="135" y="839" on="0"/>
        <pt x="128" y="830" on="1"/>
        <pt x="120" y="821" on="0"/>
        <pt x="104" y="811" on="1"/>
        <pt x="88" y="800" on="0"/>
        <pt x="72" y="800" on="1"/>
        <pt x="22" y="800" on="1"/>
        <pt x="6" y="800" on="0"/>
        <pt x="-16" y="814" on="1"/>
        <pt x="-39" y="828" on="0"/>
        <pt x="-55" y="828" on="1"/>
        <pt x="-66" y="828" on="0"/>
        <pt x="-81" y="821" on="1"/>
        <pt x="-96" y="814" on="0"/>
        <pt x="-105" y="807" on="1"/>
        <pt x="-114" y="800" on="1"/>
        <pt x="-114" y="876" on="1"/>
        <pt x="-82" y="904" on="0"/>
        <pt x="-57" y="904" on="1"/>
        <pt x="-40" y="904" on="0"/>
        <pt x="-16" y="891" on="1"/>
        <pt x="7" y="877" on="0"/>
        <pt x="23" y="877" on="1"/>
        <pt x="40" y="877" on="0"/>
        <pt x="52" y="877" on="0"/>
        <pt x="68" y="877" on="1"/>
        <pt x="83" y="877" on="0"/>
        <pt x="100" y="887" on="1"/>
        <pt x="117" y="897" on="0"/>
        <pt x="126" y="907" on="1"/>
      </contour>
      <contour>
        <pt x="99" y="774" on="1"/>
        <pt x="251" y="774" on="1"/>
        <pt x="251" y="-2" on="1"/>
        <pt x="99" y="-2" on="1"/>
      </contour>
    </TTGlyph>
    <TTGlyph name="J" xMin="50" yMin="-3" xMax="369" yMax="761">
      <contour>
        <pt x="50" y="6" on="1"/>
        <pt x="50" y="174" on="1"/>
        <pt x="81" y="148" on="0"/>
        <pt x="121" y="148" on="1"/>
        <pt x="170" y="148" on="0"/>
        <pt x="202" y="185" on="1"/>
        <pt x="202" y="761" on="1"/>
        <pt x="369" y="761" on="1"/>
        <pt x="366" y="184" on="1"/>
        <pt x="342" y="101" on="0"/>
        <pt x="275" y="49" on="1"/>
        <pt x="208" y="-3" on="0"/>
        <pt x="121" y="-3" on="1"/>
        <pt x="84" y="-3" on="0"/>
      </contour>
    </TTGlyph>
    <TTGlyph name="J.0" xMin="50" yMin="-3" xMax="369" yMax="761">
      <component glyphName="J" x="0" y="0" flags="0x204"/>
    </TTGlyph>
    <TTGlyph name="J.1" xMin="50" yMin="-3" xMax="369" yMax="761">
      <component glyphName="J" x="0" y="0" flags="0x204"/>
    </TTGlyph>
    <TTGlyph name="J.2" xMin="50" yMin="-3" xMax="369" yMax="761">
      <contour>
        <pt x="50" y="6" on="1"/>
        <pt x="50" y="174" on="1"/>
        <pt x="81" y="148" on="0"/>
        <pt x="121" y="148" on="1"/>
        <pt x="170" y="148" on="0"/>
        <pt x="202" y="185" on="1"/>
        <pt x="202" y="761" on="1"/>
        <pt x="369" y="761" on="1"/>
        <pt x="366" y="184" on="1"/>
        <pt x="342" y="101" on="0"/>
        <pt x="275" y="49" on="1"/>
        <pt x="208" y="-3" on="0"/>
        <pt x="121" y="-3" on="1"/>
        <pt x="84" y="-3" on="0"/>
      </contour>
    </TTGlyph>
    <TTGlyph name="Jcircumflex" xMin="50" yMin="-3" xMax="386" yMax="1000">
      <component glyphName="uni0302" x="286" y="66" flags="0x4"/>
      <component glyphName="J" x="0" y="0" flags="0x4"/>
    </TTGlyph>
    <TTGlyph name="Jcircumflex.0" xMin="50" yMin="-3" xMax="386" yMax="1000">
      <component glyphName="Jcircumflex" x="0" y="0" flags="0x204"/>
    </TTGlyph>
    <TTGlyph name="Jcircumflex.1" xMin="50" yMin="-3" xMax="386" yMax="1000">
      <component glyphName="Jcircumflex" x="0" y="0" flags="0x204"/>
    </TTGlyph>
    <TTGlyph name="Jcircumflex.2" xMin="50" yMin="-3" xMax="386" yMax="1000">
      <contour>
        <pt x="186" y="832" on="1"/>
        <pt x="257" y="1000" on="1"/>
        <pt x="258" y="1000" on="1"/>
        <pt x="333" y="1000" on="1"/>
        <pt x="334" y="1000" on="1"/>
        <pt x="386" y="832" on="1"/>
        <pt x="310" y="832" on="1"/>
        <pt x="290" y="940" on="1"/>
        <pt x="262" y="832" on="1"/>
      </contour>
      <contour>
        <pt x="50" y="6" on="1"/>
        <pt x="50" y="174" on="1"/>
        <pt x="81" y="148" on="0"/>
        <pt x="121" y="148" on="1"/>
        <pt x="170" y="148" on="0"/>
        <pt x="202" y="185" on="1"/>
        <pt x="202" y="761" on="1"/>
        <pt x="369" y="761" on="1"/>
        <pt x="366" y="184" on="1"/>
        <pt x="342" y="101" on="0"/>
        <pt x="275" y="49" on="1"/>
        <pt x="208" y="-3" on="0"/>
        <pt x="121" y="-3" on="1"/>
        <pt x="84" y="-3" on="0"/>
      </contour>
    </TTGlyph>
    <TTGlyph name="K" xMin="50" yMin="-3" xMax="703" yMax="774">
      <contour>
        <pt x="50" y="774" on="1"/>
        <pt x="202" y="774" on="1"/>
        <pt x="202" y="433" on="1"/>
        <pt x="447" y="770" on="1"/>
        <pt x="633" y="768" on="1"/>
        <pt x="372" y="387" on="1"/>
        <pt x="703" y="-3" on="1"/>
        <pt x="511" y="-2" on="1"/>
        <pt x="259" y="302" on="1"/>
        <pt x="202" y="219" on="1"/>
        <pt x="202" y="-2" on="1"/>
        <pt x="50" y="-2" on="1"/>
      </contour>
    </TTGlyph>
    <TTGlyph name="K.0" xMin="50" yMin="-3" xMax="703" yMax="774">
      <component glyphName="K" x="0" y="0" flags="0x204"/>
    </TTGlyph>
    <TTGlyph name="K.1" xMin="50" yMin="-3" xMax="703" yMax="774">
      <component glyphName="K" x="0" y="0" flags="0x204"/>
    </TTGlyph>
    <TTGlyph name="K.2" xMin="50" yMin="-3" xMax="703" yMax="774">
      <contour>
        <pt x="50" y="774" on="1"/>
        <pt x="202" y="774" on="1"/>
        <pt x="202" y="433" on="1"/>
        <pt x="447" y="770" on="1"/>
        <pt x="633" y="768" on="1"/>
        <pt x="372" y="387" on="1"/>
        <pt x="703" y="-3" on="1"/>
        <pt x="511" y="-2" on="1"/>
        <pt x="259" y="302" on="1"/>
        <pt x="202" y="219" on="1"/>
        <pt x="202" y="-2" on="1"/>
        <pt x="50" y="-2" on="1"/>
      </contour>
    </TTGlyph>
    <TTGlyph name="L" xMin="50" yMin="-3" xMax="668" yMax="774">
      <contour>
        <pt x="50" y="774" on="1"/>
        <pt x="202" y="774" on="1"/>
        <pt x="202" y="149" on="1"/>
        <pt x="667" y="149" on="1"/>
        <pt x="668" y="-3" on="1"/>
        <pt x="51" y="-3" on="1"/>
        <pt x="51" y="-2" on="1"/>
        <pt x="50" y="-2" on="1"/>
      </contour>
    </TTGlyph>
    <TTGlyph name="L.0" xMin="50" yMin="-3" xMax="668" yMax="774">
      <component glyphName="L" x="0" y="0" flags="0x204"/>
    </TTGlyph>
    <TTGlyph name="L.1" xMin="50" yMin="-3" xMax="668" yMax="774">
      <component glyphName="L" x="0" y="0" flags="0x204"/>
    </TTGlyph>
    <TTGlyph name="L.2" xMin="50" yMin="-3" xMax="668" yMax="774">
      <contour>
        <pt x="50" y="774" on="1"/>
        <pt x="202" y="774" on="1"/>
        <pt x="202" y="149" on="1"/>
        <pt x="667" y="149" on="1"/>
        <pt x="668" y="-3" on="1"/>
        <pt x="51" y="-3" on="1"/>
        <pt x="51" y="-2" on="1"/>
        <pt x="50" y="-2" on="1"/>
      </contour>
    </TTGlyph>
    <TTGlyph name="Lacute" xMin="-166" yMin="-3" xMax="700" yMax="1093">
      <component glyphName="acutecomb" x="-21" y="288" flags="0x4"/>
      <component glyphName="L" x="32" y="0" flags="0x4"/>
    </TTGlyph>
    <TTGlyph name="Lacute.0" xMin="-166" yMin="-3" xMax="700" yMax="1093">
      <component glyphName="Lacute" x="0" y="0" flags="0x204"/>
    </TTGlyph>
    <TTGlyph name="Lacute.1" xMin="-166" yMin="-3" xMax="700" yMax="1093">
      <component glyphName="Lacute" x="0" y="0" flags="0x204"/>
    </TTGlyph>
    <TTGlyph name="Lacute.2" xMin="-166" yMin="-3" xMax="700" yMax="1093">
      <contour>
        <pt x="-58" y="804" on="1"/>
        <pt x="-166" y="911" on="1"/>
        <pt x="16" y="1093" on="1"/>
        <pt x="124" y="986" on="1"/>
      </contour>
      <contour>
        <pt x="82" y="774" on="1"/>
        <pt x="234" y="774" on="1"/>
        <pt x="234" y="149" on="1"/>
        <pt x="699" y="149" on="1"/>
        <pt x="700" y="-3" on="1"/>
        <pt x="83" y="-3" on="1"/>
        <pt x="83" y="-2" on="1"/>
        <pt x="82" y="-2" on="1"/>
      </contour>
    </TTGlyph>
    <TTGlyph name="Lcaron" xMin="50" yMin="-3" xMax="668" yMax="777">
      <contour>
        <pt x="50" y="774" on="1"/>
        <pt x="202" y="774" on="1"/>
        <pt x="202" y="149" on="1"/>
        <pt x="667" y="149" on="1"/>
        <pt x="668" y="-3" on="1"/>
        <pt x="51" y="-3" on="1"/>
        <pt x="51" y="-2" on="1"/>
        <pt x="50" y="-2" on="1"/>
      </contour>
      <contour>
        <pt x="252" y="520" on="1"/>
        <pt x="252" y="777" on="1"/>
        <pt x="404" y="777" on="1"/>
        <pt x="359" y="520" on="1"/>
      </contour>
    </TTGlyph>
    <TTGlyph name="Lcaron.0" xMin="50" yMin="-3" xMax="668" yMax="777">
      <component glyphName="Lcaron" x="0" y="0" flags="0x204"/>
    </TTGlyph>
    <TTGlyph name="Lcaron.1" xMin="50" yMin="-3" xMax="668" yMax="777">
      <component glyphName="Lcaron" x="0" y="0" flags="0x204"/>
    </TTGlyph>
    <TTGlyph name="Lcaron.2" xMin="50" yMin="-3" xMax="668" yMax="777">
      <contour>
        <pt x="50" y="774" on="1"/>
        <pt x="202" y="774" on="1"/>
        <pt x="202" y="149" on="1"/>
        <pt x="667" y="149" on="1"/>
        <pt x="668" y="-3" on="1"/>
        <pt x="51" y="-3" on="1"/>
        <pt x="51" y="-2" on="1"/>
        <pt x="50" y="-2" on="1"/>
      </contour>
      <contour>
        <pt x="252" y="520" on="1"/>
        <pt x="252" y="777" on="1"/>
        <pt x="404" y="777" on="1"/>
        <pt x="359" y="520" on="1"/>
      </contour>
    </TTGlyph>
    <TTGlyph name="Ldot" xMin="50" yMin="-3" xMax="668" yMax="774">
      <component glyphName="periodcentered" x="233" y="-84" flags="0x4"/>
      <component glyphName="L" x="0" y="0" flags="0x204"/>
    </TTGlyph>
    <TTGlyph name="Ldot.0" xMin="50" yMin="-3" xMax="668" yMax="774">
      <component glyphName="Ldot" x="0" y="0" flags="0x204"/>
    </TTGlyph>
    <TTGlyph name="Ldot.1" xMin="50" yMin="-3" xMax="668" yMax="774">
      <component glyphName="Ldot" x="0" y="0" flags="0x204"/>
    </TTGlyph>
    <TTGlyph name="Ldot.2" xMin="50" yMin="-3" xMax="668" yMax="774">
      <contour>
        <pt x="283" y="314" on="1"/>
        <pt x="283" y="456" on="1"/>
        <pt x="435" y="456" on="1"/>
        <pt x="435" y="314" on="1"/>
      </contour>
      <contour>
        <pt x="50" y="774" on="1"/>
        <pt x="202" y="774" on="1"/>
        <pt x="202" y="149" on="1"/>
        <pt x="667" y="149" on="1"/>
        <pt x="668" y="-3" on="1"/>
        <pt x="51" y="-3" on="1"/>
        <pt x="51" y="-2" on="1"/>
        <pt x="50" y="-2" on="1"/>
      </contour>
    </TTGlyph>
    <TTGlyph name="Lslash" xMin="50" yMin="-3" xMax="819" yMax="774">
      <contour>
        <pt x="50" y="494" on="1"/>
        <pt x="507" y="630" on="1"/>
        <pt x="508" y="478" on="1"/>
        <pt x="50" y="342" on="1"/>
      </contour>
      <contour>
        <pt x="201" y="774" on="1"/>
        <pt x="353" y="774" on="1"/>
        <pt x="353" y="149" on="1"/>
        <pt x="818" y="149" on="1"/>
        <pt x="819" y="-3" on="1"/>
        <pt x="202" y="-3" on="1"/>
        <pt x="202" y="-2" on="1"/>
        <pt x="201" y="-2" on="1"/>
      </contour>
    </TTGlyph>
    <TTGlyph name="Lslash.0" xMin="50" yMin="-3" xMax="819" yMax="774">
      <component glyphName="Lslash" x="0" y="0" flags="0x204"/>
    </TTGlyph>
    <TTGlyph name="Lslash.1" xMin="50" yMin="-3" xMax="819" yMax="774">
      <component glyphName="Lslash" x="0" y="0" flags="0x204"/>
    </TTGlyph>
    <TTGlyph name="Lslash.2" xMin="50" yMin="-6" xMax="819" yMax="771">
      <contour>
        <pt x="50" y="491" on="1"/>
        <pt x="507" y="627" on="1"/>
        <pt x="508" y="475" on="1"/>
        <pt x="50" y="339" on="1"/>
      </contour>
      <contour>
        <pt x="201" y="771" on="1"/>
        <pt x="353" y="771" on="1"/>
        <pt x="353" y="146" on="1"/>
        <pt x="818" y="146" on="1"/>
        <pt x="819" y="-6" on="1"/>
        <pt x="202" y="-6" on="1"/>
        <pt x="202" y="-5" on="1"/>
        <pt x="201" y="-5" on="1"/>
      </contour>
    </TTGlyph>
    <TTGlyph name="M" xMin="50" yMin="-2" xMax="1002" yMax="768">
      <contour>
        <pt x="50" y="768" on="1"/>
        <pt x="202" y="768" on="1"/>
        <pt x="526" y="146" on="1"/>
        <pt x="850" y="768" on="1"/>
        <pt x="1002" y="768" on="1"/>
        <pt x="1002" y="-2" on="1"/>
        <pt x="850" y="-2" on="1"/>
        <pt x="850" y="476" on="1"/>
        <pt x="602" y="0" on="1"/>
        <pt x="450" y="0" on="1"/>
        <pt x="202" y="476" on="1"/>
        <pt x="202" y="-2" on="1"/>
        <pt x="50" y="-2" on="1"/>
      </contour>
    </TTGlyph>
    <TTGlyph name="M.0" xMin="50" yMin="-2" xMax="1002" yMax="768">
      <component glyphName="M" x="0" y="0" flags="0x204"/>
    </TTGlyph>
    <TTGlyph name="M.1" xMin="50" yMin="-2" xMax="1002" yMax="768">
      <component glyphName="M" x="0" y="0" flags="0x204"/>
    </TTGlyph>
    <TTGlyph name="M.2" xMin="50" yMin="-2" xMax="1002" yMax="768">
      <contour>
        <pt x="50" y="768" on="1"/>
        <pt x="202" y="768" on="1"/>
        <pt x="526" y="146" on="1"/>
        <pt x="850" y="768" on="1"/>
        <pt x="1002" y="768" on="1"/>
        <pt x="1002" y="-2" on="1"/>
        <pt x="850" y="-2" on="1"/>
        <pt x="850" y="476" on="1"/>
        <pt x="602" y="0" on="1"/>
        <pt x="450" y="0" on="1"/>
        <pt x="202" y="476" on="1"/>
        <pt x="202" y="-2" on="1"/>
        <pt x="50" y="-2" on="1"/>
      </contour>
    </TTGlyph>
    <TTGlyph name="N" xMin="50" yMin="-2" xMax="802" yMax="774">
      <contour>
        <pt x="50" y="774" on="1"/>
        <pt x="202" y="774" on="1"/>
        <pt x="650" y="251" on="1"/>
        <pt x="650" y="774" on="1"/>
        <pt x="802" y="774" on="1"/>
        <pt x="802" y="-2" on="1"/>
        <pt x="650" y="-2" on="1"/>
        <pt x="202" y="523" on="1"/>
        <pt x="202" y="-2" on="1"/>
        <pt x="50" y="-2" on="1"/>
      </contour>
    </TTGlyph>
    <TTGlyph name="N.0" xMin="50" yMin="-2" xMax="802" yMax="774">
      <component glyphName="N" x="0" y="0" flags="0x204"/>
    </TTGlyph>
    <TTGlyph name="N.1" xMin="50" yMin="-2" xMax="802" yMax="774">
      <component glyphName="N" x="0" y="0" flags="0x204"/>
    </TTGlyph>
    <TTGlyph name="N.2" xMin="50" yMin="-2" xMax="802" yMax="774">
      <contour>
        <pt x="50" y="774" on="1"/>
        <pt x="202" y="774" on="1"/>
        <pt x="650" y="251" on="1"/>
        <pt x="650" y="774" on="1"/>
        <pt x="802" y="774" on="1"/>
        <pt x="802" y="-2" on="1"/>
        <pt x="650" y="-2" on="1"/>
        <pt x="202" y="523" on="1"/>
        <pt x="202" y="-2" on="1"/>
        <pt x="50" y="-2" on="1"/>
      </contour>
    </TTGlyph>
    <TTGlyph name="Nacute" xMin="50" yMin="-2" xMax="802" yMax="1090">
      <component glyphName="acutecomb" x="229" y="285" flags="0x4"/>
      <component glyphName="N" x="0" y="0" flags="0x204"/>
    </TTGlyph>
    <TTGlyph name="Nacute.0" xMin="50" yMin="-2" xMax="802" yMax="1090">
      <component glyphName="Nacute" x="0" y="0" flags="0x204"/>
    </TTGlyph>
    <TTGlyph name="Nacute.1" xMin="50" yMin="-2" xMax="802" yMax="1090">
      <component glyphName="Nacute" x="0" y="0" flags="0x204"/>
    </TTGlyph>
    <TTGlyph name="Nacute.2" xMin="50" yMin="-2" xMax="802" yMax="1090">
      <contour>
        <pt x="192" y="801" on="1"/>
        <pt x="84" y="908" on="1"/>
        <pt x="266" y="1090" on="1"/>
        <pt x="374" y="983" on="1"/>
      </contour>
      <contour>
        <pt x="50" y="774" on="1"/>
        <pt x="202" y="774" on="1"/>
        <pt x="650" y="251" on="1"/>
        <pt x="650" y="774" on="1"/>
        <pt x="802" y="774" on="1"/>
        <pt x="802" y="-2" on="1"/>
        <pt x="650" y="-2" on="1"/>
        <pt x="202" y="523" on="1"/>
        <pt x="202" y="-2" on="1"/>
        <pt x="50" y="-2" on="1"/>
      </contour>
    </TTGlyph>
    <TTGlyph name="Ncaron" xMin="50" yMin="-2" xMax="802" yMax="1002">
      <component glyphName="uni030C" x="426" y="68" flags="0x4"/>
      <component glyphName="N" x="0" y="0" flags="0x204"/>
    </TTGlyph>
    <TTGlyph name="Ncaron.0" xMin="50" yMin="-2" xMax="802" yMax="1002">
      <component glyphName="Ncaron" x="0" y="0" flags="0x204"/>
    </TTGlyph>
    <TTGlyph name="Ncaron.1" xMin="50" yMin="-2" xMax="802" yMax="1002">
      <component glyphName="Ncaron" x="0" y="0" flags="0x204"/>
    </TTGlyph>
    <TTGlyph name="Ncaron.2" xMin="50" yMin="-2" xMax="802" yMax="1002">
      <contour>
        <pt x="326" y="1002" on="1"/>
        <pt x="402" y="1002" on="1"/>
        <pt x="430" y="894" on="1"/>
        <pt x="450" y="1002" on="1"/>
        <pt x="526" y="1002" on="1"/>
        <pt x="474" y="834" on="1"/>
        <pt x="473" y="834" on="1"/>
        <pt x="398" y="834" on="1"/>
        <pt x="397" y="834" on="1"/>
      </contour>
      <contour>
        <pt x="50" y="774" on="1"/>
        <pt x="202" y="774" on="1"/>
        <pt x="650" y="251" on="1"/>
        <pt x="650" y="774" on="1"/>
        <pt x="802" y="774" on="1"/>
        <pt x="802" y="-2" on="1"/>
        <pt x="650" y="-2" on="1"/>
        <pt x="202" y="523" on="1"/>
        <pt x="202" y="-2" on="1"/>
        <pt x="50" y="-2" on="1"/>
      </contour>
    </TTGlyph>
    <TTGlyph name="Ntilde" xMin="50" yMin="-2" xMax="802" yMax="951">
      <component glyphName="tildecomb" x="426" y="32" flags="0x4"/>
      <component glyphName="N" x="0" y="0" flags="0x204"/>
    </TTGlyph>
    <TTGlyph name="Ntilde.0" xMin="50" yMin="-2" xMax="802" yMax="951">
      <component glyphName="Ntilde" x="0" y="0" flags="0x204"/>
    </TTGlyph>
    <TTGlyph name="Ntilde.1" xMin="50" yMin="-2" xMax="802" yMax="951">
      <component glyphName="Ntilde" x="0" y="0" flags="0x204"/>
    </TTGlyph>
    <TTGlyph name="Ntilde.2" xMin="50" yMin="-2" xMax="802" yMax="951">
      <contour>
        <pt x="551" y="951" on="1"/>
        <pt x="551" y="875" on="1"/>
        <pt x="550" y="873" on="0"/>
        <pt x="543" y="864" on="1"/>
        <pt x="535" y="855" on="0"/>
        <pt x="519" y="845" on="1"/>
        <pt x="503" y="834" on="0"/>
        <pt x="487" y="834" on="1"/>
        <pt x="437" y="834" on="1"/>
        <pt x="421" y="834" on="0"/>
        <pt x="399" y="848" on="1"/>
        <pt x="376" y="862" on="0"/>
        <pt x="360" y="862" on="1"/>
        <pt x="349" y="862" on="0"/>
        <pt x="334" y="855" on="1"/>
        <pt x="319" y="848" on="0"/>
        <pt x="310" y="841" on="1"/>
        <pt x="301" y="834" on="1"/>
        <pt x="301" y="910" on="1"/>
        <pt x="333" y="938" on="0"/>
        <pt x="358" y="938" on="1"/>
        <pt x="375" y="938" on="0"/>
        <pt x="399" y="925" on="1"/>
        <pt x="422" y="911" on="0"/>
        <pt x="438" y="911" on="1"/>
        <pt x="455" y="911" on="0"/>
        <pt x="467" y="911" on="0"/>
        <pt x="483" y="911" on="1"/>
        <pt x="498" y="911" on="0"/>
        <pt x="515" y="921" on="1"/>
        <pt x="532" y="931" on="0"/>
        <pt x="541" y="941" on="1"/>
      </contour>
      <contour>
        <pt x="50" y="774" on="1"/>
        <pt x="202" y="774" on="1"/>
        <pt x="650" y="251" on="1"/>
        <pt x="650" y="774" on="1"/>
        <pt x="802" y="774" on="1"/>
        <pt x="802" y="-2" on="1"/>
        <pt x="650" y="-2" on="1"/>
        <pt x="202" y="523" on="1"/>
        <pt x="202" y="-2" on="1"/>
        <pt x="50" y="-2" on="1"/>
      </contour>
    </TTGlyph>
    <TTGlyph name="O" xMin="50" yMin="-14" xMax="814" yMax="773">
      <contour>
        <pt x="661" y="378" on="1"/>
        <pt x="661" y="475" on="0"/>
        <pt x="594" y="544" on="1"/>
        <pt x="527" y="612" on="0"/>
        <pt x="432" y="612" on="1"/>
        <pt x="337" y="612" on="0"/>
        <pt x="270" y="544" on="1"/>
        <pt x="203" y="475" on="0"/>
        <pt x="203" y="378" on="1"/>
        <pt x="203" y="280" on="0"/>
        <pt x="270" y="212" on="1"/>
        <pt x="337" y="143" on="0"/>
        <pt x="432" y="143" on="1"/>
        <pt x="527" y="143" on="0"/>
        <pt x="594" y="212" on="1"/>
        <pt x="661" y="280" on="0"/>
      </contour>
      <contour>
        <pt x="814" y="380" on="1"/>
        <pt x="814" y="217" on="0"/>
        <pt x="702" y="102" on="1"/>
        <pt x="590" y="-14" on="0"/>
        <pt x="432" y="-14" on="1"/>
        <pt x="274" y="-14" on="0"/>
        <pt x="162" y="102" on="1"/>
        <pt x="50" y="217" on="0"/>
        <pt x="50" y="380" on="1"/>
        <pt x="50" y="543" on="0"/>
        <pt x="162" y="658" on="1"/>
        <pt x="274" y="773" on="0"/>
        <pt x="432" y="773" on="1"/>
        <pt x="590" y="773" on="0"/>
        <pt x="702" y="658" on="1"/>
        <pt x="814" y="543" on="0"/>
      </contour>
    </TTGlyph>
    <TTGlyph name="O.0" xMin="50" yMin="-14" xMax="814" yMax="773">
      <component glyphName="O" x="0" y="0" flags="0x204"/>
    </TTGlyph>
    <TTGlyph name="O.1" xMin="50" yMin="-14" xMax="814" yMax="773">
      <component glyphName="O" x="0" y="0" flags="0x204"/>
    </TTGlyph>
    <TTGlyph name="O.2" xMin="50" yMin="-14" xMax="814" yMax="773">
      <contour>
        <pt x="661" y="378" on="1"/>
        <pt x="661" y="475" on="0"/>
        <pt x="594" y="544" on="1"/>
        <pt x="527" y="612" on="0"/>
        <pt x="432" y="612" on="1"/>
        <pt x="337" y="612" on="0"/>
        <pt x="270" y="544" on="1"/>
        <pt x="203" y="475" on="0"/>
        <pt x="203" y="378" on="1"/>
        <pt x="203" y="280" on="0"/>
        <pt x="270" y="212" on="1"/>
        <pt x="337" y="143" on="0"/>
        <pt x="432" y="143" on="1"/>
        <pt x="527" y="143" on="0"/>
        <pt x="594" y="212" on="1"/>
        <pt x="661" y="280" on="0"/>
      </contour>
      <contour>
        <pt x="814" y="380" on="1"/>
        <pt x="814" y="217" on="0"/>
        <pt x="702" y="102" on="1"/>
        <pt x="590" y="-14" on="0"/>
        <pt x="432" y="-14" on="1"/>
        <pt x="274" y="-14" on="0"/>
        <pt x="162" y="102" on="1"/>
        <pt x="50" y="217" on="0"/>
        <pt x="50" y="380" on="1"/>
        <pt x="50" y="543" on="0"/>
        <pt x="162" y="658" on="1"/>
        <pt x="274" y="773" on="0"/>
        <pt x="432" y="773" on="1"/>
        <pt x="590" y="773" on="0"/>
        <pt x="702" y="658" on="1"/>
        <pt x="814" y="543" on="0"/>
      </contour>
    </TTGlyph>
    <TTGlyph name="OE" xMin="50" yMin="-14" xMax="1018" yMax="778">
      <contour>
        <pt x="432" y="612" on="1"/>
        <pt x="337" y="612" on="0"/>
        <pt x="270" y="544" on="1"/>
        <pt x="203" y="475" on="0"/>
        <pt x="203" y="378" on="1"/>
        <pt x="203" y="280" on="0"/>
        <pt x="270" y="212" on="1"/>
        <pt x="337" y="143" on="0"/>
        <pt x="432" y="143" on="1"/>
        <pt x="441" y="143" on="0"/>
        <pt x="450" y="144" on="1"/>
        <pt x="450" y="611" on="1"/>
        <pt x="441" y="612" on="0"/>
      </contour>
      <contour>
        <pt x="909" y="485" on="1"/>
        <pt x="910" y="333" on="1"/>
        <pt x="602" y="333" on="1"/>
        <pt x="602" y="149" on="1"/>
        <pt x="1017" y="149" on="1"/>
        <pt x="1018" y="-3" on="1"/>
        <pt x="505" y="-3" on="1"/>
        <pt x="505" y="-7" on="1"/>
        <pt x="469" y="-14" on="0"/>
        <pt x="432" y="-14" on="1"/>
        <pt x="274" y="-14" on="0"/>
        <pt x="162" y="102" on="1"/>
        <pt x="50" y="217" on="0"/>
        <pt x="50" y="380" on="1"/>
        <pt x="50" y="543" on="0"/>
        <pt x="162" y="658" on="1"/>
        <pt x="274" y="773" on="0"/>
        <pt x="432" y="773" on="1"/>
        <pt x="439" y="773" on="0"/>
        <pt x="443" y="773" on="0"/>
        <pt x="450" y="773" on="1"/>
        <pt x="450" y="774" on="1"/>
        <pt x="450" y="778" on="1"/>
        <pt x="1017" y="778" on="1"/>
        <pt x="1018" y="626" on="1"/>
        <pt x="602" y="626" on="1"/>
        <pt x="602" y="485" on="1"/>
      </contour>
    </TTGlyph>
    <TTGlyph name="OE.0" xMin="50" yMin="-14" xMax="1018" yMax="778">
      <component glyphName="OE" x="0" y="0" flags="0x204"/>
    </TTGlyph>
    <TTGlyph name="OE.1" xMin="50" yMin="-14" xMax="1018" yMax="778">
      <component glyphName="OE" x="0" y="0" flags="0x204"/>
    </TTGlyph>
    <TTGlyph name="OE.2" xMin="50" yMin="-14" xMax="1018" yMax="778">
      <contour>
        <pt x="432" y="612" on="1"/>
        <pt x="337" y="612" on="0"/>
        <pt x="270" y="544" on="1"/>
        <pt x="203" y="475" on="0"/>
        <pt x="203" y="378" on="1"/>
        <pt x="203" y="280" on="0"/>
        <pt x="270" y="212" on="1"/>
        <pt x="337" y="143" on="0"/>
        <pt x="432" y="143" on="1"/>
        <pt x="441" y="143" on="0"/>
        <pt x="450" y="144" on="1"/>
        <pt x="450" y="611" on="1"/>
        <pt x="441" y="612" on="0"/>
      </contour>
      <contour>
        <pt x="909" y="485" on="1"/>
        <pt x="910" y="333" on="1"/>
        <pt x="602" y="333" on="1"/>
        <pt x="602" y="149" on="1"/>
        <pt x="1017" y="149" on="1"/>
        <pt x="1018" y="-3" on="1"/>
        <pt x="505" y="-3" on="1"/>
        <pt x="505" y="-7" on="1"/>
        <pt x="469" y="-14" on="0"/>
        <pt x="432" y="-14" on="1"/>
        <pt x="274" y="-14" on="0"/>
        <pt x="162" y="102" on="1"/>
        <pt x="50" y="217" on="0"/>
        <pt x="50" y="380" on="1"/>
        <pt x="50" y="543" on="0"/>
        <pt x="162" y="658" on="1"/>
        <pt x="274" y="773" on="0"/>
        <pt x="432" y="773" on="1"/>
        <pt x="439" y="773" on="0"/>
        <pt x="443" y="773" on="0"/>
        <pt x="450" y="773" on="1"/>
        <pt x="450" y="774" on="1"/>
        <pt x="450" y="778" on="1"/>
        <pt x="1017" y="778" on="1"/>
        <pt x="1018" y="626" on="1"/>
        <pt x="602" y="626" on="1"/>
        <pt x="602" y="485" on="1"/>
      </contour>
    </TTGlyph>
    <TTGlyph name="Oacute" xMin="50" yMin="-14" xMax="814" yMax="1122">
      <component glyphName="acutecomb" x="469" y="317" flags="0x4"/>
      <component glyphName="O" x="0" y="0" flags="0x204"/>
    </TTGlyph>
    <TTGlyph name="Oacute.0" xMin="50" yMin="-14" xMax="814" yMax="1122">
      <component glyphName="Oacute" x="0" y="0" flags="0x204"/>
    </TTGlyph>
    <TTGlyph name="Oacute.1" xMin="50" yMin="-14" xMax="814" yMax="1122">
      <component glyphName="Oacute" x="0" y="0" flags="0x204"/>
    </TTGlyph>
    <TTGlyph name="Oacute.2" xMin="50" yMin="-14" xMax="814" yMax="1122">
      <contour>
        <pt x="432" y="833" on="1"/>
        <pt x="324" y="940" on="1"/>
        <pt x="506" y="1122" on="1"/>
        <pt x="614" y="1015" on="1"/>
      </contour>
      <contour>
        <pt x="661" y="378" on="1"/>
        <pt x="661" y="475" on="0"/>
        <pt x="594" y="544" on="1"/>
        <pt x="527" y="612" on="0"/>
        <pt x="432" y="612" on="1"/>
        <pt x="337" y="612" on="0"/>
        <pt x="270" y="544" on="1"/>
        <pt x="203" y="475" on="0"/>
        <pt x="203" y="378" on="1"/>
        <pt x="203" y="280" on="0"/>
        <pt x="270" y="212" on="1"/>
        <pt x="337" y="143" on="0"/>
        <pt x="432" y="143" on="1"/>
        <pt x="527" y="143" on="0"/>
        <pt x="594" y="212" on="1"/>
        <pt x="661" y="280" on="0"/>
      </contour>
      <contour>
        <pt x="814" y="380" on="1"/>
        <pt x="814" y="217" on="0"/>
        <pt x="702" y="102" on="1"/>
        <pt x="590" y="-14" on="0"/>
        <pt x="432" y="-14" on="1"/>
        <pt x="274" y="-14" on="0"/>
        <pt x="162" y="102" on="1"/>
        <pt x="50" y="217" on="0"/>
        <pt x="50" y="380" on="1"/>
        <pt x="50" y="543" on="0"/>
        <pt x="162" y="658" on="1"/>
        <pt x="274" y="773" on="0"/>
        <pt x="432" y="773" on="1"/>
        <pt x="590" y="773" on="0"/>
        <pt x="702" y="658" on="1"/>
        <pt x="814" y="543" on="0"/>
      </contour>
    </TTGlyph>
    <TTGlyph name="Obreve" xMin="50" yMin="-14" xMax="814" yMax="957">
      <component glyphName="uni0306" x="432" y="25" flags="0x4"/>
      <component glyphName="O" x="0" y="0" flags="0x204"/>
    </TTGlyph>
    <TTGlyph name="Obreve.0" xMin="50" yMin="-14" xMax="814" yMax="957">
      <component glyphName="Obreve" x="0" y="0" flags="0x204"/>
    </TTGlyph>
    <TTGlyph name="Obreve.1" xMin="50" yMin="-14" xMax="814" yMax="957">
      <component glyphName="Obreve" x="0" y="0" flags="0x204"/>
    </TTGlyph>
    <TTGlyph name="Obreve.2" xMin="50" yMin="-14" xMax="814" yMax="957">
      <contour>
        <pt x="560" y="957" on="1"/>
        <pt x="560" y="943" on="1"/>
        <pt x="560" y="890" on="0"/>
        <pt x="523" y="853" on="1"/>
        <pt x="486" y="815" on="0"/>
        <pt x="432" y="815" on="1"/>
        <pt x="378" y="815" on="0"/>
        <pt x="341" y="852" on="1"/>
        <pt x="304" y="889" on="0"/>
        <pt x="304" y="943" on="1"/>
        <pt x="304" y="957" on="1"/>
        <pt x="380" y="957" on="1"/>
        <pt x="378" y="949" on="0"/>
        <pt x="378" y="943" on="1"/>
        <pt x="378" y="921" on="0"/>
        <pt x="394" y="905" on="1"/>
        <pt x="410" y="889" on="0"/>
        <pt x="433" y="889" on="1"/>
        <pt x="455" y="889" on="0"/>
        <pt x="471" y="905" on="1"/>
        <pt x="486" y="921" on="0"/>
        <pt x="486" y="943" on="1"/>
        <pt x="486" y="949" on="0"/>
        <pt x="484" y="957" on="1"/>
      </contour>
      <contour>
        <pt x="661" y="378" on="1"/>
        <pt x="661" y="475" on="0"/>
        <pt x="594" y="544" on="1"/>
        <pt x="527" y="612" on="0"/>
        <pt x="432" y="612" on="1"/>
        <pt x="337" y="612" on="0"/>
        <pt x="270" y="544" on="1"/>
        <pt x="203" y="475" on="0"/>
        <pt x="203" y="378" on="1"/>
        <pt x="203" y="280" on="0"/>
        <pt x="270" y="212" on="1"/>
        <pt x="337" y="143" on="0"/>
        <pt x="432" y="143" on="1"/>
        <pt x="527" y="143" on="0"/>
        <pt x="594" y="212" on="1"/>
        <pt x="661" y="280" on="0"/>
      </contour>
      <contour>
        <pt x="814" y="380" on="1"/>
        <pt x="814" y="217" on="0"/>
        <pt x="702" y="102" on="1"/>
        <pt x="590" y="-14" on="0"/>
        <pt x="432" y="-14" on="1"/>
        <pt x="274" y="-14" on="0"/>
        <pt x="162" y="102" on="1"/>
        <pt x="50" y="217" on="0"/>
        <pt x="50" y="380" on="1"/>
        <pt x="50" y="543" on="0"/>
        <pt x="162" y="658" on="1"/>
        <pt x="274" y="773" on="0"/>
        <pt x="432" y="773" on="1"/>
        <pt x="590" y="773" on="0"/>
        <pt x="702" y="658" on="1"/>
        <pt x="814" y="543" on="0"/>
      </contour>
    </TTGlyph>
    <TTGlyph name="Ocircumflex" xMin="50" yMin="-14" xMax="814" yMax="1000">
      <component glyphName="uni0302" x="432" y="66" flags="0x4"/>
      <component glyphName="O" x="0" y="0" flags="0x204"/>
    </TTGlyph>
    <TTGlyph name="Ocircumflex.0" xMin="50" yMin="-14" xMax="814" yMax="1000">
      <component glyphName="Ocircumflex" x="0" y="0" flags="0x204"/>
    </TTGlyph>
    <TTGlyph name="Ocircumflex.1" xMin="50" yMin="-14" xMax="814" yMax="1000">
      <component glyphName="Ocircumflex" x="0" y="0" flags="0x204"/>
    </TTGlyph>
    <TTGlyph name="Ocircumflex.2" xMin="50" yMin="-14" xMax="814" yMax="1000">
      <contour>
        <pt x="332" y="832" on="1"/>
        <pt x="403" y="1000" on="1"/>
        <pt x="404" y="1000" on="1"/>
        <pt x="479" y="1000" on="1"/>
        <pt x="480" y="1000" on="1"/>
        <pt x="532" y="832" on="1"/>
        <pt x="456" y="832" on="1"/>
        <pt x="436" y="940" on="1"/>
        <pt x="408" y="832" on="1"/>
      </contour>
      <contour>
        <pt x="661" y="378" on="1"/>
        <pt x="661" y="475" on="0"/>
        <pt x="594" y="544" on="1"/>
        <pt x="527" y="612" on="0"/>
        <pt x="432" y="612" on="1"/>
        <pt x="337" y="612" on="0"/>
        <pt x="270" y="544" on="1"/>
        <pt x="203" y="475" on="0"/>
        <pt x="203" y="378" on="1"/>
        <pt x="203" y="280" on="0"/>
        <pt x="270" y="212" on="1"/>
        <pt x="337" y="143" on="0"/>
        <pt x="432" y="143" on="1"/>
        <pt x="527" y="143" on="0"/>
        <pt x="594" y="212" on="1"/>
        <pt x="661" y="280" on="0"/>
      </contour>
      <contour>
        <pt x="814" y="380" on="1"/>
        <pt x="814" y="217" on="0"/>
        <pt x="702" y="102" on="1"/>
        <pt x="590" y="-14" on="0"/>
        <pt x="432" y="-14" on="1"/>
        <pt x="274" y="-14" on="0"/>
        <pt x="162" y="102" on="1"/>
        <pt x="50" y="217" on="0"/>
        <pt x="50" y="380" on="1"/>
        <pt x="50" y="543" on="0"/>
        <pt x="162" y="658" on="1"/>
        <pt x="274" y="773" on="0"/>
        <pt x="432" y="773" on="1"/>
        <pt x="590" y="773" on="0"/>
        <pt x="702" y="658" on="1"/>
        <pt x="814" y="543" on="0"/>
      </contour>
    </TTGlyph>
    <TTGlyph name="Odieresis" xMin="50" yMin="-14" xMax="814" yMax="975">
      <component glyphName="uni0308" x="432" y="335" flags="0x4"/>
      <component glyphName="O" x="0" y="0" flags="0x204"/>
    </TTGlyph>
    <TTGlyph name="Odieresis.0" xMin="50" yMin="-14" xMax="814" yMax="975">
      <component glyphName="Odieresis" x="0" y="0" flags="0x204"/>
    </TTGlyph>
    <TTGlyph name="Odieresis.1" xMin="50" yMin="-14" xMax="814" yMax="975">
      <component glyphName="Odieresis" x="0" y="0" flags="0x204"/>
    </TTGlyph>
    <TTGlyph name="Odieresis.2" xMin="50" yMin="-14" xMax="814" yMax="975">
      <contour>
        <pt x="256" y="833" on="1"/>
        <pt x="256" y="975" on="1"/>
        <pt x="408" y="975" on="1"/>
        <pt x="408" y="833" on="1"/>
      </contour>
      <contour>
        <pt x="456" y="833" on="1"/>
        <pt x="456" y="975" on="1"/>
        <pt x="608" y="975" on="1"/>
        <pt x="608" y="833" on="1"/>
      </contour>
      <contour>
        <pt x="661" y="378" on="1"/>
        <pt x="661" y="475" on="0"/>
        <pt x="594" y="544" on="1"/>
        <pt x="527" y="612" on="0"/>
        <pt x="432" y="612" on="1"/>
        <pt x="337" y="612" on="0"/>
        <pt x="270" y="544" on="1"/>
        <pt x="203" y="475" on="0"/>
        <pt x="203" y="378" on="1"/>
        <pt x="203" y="280" on="0"/>
        <pt x="270" y="212" on="1"/>
        <pt x="337" y="143" on="0"/>
        <pt x="432" y="143" on="1"/>
        <pt x="527" y="143" on="0"/>
        <pt x="594" y="212" on="1"/>
        <pt x="661" y="280" on="0"/>
      </contour>
      <contour>
        <pt x="814" y="380" on="1"/>
        <pt x="814" y="217" on="0"/>
        <pt x="702" y="102" on="1"/>
        <pt x="590" y="-14" on="0"/>
        <pt x="432" y="-14" on="1"/>
        <pt x="274" y="-14" on="0"/>
        <pt x="162" y="102" on="1"/>
        <pt x="50" y="217" on="0"/>
        <pt x="50" y="380" on="1"/>
        <pt x="50" y="543" on="0"/>
        <pt x="162" y="658" on="1"/>
        <pt x="274" y="773" on="0"/>
        <pt x="432" y="773" on="1"/>
        <pt x="590" y="773" on="0"/>
        <pt x="702" y="658" on="1"/>
        <pt x="814" y="543" on="0"/>
      </contour>
    </TTGlyph>
    <TTGlyph name="Ograve" xMin="50" yMin="-14" xMax="814" yMax="1122">
      <component glyphName="gravecomb" x="395" y="317" flags="0x4"/>
      <component glyphName="O" x="0" y="0" flags="0x204"/>
    </TTGlyph>
    <TTGlyph name="Ograve.0" xMin="50" yMin="-14" xMax="814" yMax="1122">
      <component glyphName="Ograve" x="0" y="0" flags="0x204"/>
    </TTGlyph>
    <TTGlyph name="Ograve.1" xMin="50" yMin="-14" xMax="814" yMax="1122">
      <component glyphName="Ograve" x="0" y="0" flags="0x204"/>
    </TTGlyph>
    <TTGlyph name="Ograve.2" xMin="50" yMin="-14" xMax="814" yMax="1122">
      <contour>
        <pt x="432" y="833" on="1"/>
        <pt x="250" y="1015" on="1"/>
        <pt x="358" y="1122" on="1"/>
        <pt x="540" y="940" on="1"/>
      </contour>
      <contour>
        <pt x="661" y="378" on="1"/>
        <pt x="661" y="475" on="0"/>
        <pt x="594" y="544" on="1"/>
        <pt x="527" y="612" on="0"/>
        <pt x="432" y="612" on="1"/>
        <pt x="337" y="612" on="0"/>
        <pt x="270" y="544" on="1"/>
        <pt x="203" y="475" on="0"/>
        <pt x="203" y="378" on="1"/>
        <pt x="203" y="280" on="0"/>
        <pt x="270" y="212" on="1"/>
        <pt x="337" y="143" on="0"/>
        <pt x="432" y="143" on="1"/>
        <pt x="527" y="143" on="0"/>
        <pt x="594" y="212" on="1"/>
        <pt x="661" y="280" on="0"/>
      </contour>
      <contour>
        <pt x="814" y="380" on="1"/>
        <pt x="814" y="217" on="0"/>
        <pt x="702" y="102" on="1"/>
        <pt x="590" y="-14" on="0"/>
        <pt x="432" y="-14" on="1"/>
        <pt x="274" y="-14" on="0"/>
        <pt x="162" y="102" on="1"/>
        <pt x="50" y="217" on="0"/>
        <pt x="50" y="380" on="1"/>
        <pt x="50" y="543" on="0"/>
        <pt x="162" y="658" on="1"/>
        <pt x="274" y="773" on="0"/>
        <pt x="432" y="773" on="1"/>
        <pt x="590" y="773" on="0"/>
        <pt x="702" y="658" on="1"/>
        <pt x="814" y="543" on="0"/>
      </contour>
    </TTGlyph>
    <TTGlyph name="Ohungarumlaut" xMin="50" yMin="-14" xMax="814" yMax="1124">
      <component glyphName="uni030B" x="469" y="319" flags="0x4"/>
      <component glyphName="O" x="0" y="0" flags="0x204"/>
    </TTGlyph>
    <TTGlyph name="Ohungarumlaut.0" xMin="50" yMin="-14" xMax="814" yMax="1124">
      <component glyphName="Ohungarumlaut" x="0" y="0" flags="0x204"/>
    </TTGlyph>
    <TTGlyph name="Ohungarumlaut.1" xMin="50" yMin="-14" xMax="814" yMax="1124">
      <component glyphName="Ohungarumlaut" x="0" y="0" flags="0x204"/>
    </TTGlyph>
    <TTGlyph name="Ohungarumlaut.2" xMin="50" yMin="-14" xMax="814" yMax="1124">
      <contour>
        <pt x="289" y="835" on="1"/>
        <pt x="181" y="942" on="1"/>
        <pt x="363" y="1124" on="1"/>
        <pt x="471" y="1017" on="1"/>
      </contour>
      <contour>
        <pt x="575" y="833" on="1"/>
        <pt x="467" y="940" on="1"/>
        <pt x="649" y="1122" on="1"/>
        <pt x="757" y="1015" on="1"/>
      </contour>
      <contour>
        <pt x="661" y="378" on="1"/>
        <pt x="661" y="475" on="0"/>
        <pt x="594" y="544" on="1"/>
        <pt x="527" y="612" on="0"/>
        <pt x="432" y="612" on="1"/>
        <pt x="337" y="612" on="0"/>
        <pt x="270" y="544" on="1"/>
        <pt x="203" y="475" on="0"/>
        <pt x="203" y="378" on="1"/>
        <pt x="203" y="280" on="0"/>
        <pt x="270" y="212" on="1"/>
        <pt x="337" y="143" on="0"/>
        <pt x="432" y="143" on="1"/>
        <pt x="527" y="143" on="0"/>
        <pt x="594" y="212" on="1"/>
        <pt x="661" y="280" on="0"/>
      </contour>
      <contour>
        <pt x="814" y="380" on="1"/>
        <pt x="814" y="217" on="0"/>
        <pt x="702" y="102" on="1"/>
        <pt x="590" y="-14" on="0"/>
        <pt x="432" y="-14" on="1"/>
        <pt x="274" y="-14" on="0"/>
        <pt x="162" y="102" on="1"/>
        <pt x="50" y="217" on="0"/>
        <pt x="50" y="380" on="1"/>
        <pt x="50" y="543" on="0"/>
        <pt x="162" y="658" on="1"/>
        <pt x="274" y="773" on="0"/>
        <pt x="432" y="773" on="1"/>
        <pt x="590" y="773" on="0"/>
        <pt x="702" y="658" on="1"/>
        <pt x="814" y="543" on="0"/>
      </contour>
    </TTGlyph>
    <TTGlyph name="Omacron" xMin="50" yMin="-14" xMax="814" yMax="909">
      <component glyphName="uni0304" x="432" y="51" flags="0x4"/>
      <component glyphName="O" x="0" y="0" flags="0x204"/>
    </TTGlyph>
    <TTGlyph name="Omacron.0" xMin="50" yMin="-14" xMax="814" yMax="909">
      <component glyphName="Omacron" x="0" y="0" flags="0x204"/>
    </TTGlyph>
    <TTGlyph name="Omacron.1" xMin="50" yMin="-14" xMax="814" yMax="909">
      <component glyphName="Omacron" x="0" y="0" flags="0x204"/>
    </TTGlyph>
    <TTGlyph name="Omacron.2" xMin="50" yMin="-14" xMax="814" yMax="909">
      <contour>
        <pt x="568" y="909" on="1"/>
        <pt x="568" y="833" on="1"/>
        <pt x="296" y="833" on="1"/>
        <pt x="296" y="909" on="1"/>
      </contour>
      <contour>
        <pt x="661" y="378" on="1"/>
        <pt x="661" y="475" on="0"/>
        <pt x="594" y="544" on="1"/>
        <pt x="527" y="612" on="0"/>
        <pt x="432" y="612" on="1"/>
        <pt x="337" y="612" on="0"/>
        <pt x="270" y="544" on="1"/>
        <pt x="203" y="475" on="0"/>
        <pt x="203" y="378" on="1"/>
        <pt x="203" y="280" on="0"/>
        <pt x="270" y="212" on="1"/>
        <pt x="337" y="143" on="0"/>
        <pt x="432" y="143" on="1"/>
        <pt x="527" y="143" on="0"/>
        <pt x="594" y="212" on="1"/>
        <pt x="661" y="280" on="0"/>
      </contour>
      <contour>
        <pt x="814" y="380" on="1"/>
        <pt x="814" y="217" on="0"/>
        <pt x="702" y="102" on="1"/>
        <pt x="590" y="-14" on="0"/>
        <pt x="432" y="-14" on="1"/>
        <pt x="274" y="-14" on="0"/>
        <pt x="162" y="102" on="1"/>
        <pt x="50" y="217" on="0"/>
        <pt x="50" y="380" on="1"/>
        <pt x="50" y="543" on="0"/>
        <pt x="162" y="658" on="1"/>
        <pt x="274" y="773" on="0"/>
        <pt x="432" y="773" on="1"/>
        <pt x="590" y="773" on="0"/>
        <pt x="702" y="658" on="1"/>
        <pt x="814" y="543" on="0"/>
      </contour>
    </TTGlyph>
    <TTGlyph name="Oslash" xMin="50" yMin="-83" xMax="814" yMax="818">
      <contour>
        <pt x="599" y="538" on="1"/>
        <pt x="375" y="150" on="1"/>
        <pt x="403" y="143" on="0"/>
        <pt x="432" y="143" on="1"/>
        <pt x="527" y="143" on="0"/>
        <pt x="594" y="212" on="1"/>
        <pt x="661" y="280" on="0"/>
        <pt x="661" y="378" on="1"/>
        <pt x="661" y="471" on="0"/>
      </contour>
      <contour>
        <pt x="495" y="603" on="1"/>
        <pt x="464" y="612" on="0"/>
        <pt x="432" y="612" on="1"/>
        <pt x="337" y="612" on="0"/>
        <pt x="270" y="544" on="1"/>
        <pt x="203" y="475" on="0"/>
        <pt x="203" y="378" on="1"/>
        <pt x="203" y="281" on="0"/>
        <pt x="269" y="212" on="1"/>
      </contour>
      <contour>
        <pt x="814" y="380" on="1"/>
        <pt x="814" y="217" on="0"/>
        <pt x="702" y="102" on="1"/>
        <pt x="590" y="-14" on="0"/>
        <pt x="432" y="-14" on="1"/>
        <pt x="361" y="-14" on="0"/>
        <pt x="295" y="12" on="1"/>
        <pt x="240" y="-83" on="1"/>
        <pt x="134" y="-22" on="1"/>
        <pt x="190" y="75" on="1"/>
        <pt x="125" y="130" on="0"/>
        <pt x="88" y="210" on="1"/>
        <pt x="50" y="289" on="0"/>
        <pt x="50" y="380" on="1"/>
        <pt x="50" y="543" on="0"/>
        <pt x="162" y="658" on="1"/>
        <pt x="274" y="773" on="0"/>
        <pt x="432" y="773" on="1"/>
        <pt x="507" y="773" on="0"/>
        <pt x="576" y="744" on="1"/>
        <pt x="619" y="818" on="1"/>
        <pt x="725" y="757" on="1"/>
        <pt x="680" y="679" on="1"/>
        <pt x="743" y="624" on="0"/>
        <pt x="779" y="546" on="1"/>
        <pt x="814" y="468" on="0"/>
      </contour>
    </TTGlyph>
    <TTGlyph name="Oslash.0" xMin="50" yMin="-83" xMax="814" yMax="818">
      <component glyphName="Oslash" x="0" y="0" flags="0x204"/>
    </TTGlyph>
    <TTGlyph name="Oslash.1" xMin="50" yMin="-83" xMax="814" yMax="818">
      <component glyphName="Oslash" x="0" y="0" flags="0x204"/>
    </TTGlyph>
    <TTGlyph name="Oslash.2" xMin="50" yMin="-83" xMax="814" yMax="818">
      <contour>
        <pt x="599" y="538" on="1"/>
        <pt x="375" y="150" on="1"/>
        <pt x="403" y="143" on="0"/>
        <pt x="432" y="143" on="1"/>
        <pt x="527" y="143" on="0"/>
        <pt x="594" y="212" on="1"/>
        <pt x="661" y="280" on="0"/>
        <pt x="661" y="378" on="1"/>
        <pt x="661" y="471" on="0"/>
      </contour>
      <contour>
        <pt x="495" y="603" on="1"/>
        <pt x="464" y="612" on="0"/>
        <pt x="432" y="612" on="1"/>
        <pt x="337" y="612" on="0"/>
        <pt x="270" y="544" on="1"/>
        <pt x="203" y="475" on="0"/>
        <pt x="203" y="378" on="1"/>
        <pt x="203" y="281" on="0"/>
        <pt x="269" y="212" on="1"/>
      </contour>
      <contour>
        <pt x="814" y="380" on="1"/>
        <pt x="814" y="217" on="0"/>
        <pt x="702" y="102" on="1"/>
        <pt x="590" y="-14" on="0"/>
        <pt x="432" y="-14" on="1"/>
        <pt x="361" y="-14" on="0"/>
        <pt x="295" y="12" on="1"/>
        <pt x="240" y="-83" on="1"/>
        <pt x="134" y="-22" on="1"/>
        <pt x="190" y="75" on="1"/>
        <pt x="125" y="130" on="0"/>
        <pt x="88" y="210" on="1"/>
        <pt x="50" y="289" on="0"/>
        <pt x="50" y="380" on="1"/>
        <pt x="50" y="543" on="0"/>
        <pt x="162" y="658" on="1"/>
        <pt x="274" y="773" on="0"/>
        <pt x="432" y="773" on="1"/>
        <pt x="507" y="773" on="0"/>
        <pt x="576" y="744" on="1"/>
        <pt x="619" y="818" on="1"/>
        <pt x="725" y="757" on="1"/>
        <pt x="680" y="679" on="1"/>
        <pt x="743" y="624" on="0"/>
        <pt x="779" y="546" on="1"/>
        <pt x="814" y="468" on="0"/>
      </contour>
    </TTGlyph>
    <TTGlyph name="Otilde" xMin="50" yMin="-14" xMax="814" yMax="950">
      <component glyphName="tildecomb" x="432" y="31" flags="0x4"/>
      <component glyphName="O" x="0" y="0" flags="0x204"/>
    </TTGlyph>
    <TTGlyph name="Otilde.0" xMin="50" yMin="-14" xMax="814" yMax="950">
      <component glyphName="Otilde" x="0" y="0" flags="0x204"/>
    </TTGlyph>
    <TTGlyph name="Otilde.1" xMin="50" yMin="-14" xMax="814" yMax="950">
      <component glyphName="Otilde" x="0" y="0" flags="0x204"/>
    </TTGlyph>
    <TTGlyph name="Otilde.2" xMin="50" yMin="-14" xMax="814" yMax="950">
      <contour>
        <pt x="557" y="950" on="1"/>
        <pt x="557" y="874" on="1"/>
        <pt x="556" y="872" on="0"/>
        <pt x="549" y="863" on="1"/>
        <pt x="541" y="854" on="0"/>
        <pt x="525" y="844" on="1"/>
        <pt x="509" y="833" on="0"/>
        <pt x="493" y="833" on="1"/>
        <pt x="443" y="833" on="1"/>
        <pt x="427" y="833" on="0"/>
        <pt x="405" y="847" on="1"/>
        <pt x="382" y="861" on="0"/>
        <pt x="366" y="861" on="1"/>
        <pt x="355" y="861" on="0"/>
        <pt x="340" y="854" on="1"/>
        <pt x="325" y="847" on="0"/>
        <pt x="316" y="840" on="1"/>
        <pt x="307" y="833" on="1"/>
        <pt x="307" y="909" on="1"/>
        <pt x="339" y="937" on="0"/>
        <pt x="364" y="937" on="1"/>
        <pt x="381" y="937" on="0"/>
        <pt x="405" y="924" on="1"/>
        <pt x="428" y="910" on="0"/>
        <pt x="444" y="910" on="1"/>
        <pt x="461" y="910" on="0"/>
        <pt x="473" y="910" on="0"/>
        <pt x="489" y="910" on="1"/>
        <pt x="504" y="910" on="0"/>
        <pt x="521" y="920" on="1"/>
        <pt x="538" y="930" on="0"/>
        <pt x="547" y="940" on="1"/>
      </contour>
      <contour>
        <pt x="661" y="378" on="1"/>
        <pt x="661" y="475" on="0"/>
        <pt x="594" y="544" on="1"/>
        <pt x="527" y="612" on="0"/>
        <pt x="432" y="612" on="1"/>
        <pt x="337" y="612" on="0"/>
        <pt x="270" y="544" on="1"/>
        <pt x="203" y="475" on="0"/>
        <pt x="203" y="378" on="1"/>
        <pt x="203" y="280" on="0"/>
        <pt x="270" y="212" on="1"/>
        <pt x="337" y="143" on="0"/>
        <pt x="432" y="143" on="1"/>
        <pt x="527" y="143" on="0"/>
        <pt x="594" y="212" on="1"/>
        <pt x="661" y="280" on="0"/>
      </contour>
      <contour>
        <pt x="814" y="380" on="1"/>
        <pt x="814" y="217" on="0"/>
        <pt x="702" y="102" on="1"/>
        <pt x="590" y="-14" on="0"/>
        <pt x="432" y="-14" on="1"/>
        <pt x="274" y="-14" on="0"/>
        <pt x="162" y="102" on="1"/>
        <pt x="50" y="217" on="0"/>
        <pt x="50" y="380" on="1"/>
        <pt x="50" y="543" on="0"/>
        <pt x="162" y="658" on="1"/>
        <pt x="274" y="773" on="0"/>
        <pt x="432" y="773" on="1"/>
        <pt x="590" y="773" on="0"/>
        <pt x="702" y="658" on="1"/>
        <pt x="814" y="543" on="0"/>
      </contour>
    </TTGlyph>
    <TTGlyph name="P" xMin="50" yMin="3" xMax="484" yMax="780">
      <contour>
        <pt x="202" y="626" on="1"/>
        <pt x="202" y="419" on="1"/>
        <pt x="214" y="416" on="0"/>
        <pt x="226" y="416" on="1"/>
        <pt x="271" y="416" on="0"/>
        <pt x="302" y="447" on="1"/>
        <pt x="333" y="478" on="0"/>
        <pt x="333" y="523" on="1"/>
        <pt x="333" y="567" on="0"/>
        <pt x="302" y="598" on="1"/>
        <pt x="271" y="629" on="0"/>
        <pt x="226" y="629" on="1"/>
        <pt x="214" y="629" on="0"/>
      </contour>
      <contour>
        <pt x="202" y="3" on="1"/>
        <pt x="50" y="3" on="1"/>
        <pt x="50" y="779" on="1"/>
        <pt x="202" y="779" on="1"/>
        <pt x="210" y="780" on="0"/>
        <pt x="226" y="780" on="1"/>
        <pt x="333" y="780" on="0"/>
        <pt x="409" y="705" on="1"/>
        <pt x="484" y="630" on="0"/>
        <pt x="484" y="523" on="1"/>
        <pt x="484" y="416" on="0"/>
        <pt x="409" y="341" on="1"/>
        <pt x="333" y="265" on="0"/>
        <pt x="226" y="265" on="1"/>
        <pt x="210" y="265" on="0"/>
        <pt x="202" y="266" on="1"/>
      </contour>
    </TTGlyph>
    <TTGlyph name="P.0" xMin="50" yMin="3" xMax="484" yMax="780">
      <component glyphName="P" x="0" y="0" flags="0x204"/>
    </TTGlyph>
    <TTGlyph name="P.1" xMin="50" yMin="3" xMax="484" yMax="780">
      <component glyphName="P" x="0" y="0" flags="0x204"/>
    </TTGlyph>
    <TTGlyph name="P.2" xMin="50" yMin="3" xMax="484" yMax="780">
      <contour>
        <pt x="202" y="626" on="1"/>
        <pt x="202" y="419" on="1"/>
        <pt x="214" y="416" on="0"/>
        <pt x="226" y="416" on="1"/>
        <pt x="271" y="416" on="0"/>
        <pt x="302" y="447" on="1"/>
        <pt x="333" y="478" on="0"/>
        <pt x="333" y="523" on="1"/>
        <pt x="333" y="567" on="0"/>
        <pt x="302" y="598" on="1"/>
        <pt x="271" y="629" on="0"/>
        <pt x="226" y="629" on="1"/>
        <pt x="214" y="629" on="0"/>
      </contour>
      <contour>
        <pt x="202" y="3" on="1"/>
        <pt x="50" y="3" on="1"/>
        <pt x="50" y="779" on="1"/>
        <pt x="202" y="779" on="1"/>
        <pt x="210" y="780" on="0"/>
        <pt x="226" y="780" on="1"/>
        <pt x="333" y="780" on="0"/>
        <pt x="409" y="705" on="1"/>
        <pt x="484" y="630" on="0"/>
        <pt x="484" y="523" on="1"/>
        <pt x="484" y="416" on="0"/>
        <pt x="409" y="341" on="1"/>
        <pt x="333" y="265" on="0"/>
        <pt x="226" y="265" on="1"/>
        <pt x="210" y="265" on="0"/>
        <pt x="202" y="266" on="1"/>
      </contour>
    </TTGlyph>
    <TTGlyph name="Q" xMin="50" yMin="-191" xMax="822" yMax="773">
      <contour>
        <pt x="814" y="380" on="1"/>
        <pt x="814" y="293" on="0"/>
        <pt x="780" y="217" on="1"/>
        <pt x="746" y="140" on="0"/>
        <pt x="685" y="85" on="1"/>
        <pt x="822" y="-52" on="1"/>
        <pt x="684" y="-191" on="1"/>
        <pt x="501" y="-8" on="1"/>
        <pt x="467" y="-14" on="0"/>
        <pt x="432" y="-14" on="1"/>
        <pt x="274" y="-14" on="0"/>
        <pt x="162" y="102" on="1"/>
        <pt x="50" y="217" on="0"/>
        <pt x="50" y="380" on="1"/>
        <pt x="50" y="543" on="0"/>
        <pt x="162" y="658" on="1"/>
        <pt x="274" y="773" on="0"/>
        <pt x="432" y="773" on="1"/>
        <pt x="590" y="773" on="0"/>
        <pt x="702" y="658" on="1"/>
        <pt x="814" y="543" on="0"/>
      </contour>
      <contour>
        <pt x="661" y="378" on="1"/>
        <pt x="661" y="475" on="0"/>
        <pt x="594" y="544" on="1"/>
        <pt x="527" y="612" on="0"/>
        <pt x="432" y="612" on="1"/>
        <pt x="337" y="612" on="0"/>
        <pt x="270" y="544" on="1"/>
        <pt x="203" y="475" on="0"/>
        <pt x="203" y="378" on="1"/>
        <pt x="203" y="280" on="0"/>
        <pt x="270" y="212" on="1"/>
        <pt x="337" y="143" on="0"/>
        <pt x="432" y="143" on="1"/>
        <pt x="527" y="143" on="0"/>
        <pt x="594" y="212" on="1"/>
        <pt x="661" y="280" on="0"/>
      </contour>
    </TTGlyph>
    <TTGlyph name="Q.0" xMin="50" yMin="-191" xMax="822" yMax="773">
      <component glyphName="Q" x="0" y="0" flags="0x204"/>
    </TTGlyph>
    <TTGlyph name="Q.1" xMin="50" yMin="-191" xMax="822" yMax="773">
      <component glyphName="Q" x="0" y="0" flags="0x204"/>
    </TTGlyph>
    <TTGlyph name="Q.2" xMin="50" yMin="-191" xMax="822" yMax="773">
      <contour>
        <pt x="814" y="380" on="1"/>
        <pt x="814" y="293" on="0"/>
        <pt x="780" y="217" on="1"/>
        <pt x="746" y="140" on="0"/>
        <pt x="685" y="85" on="1"/>
        <pt x="822" y="-52" on="1"/>
        <pt x="684" y="-191" on="1"/>
        <pt x="501" y="-8" on="1"/>
        <pt x="467" y="-14" on="0"/>
        <pt x="432" y="-14" on="1"/>
        <pt x="274" y="-14" on="0"/>
        <pt x="162" y="102" on="1"/>
        <pt x="50" y="217" on="0"/>
        <pt x="50" y="380" on="1"/>
        <pt x="50" y="543" on="0"/>
        <pt x="162" y="658" on="1"/>
        <pt x="274" y="773" on="0"/>
        <pt x="432" y="773" on="1"/>
        <pt x="590" y="773" on="0"/>
        <pt x="702" y="658" on="1"/>
        <pt x="814" y="543" on="0"/>
      </contour>
      <contour>
        <pt x="661" y="378" on="1"/>
        <pt x="661" y="475" on="0"/>
        <pt x="594" y="544" on="1"/>
        <pt x="527" y="612" on="0"/>
        <pt x="432" y="612" on="1"/>
        <pt x="337" y="612" on="0"/>
        <pt x="270" y="544" on="1"/>
        <pt x="203" y="475" on="0"/>
        <pt x="203" y="378" on="1"/>
        <pt x="203" y="280" on="0"/>
        <pt x="270" y="212" on="1"/>
        <pt x="337" y="143" on="0"/>
        <pt x="432" y="143" on="1"/>
        <pt x="527" y="143" on="0"/>
        <pt x="594" y="212" on="1"/>
        <pt x="661" y="280" on="0"/>
      </contour>
    </TTGlyph>
    <TTGlyph name="R" xMin="50" yMin="-3" xMax="512" yMax="780">
      <contour>
        <pt x="202" y="3" on="1"/>
        <pt x="50" y="3" on="1"/>
        <pt x="50" y="779" on="1"/>
        <pt x="202" y="779" on="1"/>
        <pt x="210" y="780" on="0"/>
        <pt x="226" y="780" on="1"/>
        <pt x="333" y="780" on="0"/>
        <pt x="409" y="705" on="1"/>
        <pt x="484" y="630" on="0"/>
        <pt x="484" y="523" on="1"/>
        <pt x="484" y="440" on="0"/>
        <pt x="437" y="374" on="1"/>
        <pt x="389" y="307" on="0"/>
        <pt x="313" y="280" on="1"/>
        <pt x="512" y="-3" on="1"/>
        <pt x="372" y="-3" on="1"/>
        <pt x="207" y="266" on="1"/>
        <pt x="205" y="266" on="0"/>
        <pt x="204" y="266" on="0"/>
        <pt x="202" y="266" on="1"/>
      </contour>
      <contour>
        <pt x="202" y="626" on="1"/>
        <pt x="202" y="419" on="1"/>
        <pt x="214" y="416" on="0"/>
        <pt x="226" y="416" on="1"/>
        <pt x="271" y="416" on="0"/>
        <pt x="302" y="447" on="1"/>
        <pt x="333" y="478" on="0"/>
        <pt x="333" y="523" on="1"/>
        <pt x="333" y="567" on="0"/>
        <pt x="302" y="598" on="1"/>
        <pt x="271" y="629" on="0"/>
        <pt x="226" y="629" on="1"/>
        <pt x="214" y="629" on="0"/>
      </contour>
    </TTGlyph>
    <TTGlyph name="R.0" xMin="50" yMin="-3" xMax="512" yMax="780">
      <component glyphName="R" x="0" y="0" flags="0x204"/>
    </TTGlyph>
    <TTGlyph name="R.1" xMin="50" yMin="-3" xMax="512" yMax="780">
      <component glyphName="R" x="0" y="0" flags="0x204"/>
    </TTGlyph>
    <TTGlyph name="R.2" xMin="50" yMin="-3" xMax="512" yMax="780">
      <contour>
        <pt x="202" y="3" on="1"/>
        <pt x="50" y="3" on="1"/>
        <pt x="50" y="779" on="1"/>
        <pt x="202" y="779" on="1"/>
        <pt x="210" y="780" on="0"/>
        <pt x="226" y="780" on="1"/>
        <pt x="333" y="780" on="0"/>
        <pt x="409" y="705" on="1"/>
        <pt x="484" y="630" on="0"/>
        <pt x="484" y="523" on="1"/>
        <pt x="484" y="440" on="0"/>
        <pt x="437" y="374" on="1"/>
        <pt x="389" y="307" on="0"/>
        <pt x="313" y="280" on="1"/>
        <pt x="512" y="-3" on="1"/>
        <pt x="372" y="-3" on="1"/>
        <pt x="207" y="266" on="1"/>
        <pt x="205" y="266" on="0"/>
        <pt x="204" y="266" on="0"/>
        <pt x="202" y="266" on="1"/>
      </contour>
      <contour>
        <pt x="202" y="626" on="1"/>
        <pt x="202" y="419" on="1"/>
        <pt x="214" y="416" on="0"/>
        <pt x="226" y="416" on="1"/>
        <pt x="271" y="416" on="0"/>
        <pt x="302" y="447" on="1"/>
        <pt x="333" y="478" on="0"/>
        <pt x="333" y="523" on="1"/>
        <pt x="333" y="567" on="0"/>
        <pt x="302" y="598" on="1"/>
        <pt x="271" y="629" on="0"/>
        <pt x="226" y="629" on="1"/>
        <pt x="214" y="629" on="0"/>
      </contour>
    </TTGlyph>
    <TTGlyph name="Racute" xMin="50" yMin="-3" xMax="512" yMax="1129">
      <component glyphName="acutecomb" x="263" y="324" flags="0x4"/>
      <component glyphName="R" x="0" y="0" flags="0x204"/>
    </TTGlyph>
    <TTGlyph name="Racute.0" xMin="50" yMin="-3" xMax="512" yMax="1129">
      <component glyphName="Racute" x="0" y="0" flags="0x204"/>
    </TTGlyph>
    <TTGlyph name="Racute.1" xMin="50" yMin="-3" xMax="512" yMax="1129">
      <component glyphName="Racute" x="0" y="0" flags="0x204"/>
    </TTGlyph>
    <TTGlyph name="Racute.2" xMin="50" yMin="-3" xMax="512" yMax="1129">
      <contour>
        <pt x="226" y="840" on="1"/>
        <pt x="118" y="947" on="1"/>
        <pt x="300" y="1129" on="1"/>
        <pt x="408" y="1022" on="1"/>
      </contour>
      <contour>
        <pt x="202" y="3" on="1"/>
        <pt x="50" y="3" on="1"/>
        <pt x="50" y="779" on="1"/>
        <pt x="202" y="779" on="1"/>
        <pt x="210" y="780" on="0"/>
        <pt x="226" y="780" on="1"/>
        <pt x="333" y="780" on="0"/>
        <pt x="409" y="705" on="1"/>
        <pt x="484" y="630" on="0"/>
        <pt x="484" y="523" on="1"/>
        <pt x="484" y="440" on="0"/>
        <pt x="437" y="374" on="1"/>
        <pt x="389" y="307" on="0"/>
        <pt x="313" y="280" on="1"/>
        <pt x="512" y="-3" on="1"/>
        <pt x="372" y="-3" on="1"/>
        <pt x="207" y="266" on="1"/>
        <pt x="205" y="266" on="0"/>
        <pt x="204" y="266" on="0"/>
        <pt x="202" y="266" on="1"/>
      </contour>
      <contour>
        <pt x="202" y="626" on="1"/>
        <pt x="202" y="419" on="1"/>
        <pt x="214" y="416" on="0"/>
        <pt x="226" y="416" on="1"/>
        <pt x="271" y="416" on="0"/>
        <pt x="302" y="447" on="1"/>
        <pt x="333" y="478" on="0"/>
        <pt x="333" y="523" on="1"/>
        <pt x="333" y="567" on="0"/>
        <pt x="302" y="598" on="1"/>
        <pt x="271" y="629" on="0"/>
        <pt x="226" y="629" on="1"/>
        <pt x="214" y="629" on="0"/>
      </contour>
    </TTGlyph>
    <TTGlyph name="Rcaron" xMin="50" yMin="-3" xMax="512" yMax="1008">
      <component glyphName="uni030C" x="176" y="74" flags="0x4"/>
      <component glyphName="R" x="0" y="0" flags="0x204"/>
    </TTGlyph>
    <TTGlyph name="Rcaron.0" xMin="50" yMin="-3" xMax="512" yMax="1008">
      <component glyphName="Rcaron" x="0" y="0" flags="0x204"/>
    </TTGlyph>
    <TTGlyph name="Rcaron.1" xMin="50" yMin="-3" xMax="512" yMax="1008">
      <component glyphName="Rcaron" x="0" y="0" flags="0x204"/>
    </TTGlyph>
    <TTGlyph name="Rcaron.2" xMin="50" yMin="-3" xMax="512" yMax="1008">
      <contour>
        <pt x="76" y="1008" on="1"/>
        <pt x="152" y="1008" on="1"/>
        <pt x="180" y="900" on="1"/>
        <pt x="200" y="1008" on="1"/>
        <pt x="276" y="1008" on="1"/>
        <pt x="224" y="840" on="1"/>
        <pt x="223" y="840" on="1"/>
        <pt x="148" y="840" on="1"/>
        <pt x="147" y="840" on="1"/>
      </contour>
      <contour>
        <pt x="202" y="3" on="1"/>
        <pt x="50" y="3" on="1"/>
        <pt x="50" y="779" on="1"/>
        <pt x="202" y="779" on="1"/>
        <pt x="210" y="780" on="0"/>
        <pt x="226" y="780" on="1"/>
        <pt x="333" y="780" on="0"/>
        <pt x="409" y="705" on="1"/>
        <pt x="484" y="630" on="0"/>
        <pt x="484" y="523" on="1"/>
        <pt x="484" y="440" on="0"/>
        <pt x="437" y="374" on="1"/>
        <pt x="389" y="307" on="0"/>
        <pt x="313" y="280" on="1"/>
        <pt x="512" y="-3" on="1"/>
        <pt x="372" y="-3" on="1"/>
        <pt x="207" y="266" on="1"/>
        <pt x="205" y="266" on="0"/>
        <pt x="204" y="266" on="0"/>
        <pt x="202" y="266" on="1"/>
      </contour>
      <contour>
        <pt x="202" y="626" on="1"/>
        <pt x="202" y="419" on="1"/>
        <pt x="214" y="416" on="0"/>
        <pt x="226" y="416" on="1"/>
        <pt x="271" y="416" on="0"/>
        <pt x="302" y="447" on="1"/>
        <pt x="333" y="478" on="0"/>
        <pt x="333" y="523" on="1"/>
        <pt x="333" y="567" on="0"/>
        <pt x="302" y="598" on="1"/>
        <pt x="271" y="629" on="0"/>
        <pt x="226" y="629" on="1"/>
        <pt x="214" y="629" on="0"/>
      </contour>
    </TTGlyph>
    <TTGlyph name="S" xMin="50" yMin="-9" xMax="469" yMax="777">
      <contour>
        <pt x="50" y="57" on="1"/>
        <pt x="125" y="182" on="1"/>
        <pt x="137" y="172" on="0"/>
        <pt x="147" y="167" on="1"/>
        <pt x="185" y="145" on="0"/>
        <pt x="227" y="156" on="1"/>
        <pt x="269" y="166" on="0"/>
        <pt x="292" y="202" on="1"/>
        <pt x="314" y="241" on="0"/>
        <pt x="290" y="275" on="1"/>
        <pt x="265" y="308" on="0"/>
        <pt x="222" y="315" on="1"/>
        <pt x="155" y="351" on="0"/>
        <pt x="115" y="398" on="1"/>
        <pt x="74" y="445" on="0"/>
        <pt x="64" y="508" on="1"/>
        <pt x="53" y="570" on="0"/>
        <pt x="96" y="639" on="1"/>
        <pt x="148" y="726" on="0"/>
        <pt x="251" y="752" on="1"/>
        <pt x="354" y="777" on="0"/>
        <pt x="448" y="727" on="1"/>
        <pt x="451" y="724" on="0"/>
        <pt x="459" y="720" on="1"/>
        <pt x="466" y="715" on="0"/>
        <pt x="469" y="712" on="1"/>
        <pt x="394" y="587" on="1"/>
        <pt x="382" y="597" on="0"/>
        <pt x="372" y="602" on="1"/>
        <pt x="334" y="623" on="0"/>
        <pt x="292" y="613" on="1"/>
        <pt x="249" y="602" on="0"/>
        <pt x="227" y="565" on="1"/>
        <pt x="202" y="524" on="0"/>
        <pt x="223" y="475" on="1"/>
        <pt x="243" y="426" on="0"/>
        <pt x="291" y="418" on="1"/>
        <pt x="340" y="392" on="0"/>
        <pt x="374" y="366" on="1"/>
        <pt x="407" y="339" on="0"/>
        <pt x="432" y="304" on="1"/>
        <pt x="456" y="268" on="0"/>
        <pt x="455" y="224" on="1"/>
        <pt x="453" y="180" on="0"/>
        <pt x="422" y="130" on="1"/>
        <pt x="370" y="42" on="0"/>
        <pt x="268" y="17" on="1"/>
        <pt x="165" y="-9" on="0"/>
        <pt x="71" y="42" on="1"/>
        <pt x="68" y="45" on="0"/>
        <pt x="61" y="50" on="1"/>
        <pt x="53" y="54" on="0"/>
      </contour>
    </TTGlyph>
    <TTGlyph name="S.0" xMin="50" yMin="-9" xMax="469" yMax="777">
      <component glyphName="S" x="0" y="0" flags="0x204"/>
    </TTGlyph>
    <TTGlyph name="S.1" xMin="50" yMin="-9" xMax="469" yMax="777">
      <component glyphName="S" x="0" y="0" flags="0x204"/>
    </TTGlyph>
    <TTGlyph name="S.2" xMin="50" yMin="-9" xMax="469" yMax="777">
      <contour>
        <pt x="50" y="57" on="1"/>
        <pt x="125" y="182" on="1"/>
        <pt x="137" y="172" on="0"/>
        <pt x="147" y="167" on="1"/>
        <pt x="185" y="145" on="0"/>
        <pt x="227" y="156" on="1"/>
        <pt x="269" y="166" on="0"/>
        <pt x="292" y="202" on="1"/>
        <pt x="314" y="241" on="0"/>
        <pt x="290" y="275" on="1"/>
        <pt x="265" y="308" on="0"/>
        <pt x="222" y="315" on="1"/>
        <pt x="155" y="351" on="0"/>
        <pt x="115" y="398" on="1"/>
        <pt x="74" y="445" on="0"/>
        <pt x="64" y="508" on="1"/>
        <pt x="53" y="570" on="0"/>
        <pt x="96" y="639" on="1"/>
        <pt x="148" y="726" on="0"/>
        <pt x="251" y="752" on="1"/>
        <pt x="354" y="777" on="0"/>
        <pt x="448" y="727" on="1"/>
        <pt x="451" y="724" on="0"/>
        <pt x="459" y="720" on="1"/>
        <pt x="466" y="715" on="0"/>
        <pt x="469" y="712" on="1"/>
        <pt x="394" y="587" on="1"/>
        <pt x="382" y="597" on="0"/>
        <pt x="372" y="602" on="1"/>
        <pt x="334" y="623" on="0"/>
        <pt x="292" y="613" on="1"/>
        <pt x="249" y="602" on="0"/>
        <pt x="227" y="565" on="1"/>
        <pt x="202" y="524" on="0"/>
        <pt x="223" y="475" on="1"/>
        <pt x="243" y="426" on="0"/>
        <pt x="291" y="418" on="1"/>
        <pt x="340" y="392" on="0"/>
        <pt x="374" y="366" on="1"/>
        <pt x="407" y="339" on="0"/>
        <pt x="432" y="304" on="1"/>
        <pt x="456" y="268" on="0"/>
        <pt x="455" y="224" on="1"/>
        <pt x="453" y="180" on="0"/>
        <pt x="422" y="130" on="1"/>
        <pt x="370" y="42" on="0"/>
        <pt x="268" y="17" on="1"/>
        <pt x="165" y="-9" on="0"/>
        <pt x="71" y="42" on="1"/>
        <pt x="68" y="45" on="0"/>
        <pt x="61" y="50" on="1"/>
        <pt x="53" y="54" on="0"/>
      </contour>
    </TTGlyph>
    <TTGlyph name="Sacute" xMin="50" yMin="-9" xMax="502" yMax="1122">
      <component glyphName="acutecomb" x="357" y="317" flags="0x4"/>
      <component glyphName="S" x="0" y="0" flags="0x204"/>
    </TTGlyph>
    <TTGlyph name="Sacute.0" xMin="50" yMin="-9" xMax="502" yMax="1122">
      <component glyphName="Sacute" x="0" y="0" flags="0x204"/>
    </TTGlyph>
    <TTGlyph name="Sacute.1" xMin="50" yMin="-9" xMax="502" yMax="1122">
      <component glyphName="Sacute" x="0" y="0" flags="0x204"/>
    </TTGlyph>
    <TTGlyph name="Sacute.2" xMin="50" yMin="-9" xMax="502" yMax="1122">
      <contour>
        <pt x="320" y="833" on="1"/>
        <pt x="212" y="940" on="1"/>
        <pt x="394" y="1122" on="1"/>
        <pt x="502" y="1015" on="1"/>
      </contour>
      <contour>
        <pt x="50" y="57" on="1"/>
        <pt x="125" y="182" on="1"/>
        <pt x="137" y="172" on="0"/>
        <pt x="147" y="167" on="1"/>
        <pt x="185" y="145" on="0"/>
        <pt x="227" y="156" on="1"/>
        <pt x="269" y="166" on="0"/>
        <pt x="292" y="202" on="1"/>
        <pt x="314" y="241" on="0"/>
        <pt x="290" y="275" on="1"/>
        <pt x="265" y="308" on="0"/>
        <pt x="222" y="315" on="1"/>
        <pt x="155" y="351" on="0"/>
        <pt x="115" y="398" on="1"/>
        <pt x="74" y="445" on="0"/>
        <pt x="64" y="508" on="1"/>
        <pt x="53" y="570" on="0"/>
        <pt x="96" y="639" on="1"/>
        <pt x="148" y="726" on="0"/>
        <pt x="251" y="752" on="1"/>
        <pt x="354" y="777" on="0"/>
        <pt x="448" y="727" on="1"/>
        <pt x="451" y="724" on="0"/>
        <pt x="459" y="720" on="1"/>
        <pt x="466" y="715" on="0"/>
        <pt x="469" y="712" on="1"/>
        <pt x="394" y="587" on="1"/>
        <pt x="382" y="597" on="0"/>
        <pt x="372" y="602" on="1"/>
        <pt x="334" y="623" on="0"/>
        <pt x="292" y="613" on="1"/>
        <pt x="249" y="602" on="0"/>
        <pt x="227" y="565" on="1"/>
        <pt x="202" y="524" on="0"/>
        <pt x="223" y="475" on="1"/>
        <pt x="243" y="426" on="0"/>
        <pt x="291" y="418" on="1"/>
        <pt x="340" y="392" on="0"/>
        <pt x="374" y="366" on="1"/>
        <pt x="407" y="339" on="0"/>
        <pt x="432" y="304" on="1"/>
        <pt x="456" y="268" on="0"/>
        <pt x="455" y="224" on="1"/>
        <pt x="453" y="180" on="0"/>
        <pt x="422" y="130" on="1"/>
        <pt x="370" y="42" on="0"/>
        <pt x="268" y="17" on="1"/>
        <pt x="165" y="-9" on="0"/>
        <pt x="71" y="42" on="1"/>
        <pt x="68" y="45" on="0"/>
        <pt x="61" y="50" on="1"/>
        <pt x="53" y="54" on="0"/>
      </contour>
    </TTGlyph>
    <TTGlyph name="Scaron" xMin="50" yMin="-9" xMax="469" yMax="1001">
      <component glyphName="uni030C" x="273" y="67" flags="0x4"/>
      <component glyphName="S" x="0" y="0" flags="0x204"/>
    </TTGlyph>
    <TTGlyph name="Scaron.0" xMin="50" yMin="-9" xMax="469" yMax="1001">
      <component glyphName="Scaron" x="0" y="0" flags="0x204"/>
    </TTGlyph>
    <TTGlyph name="Scaron.1" xMin="50" yMin="-9" xMax="469" yMax="1001">
      <component glyphName="Scaron" x="0" y="0" flags="0x204"/>
    </TTGlyph>
    <TTGlyph name="Scaron.2" xMin="50" yMin="-9" xMax="469" yMax="1001">
      <contour>
        <pt x="173" y="1001" on="1"/>
        <pt x="249" y="1001" on="1"/>
        <pt x="277" y="893" on="1"/>
        <pt x="297" y="1001" on="1"/>
        <pt x="373" y="1001" on="1"/>
        <pt x="321" y="833" on="1"/>
        <pt x="320" y="833" on="1"/>
        <pt x="245" y="833" on="1"/>
        <pt x="244" y="833" on="1"/>
      </contour>
      <contour>
        <pt x="50" y="57" on="1"/>
        <pt x="125" y="182" on="1"/>
        <pt x="137" y="172" on="0"/>
        <pt x="147" y="167" on="1"/>
        <pt x="185" y="145" on="0"/>
        <pt x="227" y="156" on="1"/>
        <pt x="269" y="166" on="0"/>
        <pt x="292" y="202" on="1"/>
        <pt x="314" y="241" on="0"/>
        <pt x="290" y="275" on="1"/>
        <pt x="265" y="308" on="0"/>
        <pt x="222" y="315" on="1"/>
        <pt x="155" y="351" on="0"/>
        <pt x="115" y="398" on="1"/>
        <pt x="74" y="445" on="0"/>
        <pt x="64" y="508" on="1"/>
        <pt x="53" y="570" on="0"/>
        <pt x="96" y="639" on="1"/>
        <pt x="148" y="726" on="0"/>
        <pt x="251" y="752" on="1"/>
        <pt x="354" y="777" on="0"/>
        <pt x="448" y="727" on="1"/>
        <pt x="451" y="724" on="0"/>
        <pt x="459" y="720" on="1"/>
        <pt x="466" y="715" on="0"/>
        <pt x="469" y="712" on="1"/>
        <pt x="394" y="587" on="1"/>
        <pt x="382" y="597" on="0"/>
        <pt x="372" y="602" on="1"/>
        <pt x="334" y="623" on="0"/>
        <pt x="292" y="613" on="1"/>
        <pt x="249" y="602" on="0"/>
        <pt x="227" y="565" on="1"/>
        <pt x="202" y="524" on="0"/>
        <pt x="223" y="475" on="1"/>
        <pt x="243" y="426" on="0"/>
        <pt x="291" y="418" on="1"/>
        <pt x="340" y="392" on="0"/>
        <pt x="374" y="366" on="1"/>
        <pt x="407" y="339" on="0"/>
        <pt x="432" y="304" on="1"/>
        <pt x="456" y="268" on="0"/>
        <pt x="455" y="224" on="1"/>
        <pt x="453" y="180" on="0"/>
        <pt x="422" y="130" on="1"/>
        <pt x="370" y="42" on="0"/>
        <pt x="268" y="17" on="1"/>
        <pt x="165" y="-9" on="0"/>
        <pt x="71" y="42" on="1"/>
        <pt x="68" y="45" on="0"/>
        <pt x="61" y="50" on="1"/>
        <pt x="53" y="54" on="0"/>
      </contour>
    </TTGlyph>
    <TTGlyph name="Scedilla" xMin="50" yMin="-252" xMax="469" yMax="777">
      <component glyphName="uni0327" x="240" y="-184" flags="0x4"/>
      <component glyphName="S" x="0" y="0" flags="0x204"/>
    </TTGlyph>
    <TTGlyph name="Scedilla.0" xMin="50" yMin="-252" xMax="469" yMax="777">
      <component glyphName="Scedilla" x="0" y="0" flags="0x204"/>
    </TTGlyph>
    <TTGlyph name="Scedilla.1" xMin="50" yMin="-252" xMax="469" yMax="777">
      <component glyphName="Scedilla" x="0" y="0" flags="0x204"/>
    </TTGlyph>
    <TTGlyph name="Scedilla.2" xMin="50" yMin="-252" xMax="469" yMax="777">
      <contour>
        <pt x="119" y="-252" on="1"/>
        <pt x="119" y="-175" on="1"/>
        <pt x="127" y="-177" on="0"/>
        <pt x="132" y="-177" on="1"/>
        <pt x="155" y="-177" on="0"/>
        <pt x="171" y="-161" on="1"/>
        <pt x="186" y="-146" on="0"/>
        <pt x="186" y="-124" on="1"/>
        <pt x="186" y="-102" on="0"/>
        <pt x="170" y="-86" on="1"/>
        <pt x="154" y="-70" on="0"/>
        <pt x="132" y="-70" on="1"/>
        <pt x="127" y="-70" on="0"/>
        <pt x="119" y="-72" on="1"/>
        <pt x="119" y="5" on="1"/>
        <pt x="132" y="5" on="1"/>
        <pt x="186" y="5" on="0"/>
        <pt x="224" y="-32" on="1"/>
        <pt x="261" y="-70" on="0"/>
        <pt x="261" y="-124" on="1"/>
        <pt x="261" y="-177" on="0"/>
        <pt x="224" y="-214" on="1"/>
        <pt x="186" y="-252" on="0"/>
        <pt x="132" y="-252" on="1"/>
      </contour>
      <contour>
        <pt x="50" y="57" on="1"/>
        <pt x="125" y="182" on="1"/>
        <pt x="137" y="172" on="0"/>
        <pt x="147" y="167" on="1"/>
        <pt x="185" y="145" on="0"/>
        <pt x="227" y="156" on="1"/>
        <pt x="269" y="166" on="0"/>
        <pt x="292" y="202" on="1"/>
        <pt x="314" y="241" on="0"/>
        <pt x="290" y="275" on="1"/>
        <pt x="265" y="308" on="0"/>
        <pt x="222" y="315" on="1"/>
        <pt x="155" y="351" on="0"/>
        <pt x="115" y="398" on="1"/>
        <pt x="74" y="445" on="0"/>
        <pt x="64" y="508" on="1"/>
        <pt x="53" y="570" on="0"/>
        <pt x="96" y="639" on="1"/>
        <pt x="148" y="726" on="0"/>
        <pt x="251" y="752" on="1"/>
        <pt x="354" y="777" on="0"/>
        <pt x="448" y="727" on="1"/>
        <pt x="451" y="724" on="0"/>
        <pt x="459" y="720" on="1"/>
        <pt x="466" y="715" on="0"/>
        <pt x="469" y="712" on="1"/>
        <pt x="394" y="587" on="1"/>
        <pt x="382" y="597" on="0"/>
        <pt x="372" y="602" on="1"/>
        <pt x="334" y="623" on="0"/>
        <pt x="292" y="613" on="1"/>
        <pt x="249" y="602" on="0"/>
        <pt x="227" y="565" on="1"/>
        <pt x="202" y="524" on="0"/>
        <pt x="223" y="475" on="1"/>
        <pt x="243" y="426" on="0"/>
        <pt x="291" y="418" on="1"/>
        <pt x="340" y="392" on="0"/>
        <pt x="374" y="366" on="1"/>
        <pt x="407" y="339" on="0"/>
        <pt x="432" y="304" on="1"/>
        <pt x="456" y="268" on="0"/>
        <pt x="455" y="224" on="1"/>
        <pt x="453" y="180" on="0"/>
        <pt x="422" y="130" on="1"/>
        <pt x="370" y="42" on="0"/>
        <pt x="268" y="17" on="1"/>
        <pt x="165" y="-9" on="0"/>
        <pt x="71" y="42" on="1"/>
        <pt x="68" y="45" on="0"/>
        <pt x="61" y="50" on="1"/>
        <pt x="53" y="54" on="0"/>
      </contour>
    </TTGlyph>
    <TTGlyph name="Scircumflex" xMin="50" yMin="-9" xMax="469" yMax="1000">
      <component glyphName="uni0302" x="273" y="66" flags="0x4"/>
      <component glyphName="S" x="0" y="0" flags="0x204"/>
    </TTGlyph>
    <TTGlyph name="Scircumflex.0" xMin="50" yMin="-9" xMax="469" yMax="1000">
      <component glyphName="Scircumflex" x="0" y="0" flags="0x204"/>
    </TTGlyph>
    <TTGlyph name="Scircumflex.1" xMin="50" yMin="-9" xMax="469" yMax="1000">
      <component glyphName="Scircumflex" x="0" y="0" flags="0x204"/>
    </TTGlyph>
    <TTGlyph name="Scircumflex.2" xMin="50" yMin="-9" xMax="469" yMax="1000">
      <contour>
        <pt x="173" y="832" on="1"/>
        <pt x="244" y="1000" on="1"/>
        <pt x="245" y="1000" on="1"/>
        <pt x="320" y="1000" on="1"/>
        <pt x="321" y="1000" on="1"/>
        <pt x="373" y="832" on="1"/>
        <pt x="297" y="832" on="1"/>
        <pt x="277" y="940" on="1"/>
        <pt x="249" y="832" on="1"/>
      </contour>
      <contour>
        <pt x="50" y="57" on="1"/>
        <pt x="125" y="182" on="1"/>
        <pt x="137" y="172" on="0"/>
        <pt x="147" y="167" on="1"/>
        <pt x="185" y="145" on="0"/>
        <pt x="227" y="156" on="1"/>
        <pt x="269" y="166" on="0"/>
        <pt x="292" y="202" on="1"/>
        <pt x="314" y="241" on="0"/>
        <pt x="290" y="275" on="1"/>
        <pt x="265" y="308" on="0"/>
        <pt x="222" y="315" on="1"/>
        <pt x="155" y="351" on="0"/>
        <pt x="115" y="398" on="1"/>
        <pt x="74" y="445" on="0"/>
        <pt x="64" y="508" on="1"/>
        <pt x="53" y="570" on="0"/>
        <pt x="96" y="639" on="1"/>
        <pt x="148" y="726" on="0"/>
        <pt x="251" y="752" on="1"/>
        <pt x="354" y="777" on="0"/>
        <pt x="448" y="727" on="1"/>
        <pt x="451" y="724" on="0"/>
        <pt x="459" y="720" on="1"/>
        <pt x="466" y="715" on="0"/>
        <pt x="469" y="712" on="1"/>
        <pt x="394" y="587" on="1"/>
        <pt x="382" y="597" on="0"/>
        <pt x="372" y="602" on="1"/>
        <pt x="334" y="623" on="0"/>
        <pt x="292" y="613" on="1"/>
        <pt x="249" y="602" on="0"/>
        <pt x="227" y="565" on="1"/>
        <pt x="202" y="524" on="0"/>
        <pt x="223" y="475" on="1"/>
        <pt x="243" y="426" on="0"/>
        <pt x="291" y="418" on="1"/>
        <pt x="340" y="392" on="0"/>
        <pt x="374" y="366" on="1"/>
        <pt x="407" y="339" on="0"/>
        <pt x="432" y="304" on="1"/>
        <pt x="456" y="268" on="0"/>
        <pt x="455" y="224" on="1"/>
        <pt x="453" y="180" on="0"/>
        <pt x="422" y="130" on="1"/>
        <pt x="370" y="42" on="0"/>
        <pt x="268" y="17" on="1"/>
        <pt x="165" y="-9" on="0"/>
        <pt x="71" y="42" on="1"/>
        <pt x="68" y="45" on="0"/>
        <pt x="61" y="50" on="1"/>
        <pt x="53" y="54" on="0"/>
      </contour>
    </TTGlyph>
    <TTGlyph name="T" xMin="50" yMin="-2" xMax="626" yMax="766">
      <contour>
        <pt x="50" y="614" on="1"/>
        <pt x="50" y="766" on="1"/>
        <pt x="626" y="766" on="1"/>
        <pt x="626" y="614" on="1"/>
        <pt x="414" y="614" on="1"/>
        <pt x="414" y="-2" on="1"/>
        <pt x="262" y="-2" on="1"/>
        <pt x="262" y="614" on="1"/>
      </contour>
    </TTGlyph>
    <TTGlyph name="T.0" xMin="50" yMin="-2" xMax="626" yMax="766">
      <component glyphName="T" x="0" y="0" flags="0x204"/>
    </TTGlyph>
    <TTGlyph name="T.1" xMin="50" yMin="-2" xMax="626" yMax="766">
      <component glyphName="T" x="0" y="0" flags="0x204"/>
    </TTGlyph>
    <TTGlyph name="T.2" xMin="50" yMin="-2" xMax="626" yMax="766">
      <contour>
        <pt x="50" y="614" on="1"/>
        <pt x="50" y="766" on="1"/>
        <pt x="626" y="766" on="1"/>
        <pt x="626" y="614" on="1"/>
        <pt x="414" y="614" on="1"/>
        <pt x="414" y="-2" on="1"/>
        <pt x="262" y="-2" on="1"/>
        <pt x="262" y="614" on="1"/>
      </contour>
    </TTGlyph>
    <TTGlyph name="Tcaron" xMin="50" yMin="-2" xMax="626" yMax="1001">
      <component glyphName="uni030C" x="338" y="67" flags="0x4"/>
      <component glyphName="T" x="0" y="0" flags="0x204"/>
    </TTGlyph>
    <TTGlyph name="Tcaron.0" xMin="50" yMin="-2" xMax="626" yMax="1001">
      <component glyphName="Tcaron" x="0" y="0" flags="0x204"/>
    </TTGlyph>
    <TTGlyph name="Tcaron.1" xMin="50" yMin="-2" xMax="626" yMax="1001">
      <component glyphName="Tcaron" x="0" y="0" flags="0x204"/>
    </TTGlyph>
    <TTGlyph name="Tcaron.2" xMin="50" yMin="-2" xMax="626" yMax="1001">
      <contour>
        <pt x="238" y="1001" on="1"/>
        <pt x="314" y="1001" on="1"/>
        <pt x="342" y="893" on="1"/>
        <pt x="362" y="1001" on="1"/>
        <pt x="438" y="1001" on="1"/>
        <pt x="386" y="833" on="1"/>
        <pt x="385" y="833" on="1"/>
        <pt x="310" y="833" on="1"/>
        <pt x="309" y="833" on="1"/>
      </contour>
      <contour>
        <pt x="50" y="614" on="1"/>
        <pt x="50" y="766" on="1"/>
        <pt x="626" y="766" on="1"/>
        <pt x="626" y="614" on="1"/>
        <pt x="414" y="614" on="1"/>
        <pt x="414" y="-2" on="1"/>
        <pt x="262" y="-2" on="1"/>
        <pt x="262" y="614" on="1"/>
      </contour>
    </TTGlyph>
    <TTGlyph name="Thorn" xMin="50" yMin="3" xMax="484" yMax="903">
      <contour>
        <pt x="202" y="561" on="1"/>
        <pt x="202" y="354" on="1"/>
        <pt x="214" y="351" on="0"/>
        <pt x="226" y="351" on="1"/>
        <pt x="271" y="351" on="0"/>
        <pt x="302" y="382" on="1"/>
        <pt x="333" y="413" on="0"/>
        <pt x="333" y="458" on="1"/>
        <pt x="333" y="502" on="0"/>
        <pt x="302" y="533" on="1"/>
        <pt x="271" y="564" on="0"/>
        <pt x="226" y="564" on="1"/>
        <pt x="214" y="564" on="0"/>
      </contour>
      <contour>
        <pt x="202" y="3" on="1"/>
        <pt x="50" y="3" on="1"/>
        <pt x="50" y="903" on="1"/>
        <pt x="197" y="903" on="1"/>
        <pt x="202" y="714" on="1"/>
        <pt x="210" y="715" on="0"/>
        <pt x="226" y="715" on="1"/>
        <pt x="333" y="715" on="0"/>
        <pt x="409" y="640" on="1"/>
        <pt x="484" y="565" on="0"/>
        <pt x="484" y="458" on="1"/>
        <pt x="484" y="351" on="0"/>
        <pt x="409" y="276" on="1"/>
        <pt x="333" y="200" on="0"/>
        <pt x="226" y="200" on="1"/>
        <pt x="210" y="200" on="0"/>
        <pt x="202" y="201" on="1"/>
      </contour>
    </TTGlyph>
    <TTGlyph name="Thorn.0" xMin="50" yMin="3" xMax="484" yMax="903">
      <component glyphName="Thorn" x="0" y="0" flags="0x204"/>
    </TTGlyph>
    <TTGlyph name="Thorn.1" xMin="50" yMin="3" xMax="484" yMax="903">
      <component glyphName="Thorn" x="0" y="0" flags="0x204"/>
    </TTGlyph>
    <TTGlyph name="Thorn.2" xMin="50" yMin="3" xMax="484" yMax="903">
      <contour>
        <pt x="202" y="561" on="1"/>
        <pt x="202" y="354" on="1"/>
        <pt x="214" y="351" on="0"/>
        <pt x="226" y="351" on="1"/>
        <pt x="271" y="351" on="0"/>
        <pt x="302" y="382" on="1"/>
        <pt x="333" y="413" on="0"/>
        <pt x="333" y="458" on="1"/>
        <pt x="333" y="502" on="0"/>
        <pt x="302" y="533" on="1"/>
        <pt x="271" y="564" on="0"/>
        <pt x="226" y="564" on="1"/>
        <pt x="214" y="564" on="0"/>
      </contour>
      <contour>
        <pt x="202" y="3" on="1"/>
        <pt x="50" y="3" on="1"/>
        <pt x="50" y="903" on="1"/>
        <pt x="197" y="903" on="1"/>
        <pt x="202" y="714" on="1"/>
        <pt x="210" y="715" on="0"/>
        <pt x="226" y="715" on="1"/>
        <pt x="333" y="715" on="0"/>
        <pt x="409" y="640" on="1"/>
        <pt x="484" y="565" on="0"/>
        <pt x="484" y="458" on="1"/>
        <pt x="484" y="351" on="0"/>
        <pt x="409" y="276" on="1"/>
        <pt x="333" y="200" on="0"/>
        <pt x="226" y="200" on="1"/>
        <pt x="210" y="200" on="0"/>
        <pt x="202" y="201" on="1"/>
      </contour>
    </TTGlyph>
    <TTGlyph name="U" xMin="50" yMin="3" xMax="619" yMax="761">
      <contour>
        <pt x="616" y="184" on="1"/>
        <pt x="600" y="126" on="0"/>
        <pt x="556" y="85" on="1"/>
        <pt x="511" y="43" on="0"/>
        <pt x="455" y="24" on="1"/>
        <pt x="399" y="4" on="0"/>
        <pt x="335" y="4" on="1"/>
        <pt x="271" y="3" on="0"/>
        <pt x="215" y="22" on="1"/>
        <pt x="158" y="41" on="0"/>
        <pt x="114" y="83" on="1"/>
        <pt x="70" y="125" on="0"/>
        <pt x="53" y="184" on="1"/>
        <pt x="50" y="761" on="1"/>
        <pt x="217" y="761" on="1"/>
        <pt x="217" y="185" on="1"/>
        <pt x="246" y="152" on="0"/>
        <pt x="335" y="152" on="1"/>
        <pt x="424" y="151" on="0"/>
        <pt x="452" y="185" on="1"/>
        <pt x="452" y="761" on="1"/>
        <pt x="619" y="761" on="1"/>
      </contour>
    </TTGlyph>
    <TTGlyph name="U.0" xMin="50" yMin="3" xMax="619" yMax="761">
      <component glyphName="U" x="0" y="0" flags="0x204"/>
    </TTGlyph>
    <TTGlyph name="U.1" xMin="50" yMin="3" xMax="619" yMax="761">
      <component glyphName="U" x="0" y="0" flags="0x204"/>
    </TTGlyph>
    <TTGlyph name="U.2" xMin="50" yMin="3" xMax="619" yMax="761">
      <contour>
        <pt x="616" y="184" on="1"/>
        <pt x="600" y="126" on="0"/>
        <pt x="556" y="85" on="1"/>
        <pt x="511" y="43" on="0"/>
        <pt x="455" y="24" on="1"/>
        <pt x="399" y="4" on="0"/>
        <pt x="335" y="4" on="1"/>
        <pt x="271" y="3" on="0"/>
        <pt x="215" y="22" on="1"/>
        <pt x="158" y="41" on="0"/>
        <pt x="114" y="83" on="1"/>
        <pt x="70" y="125" on="0"/>
        <pt x="53" y="184" on="1"/>
        <pt x="50" y="761" on="1"/>
        <pt x="217" y="761" on="1"/>
        <pt x="217" y="185" on="1"/>
        <pt x="246" y="152" on="0"/>
        <pt x="335" y="152" on="1"/>
        <pt x="424" y="151" on="0"/>
        <pt x="452" y="185" on="1"/>
        <pt x="452" y="761" on="1"/>
        <pt x="619" y="761" on="1"/>
      </contour>
    </TTGlyph>
    <TTGlyph name="Uacute" xMin="50" yMin="3" xMax="619" yMax="1122">
      <component glyphName="acutecomb" x="372" y="317" flags="0x4"/>
      <component glyphName="U" x="0" y="0" flags="0x204"/>
    </TTGlyph>
    <TTGlyph name="Uacute.0" xMin="50" yMin="3" xMax="619" yMax="1122">
      <component glyphName="Uacute" x="0" y="0" flags="0x204"/>
    </TTGlyph>
    <TTGlyph name="Uacute.1" xMin="50" yMin="3" xMax="619" yMax="1122">
      <component glyphName="Uacute" x="0" y="0" flags="0x204"/>
    </TTGlyph>
    <TTGlyph name="Uacute.2" xMin="50" yMin="3" xMax="619" yMax="1122">
      <contour>
        <pt x="335" y="833" on="1"/>
        <pt x="227" y="940" on="1"/>
        <pt x="409" y="1122" on="1"/>
        <pt x="517" y="1015" on="1"/>
      </contour>
      <contour>
        <pt x="616" y="184" on="1"/>
        <pt x="600" y="126" on="0"/>
        <pt x="556" y="85" on="1"/>
        <pt x="511" y="43" on="0"/>
        <pt x="455" y="24" on="1"/>
        <pt x="399" y="4" on="0"/>
        <pt x="335" y="4" on="1"/>
        <pt x="271" y="3" on="0"/>
        <pt x="215" y="22" on="1"/>
        <pt x="158" y="41" on="0"/>
        <pt x="114" y="83" on="1"/>
        <pt x="70" y="125" on="0"/>
        <pt x="53" y="184" on="1"/>
        <pt x="50" y="761" on="1"/>
        <pt x="217" y="761" on="1"/>
        <pt x="217" y="185" on="1"/>
        <pt x="246" y="152" on="0"/>
        <pt x="335" y="152" on="1"/>
        <pt x="424" y="151" on="0"/>
        <pt x="452" y="185" on="1"/>
        <pt x="452" y="761" on="1"/>
        <pt x="619" y="761" on="1"/>
      </contour>
    </TTGlyph>
    <TTGlyph name="Ubreve" xMin="50" yMin="3" xMax="619" yMax="957">
      <component glyphName="uni0306" x="335" y="25" flags="0x4"/>
      <component glyphName="U" x="0" y="0" flags="0x204"/>
    </TTGlyph>
    <TTGlyph name="Ubreve.0" xMin="50" yMin="3" xMax="619" yMax="957">
      <component glyphName="Ubreve" x="0" y="0" flags="0x204"/>
    </TTGlyph>
    <TTGlyph name="Ubreve.1" xMin="50" yMin="3" xMax="619" yMax="957">
      <component glyphName="Ubreve" x="0" y="0" flags="0x204"/>
    </TTGlyph>
    <TTGlyph name="Ubreve.2" xMin="50" yMin="3" xMax="619" yMax="957">
      <contour>
        <pt x="463" y="957" on="1"/>
        <pt x="463" y="943" on="1"/>
        <pt x="463" y="890" on="0"/>
        <pt x="426" y="853" on="1"/>
        <pt x="389" y="815" on="0"/>
        <pt x="335" y="815" on="1"/>
        <pt x="281" y="815" on="0"/>
        <pt x="244" y="852" on="1"/>
        <pt x="207" y="889" on="0"/>
        <pt x="207" y="943" on="1"/>
        <pt x="207" y="957" on="1"/>
        <pt x="283" y="957" on="1"/>
        <pt x="281" y="949" on="0"/>
        <pt x="281" y="943" on="1"/>
        <pt x="281" y="921" on="0"/>
        <pt x="297" y="905" on="1"/>
        <pt x="313" y="889" on="0"/>
        <pt x="336" y="889" on="1"/>
        <pt x="358" y="889" on="0"/>
        <pt x="374" y="905" on="1"/>
        <pt x="389" y="921" on="0"/>
        <pt x="389" y="943" on="1"/>
        <pt x="389" y="949" on="0"/>
        <pt x="387" y="957" on="1"/>
      </contour>
      <contour>
        <pt x="616" y="184" on="1"/>
        <pt x="600" y="126" on="0"/>
        <pt x="556" y="85" on="1"/>
        <pt x="511" y="43" on="0"/>
        <pt x="455" y="24" on="1"/>
        <pt x="399" y="4" on="0"/>
        <pt x="335" y="4" on="1"/>
        <pt x="271" y="3" on="0"/>
        <pt x="215" y="22" on="1"/>
        <pt x="158" y="41" on="0"/>
        <pt x="114" y="83" on="1"/>
        <pt x="70" y="125" on="0"/>
        <pt x="53" y="184" on="1"/>
        <pt x="50" y="761" on="1"/>
        <pt x="217" y="761" on="1"/>
        <pt x="217" y="185" on="1"/>
        <pt x="246" y="152" on="0"/>
        <pt x="335" y="152" on="1"/>
        <pt x="424" y="151" on="0"/>
        <pt x="452" y="185" on="1"/>
        <pt x="452" y="761" on="1"/>
        <pt x="619" y="761" on="1"/>
      </contour>
    </TTGlyph>
    <TTGlyph name="Ucircumflex" xMin="50" yMin="3" xMax="619" yMax="1000">
      <component glyphName="uni0302" x="334" y="66" flags="0x4"/>
      <component glyphName="U" x="0" y="0" flags="0x204"/>
    </TTGlyph>
    <TTGlyph name="Ucircumflex.0" xMin="50" yMin="3" xMax="619" yMax="1000">
      <component glyphName="Ucircumflex" x="0" y="0" flags="0x204"/>
    </TTGlyph>
    <TTGlyph name="Ucircumflex.1" xMin="50" yMin="3" xMax="619" yMax="1000">
      <component glyphName="Ucircumflex" x="0" y="0" flags="0x204"/>
    </TTGlyph>
    <TTGlyph name="Ucircumflex.2" xMin="50" yMin="3" xMax="619" yMax="1000">
      <contour>
        <pt x="234" y="832" on="1"/>
        <pt x="305" y="1000" on="1"/>
        <pt x="306" y="1000" on="1"/>
        <pt x="381" y="1000" on="1"/>
        <pt x="382" y="1000" on="1"/>
        <pt x="434" y="832" on="1"/>
        <pt x="358" y="832" on="1"/>
        <pt x="338" y="940" on="1"/>
        <pt x="310" y="832" on="1"/>
      </contour>
      <contour>
        <pt x="616" y="184" on="1"/>
        <pt x="600" y="126" on="0"/>
        <pt x="556" y="85" on="1"/>
        <pt x="511" y="43" on="0"/>
        <pt x="455" y="24" on="1"/>
        <pt x="399" y="4" on="0"/>
        <pt x="335" y="4" on="1"/>
        <pt x="271" y="3" on="0"/>
        <pt x="215" y="22" on="1"/>
        <pt x="158" y="41" on="0"/>
        <pt x="114" y="83" on="1"/>
        <pt x="70" y="125" on="0"/>
        <pt x="53" y="184" on="1"/>
        <pt x="50" y="761" on="1"/>
        <pt x="217" y="761" on="1"/>
        <pt x="217" y="185" on="1"/>
        <pt x="246" y="152" on="0"/>
        <pt x="335" y="152" on="1"/>
        <pt x="424" y="151" on="0"/>
        <pt x="452" y="185" on="1"/>
        <pt x="452" y="761" on="1"/>
        <pt x="619" y="761" on="1"/>
      </contour>
    </TTGlyph>
    <TTGlyph name="Udieresis" xMin="50" yMin="3" xMax="619" yMax="975">
      <component glyphName="uni0308" x="334" y="335" flags="0x4"/>
      <component glyphName="U" x="0" y="0" flags="0x204"/>
    </TTGlyph>
    <TTGlyph name="Udieresis.0" xMin="50" yMin="3" xMax="619" yMax="975">
      <component glyphName="Udieresis" x="0" y="0" flags="0x204"/>
    </TTGlyph>
    <TTGlyph name="Udieresis.1" xMin="50" yMin="3" xMax="619" yMax="975">
      <component glyphName="Udieresis" x="0" y="0" flags="0x204"/>
    </TTGlyph>
    <TTGlyph name="Udieresis.2" xMin="50" yMin="3" xMax="619" yMax="975">
      <contour>
        <pt x="158" y="833" on="1"/>
        <pt x="158" y="975" on="1"/>
        <pt x="310" y="975" on="1"/>
        <pt x="310" y="833" on="1"/>
      </contour>
      <contour>
        <pt x="358" y="833" on="1"/>
        <pt x="358" y="975" on="1"/>
        <pt x="510" y="975" on="1"/>
        <pt x="510" y="833" on="1"/>
      </contour>
      <contour>
        <pt x="616" y="184" on="1"/>
        <pt x="600" y="126" on="0"/>
        <pt x="556" y="85" on="1"/>
        <pt x="511" y="43" on="0"/>
        <pt x="455" y="24" on="1"/>
        <pt x="399" y="4" on="0"/>
        <pt x="335" y="4" on="1"/>
        <pt x="271" y="3" on="0"/>
        <pt x="215" y="22" on="1"/>
        <pt x="158" y="41" on="0"/>
        <pt x="114" y="83" on="1"/>
        <pt x="70" y="125" on="0"/>
        <pt x="53" y="184" on="1"/>
        <pt x="50" y="761" on="1"/>
        <pt x="217" y="761" on="1"/>
        <pt x="217" y="185" on="1"/>
        <pt x="246" y="152" on="0"/>
        <pt x="335" y="152" on="1"/>
        <pt x="424" y="151" on="0"/>
        <pt x="452" y="185" on="1"/>
        <pt x="452" y="761" on="1"/>
        <pt x="619" y="761" on="1"/>
      </contour>
    </TTGlyph>
    <TTGlyph name="Ugrave" xMin="50" yMin="3" xMax="619" yMax="1122">
      <component glyphName="gravecomb" x="298" y="317" flags="0x4"/>
      <component glyphName="U" x="0" y="0" flags="0x204"/>
    </TTGlyph>
    <TTGlyph name="Ugrave.0" xMin="50" yMin="3" xMax="619" yMax="1122">
      <component glyphName="Ugrave" x="0" y="0" flags="0x204"/>
    </TTGlyph>
    <TTGlyph name="Ugrave.1" xMin="50" yMin="3" xMax="619" yMax="1122">
      <component glyphName="Ugrave" x="0" y="0" flags="0x204"/>
    </TTGlyph>
    <TTGlyph name="Ugrave.2" xMin="50" yMin="3" xMax="619" yMax="1122">
      <contour>
        <pt x="335" y="833" on="1"/>
        <pt x="153" y="1015" on="1"/>
        <pt x="261" y="1122" on="1"/>
        <pt x="443" y="940" on="1"/>
      </contour>
      <contour>
        <pt x="616" y="184" on="1"/>
        <pt x="600" y="126" on="0"/>
        <pt x="556" y="85" on="1"/>
        <pt x="511" y="43" on="0"/>
        <pt x="455" y="24" on="1"/>
        <pt x="399" y="4" on="0"/>
        <pt x="335" y="4" on="1"/>
        <pt x="271" y="3" on="0"/>
        <pt x="215" y="22" on="1"/>
        <pt x="158" y="41" on="0"/>
        <pt x="114" y="83" on="1"/>
        <pt x="70" y="125" on="0"/>
        <pt x="53" y="184" on="1"/>
        <pt x="50" y="761" on="1"/>
        <pt x="217" y="761" on="1"/>
        <pt x="217" y="185" on="1"/>
        <pt x="246" y="152" on="0"/>
        <pt x="335" y="152" on="1"/>
        <pt x="424" y="151" on="0"/>
        <pt x="452" y="185" on="1"/>
        <pt x="452" y="761" on="1"/>
        <pt x="619" y="761" on="1"/>
      </contour>
    </TTGlyph>
    <TTGlyph name="Uhungarumlaut" xMin="50" yMin="3" xMax="660" yMax="1124">
      <component glyphName="uni030B" x="372" y="319" flags="0x4"/>
      <component glyphName="U" x="0" y="0" flags="0x4"/>
    </TTGlyph>
    <TTGlyph name="Uhungarumlaut.0" xMin="50" yMin="3" xMax="660" yMax="1124">
      <component glyphName="Uhungarumlaut" x="0" y="0" flags="0x204"/>
    </TTGlyph>
    <TTGlyph name="Uhungarumlaut.1" xMin="50" yMin="3" xMax="660" yMax="1124">
      <component glyphName="Uhungarumlaut" x="0" y="0" flags="0x204"/>
    </TTGlyph>
    <TTGlyph name="Uhungarumlaut.2" xMin="50" yMin="3" xMax="660" yMax="1124">
      <contour>
        <pt x="192" y="835" on="1"/>
        <pt x="84" y="942" on="1"/>
        <pt x="266" y="1124" on="1"/>
        <pt x="374" y="1017" on="1"/>
      </contour>
      <contour>
        <pt x="478" y="833" on="1"/>
        <pt x="370" y="940" on="1"/>
        <pt x="552" y="1122" on="1"/>
        <pt x="660" y="1015" on="1"/>
      </contour>
      <contour>
        <pt x="616" y="184" on="1"/>
        <pt x="600" y="126" on="0"/>
        <pt x="556" y="85" on="1"/>
        <pt x="511" y="43" on="0"/>
        <pt x="455" y="24" on="1"/>
        <pt x="399" y="4" on="0"/>
        <pt x="335" y="4" on="1"/>
        <pt x="271" y="3" on="0"/>
        <pt x="215" y="22" on="1"/>
        <pt x="158" y="41" on="0"/>
        <pt x="114" y="83" on="1"/>
        <pt x="70" y="125" on="0"/>
        <pt x="53" y="184" on="1"/>
        <pt x="50" y="761" on="1"/>
        <pt x="217" y="761" on="1"/>
        <pt x="217" y="185" on="1"/>
        <pt x="246" y="152" on="0"/>
        <pt x="335" y="152" on="1"/>
        <pt x="424" y="151" on="0"/>
        <pt x="452" y="185" on="1"/>
        <pt x="452" y="761" on="1"/>
        <pt x="619" y="761" on="1"/>
      </contour>
    </TTGlyph>
    <TTGlyph name="Umacron" xMin="50" yMin="3" xMax="619" yMax="909">
      <component glyphName="uni0304" x="334" y="51" flags="0x4"/>
      <component glyphName="U" x="0" y="0" flags="0x204"/>
    </TTGlyph>
    <TTGlyph name="Umacron.0" xMin="50" yMin="3" xMax="619" yMax="909">
      <component glyphName="Umacron" x="0" y="0" flags="0x204"/>
    </TTGlyph>
    <TTGlyph name="Umacron.1" xMin="50" yMin="3" xMax="619" yMax="909">
      <component glyphName="Umacron" x="0" y="0" flags="0x204"/>
    </TTGlyph>
    <TTGlyph name="Umacron.2" xMin="50" yMin="3" xMax="619" yMax="909">
      <contour>
        <pt x="470" y="909" on="1"/>
        <pt x="470" y="833" on="1"/>
        <pt x="198" y="833" on="1"/>
        <pt x="198" y="909" on="1"/>
      </contour>
      <contour>
        <pt x="616" y="184" on="1"/>
        <pt x="600" y="126" on="0"/>
        <pt x="556" y="85" on="1"/>
        <pt x="511" y="43" on="0"/>
        <pt x="455" y="24" on="1"/>
        <pt x="399" y="4" on="0"/>
        <pt x="335" y="4" on="1"/>
        <pt x="271" y="3" on="0"/>
        <pt x="215" y="22" on="1"/>
        <pt x="158" y="41" on="0"/>
        <pt x="114" y="83" on="1"/>
        <pt x="70" y="125" on="0"/>
        <pt x="53" y="184" on="1"/>
        <pt x="50" y="761" on="1"/>
        <pt x="217" y="761" on="1"/>
        <pt x="217" y="185" on="1"/>
        <pt x="246" y="152" on="0"/>
        <pt x="335" y="152" on="1"/>
        <pt x="424" y="151" on="0"/>
        <pt x="452" y="185" on="1"/>
        <pt x="452" y="761" on="1"/>
        <pt x="619" y="761" on="1"/>
      </contour>
    </TTGlyph>
    <TTGlyph name="Uogonek" xMin="50" yMin="-245" xMax="619" yMax="761">
      <component glyphName="uni0328" x="321" y="-177" flags="0x4"/>
      <component glyphName="U" x="0" y="0" flags="0x204"/>
    </TTGlyph>
    <TTGlyph name="Uogonek.0" xMin="50" yMin="-245" xMax="619" yMax="761">
      <component glyphName="Uogonek" x="0" y="0" flags="0x204"/>
    </TTGlyph>
    <TTGlyph name="Uogonek.1" xMin="50" yMin="-245" xMax="619" yMax="761">
      <component glyphName="Uogonek" x="0" y="0" flags="0x204"/>
    </TTGlyph>
    <TTGlyph name="Uogonek.2" xMin="50" yMin="-245" xMax="619" yMax="761">
      <contour>
        <pt x="342" y="-245" on="1"/>
        <pt x="329" y="-245" on="1"/>
        <pt x="275" y="-245" on="0"/>
        <pt x="237" y="-207" on="1"/>
        <pt x="200" y="-170" on="0"/>
        <pt x="200" y="-117" on="1"/>
        <pt x="200" y="-63" on="0"/>
        <pt x="237" y="-25" on="1"/>
        <pt x="275" y="12" on="0"/>
        <pt x="329" y="12" on="1"/>
        <pt x="342" y="12" on="1"/>
        <pt x="342" y="-65" on="1"/>
        <pt x="333" y="-63" on="0"/>
        <pt x="329" y="-63" on="1"/>
        <pt x="306" y="-63" on="0"/>
        <pt x="291" y="-79" on="1"/>
        <pt x="275" y="-95" on="0"/>
        <pt x="275" y="-117" on="1"/>
        <pt x="275" y="-139" on="0"/>
        <pt x="290" y="-154" on="1"/>
        <pt x="306" y="-170" on="0"/>
        <pt x="329" y="-170" on="1"/>
        <pt x="334" y="-170" on="0"/>
        <pt x="342" y="-168" on="1"/>
      </contour>
      <contour>
        <pt x="616" y="184" on="1"/>
        <pt x="600" y="126" on="0"/>
        <pt x="556" y="85" on="1"/>
        <pt x="511" y="43" on="0"/>
        <pt x="455" y="24" on="1"/>
        <pt x="399" y="4" on="0"/>
        <pt x="335" y="4" on="1"/>
        <pt x="271" y="3" on="0"/>
        <pt x="215" y="22" on="1"/>
        <pt x="158" y="41" on="0"/>
        <pt x="114" y="83" on="1"/>
        <pt x="70" y="125" on="0"/>
        <pt x="53" y="184" on="1"/>
        <pt x="50" y="761" on="1"/>
        <pt x="217" y="761" on="1"/>
        <pt x="217" y="185" on="1"/>
        <pt x="246" y="152" on="0"/>
        <pt x="335" y="152" on="1"/>
        <pt x="424" y="151" on="0"/>
        <pt x="452" y="185" on="1"/>
        <pt x="452" y="761" on="1"/>
        <pt x="619" y="761" on="1"/>
      </contour>
    </TTGlyph>
    <TTGlyph name="Uring" xMin="50" yMin="3" xMax="619" yMax="1090">
      <component glyphName="uni030A" x="334" y="401" flags="0x4"/>
      <component glyphName="U" x="0" y="0" flags="0x204"/>
    </TTGlyph>
    <TTGlyph name="Uring.0" xMin="50" yMin="3" xMax="619" yMax="1090">
      <component glyphName="Uring" x="0" y="0" flags="0x204"/>
    </TTGlyph>
    <TTGlyph name="Uring.1" xMin="50" yMin="3" xMax="619" yMax="1090">
      <component glyphName="Uring" x="0" y="0" flags="0x204"/>
    </TTGlyph>
</ttFont>
